<svg width="1219" height="128" viewBox="0 0 1219 128" fill="none" xmlns="http://www.w3.org/2000/svg">
<g filter="url(#filter0_i_366_198)">
<rect width="1219" height="128" fill="#1A1616"/>
</g>
<path d="M512.728 106.4C512.728 105.587 512.885 104.897 513.198 104.33C513.518 103.757 513.968 103.32 514.548 103.02C515.128 102.72 515.812 102.57 516.598 102.57C517.385 102.57 518.068 102.72 518.648 103.02C519.228 103.32 519.675 103.757 519.988 104.33C520.308 104.897 520.468 105.587 520.468 106.4C520.468 107.213 520.308 107.907 519.988 108.48C519.675 109.047 519.228 109.48 518.648 109.78C518.068 110.08 517.385 110.23 516.598 110.23C515.812 110.23 515.128 110.08 514.548 109.78C513.968 109.48 513.518 109.047 513.198 108.48C512.885 107.907 512.728 107.213 512.728 106.4ZM513.638 106.4C513.638 107.093 513.762 107.663 514.008 108.11C514.255 108.557 514.598 108.887 515.038 109.1C515.485 109.313 516.005 109.42 516.598 109.42C517.192 109.42 517.708 109.313 518.148 109.1C518.595 108.887 518.942 108.557 519.188 108.11C519.435 107.657 519.558 107.087 519.558 106.4C519.558 105.713 519.435 105.147 519.188 104.7C518.942 104.247 518.595 103.913 518.148 103.7C517.708 103.487 517.192 103.38 516.598 103.38C516.005 103.38 515.485 103.487 515.038 103.7C514.598 103.913 514.255 104.243 514.008 104.69C513.762 105.137 513.638 105.707 513.638 106.4ZM514.628 106.4C514.628 105.787 514.835 105.293 515.248 104.92C515.662 104.547 516.265 104.36 517.058 104.36C517.205 104.36 517.362 104.367 517.528 104.38C517.695 104.393 517.835 104.42 517.948 104.46V105.4H517.878C517.792 105.36 517.675 105.33 517.528 105.31C517.388 105.283 517.252 105.27 517.118 105.27C516.665 105.27 516.335 105.373 516.128 105.58C515.922 105.78 515.818 106.053 515.818 106.4C515.818 106.767 515.915 107.047 516.108 107.24C516.302 107.433 516.638 107.53 517.118 107.53C517.252 107.53 517.388 107.517 517.528 107.49C517.675 107.463 517.792 107.433 517.878 107.4H517.948V108.34C517.835 108.373 517.695 108.4 517.528 108.42C517.362 108.433 517.205 108.44 517.058 108.44C516.245 108.44 515.635 108.257 515.228 107.89C514.828 107.517 514.628 107.02 514.628 106.4ZM522.555 108.16V106.73H524.195C524.528 106.73 524.795 106.663 524.995 106.53C525.202 106.397 525.348 106.22 525.435 106C525.528 105.78 525.575 105.537 525.575 105.27C525.575 104.923 525.475 104.673 525.275 104.52C525.082 104.36 524.828 104.28 524.515 104.28H522.555V102.8H524.495C525.428 102.8 526.135 103.013 526.615 103.44C527.095 103.867 527.335 104.46 527.335 105.22C527.335 105.627 527.268 106.01 527.135 106.37C527.008 106.73 526.815 107.043 526.555 107.31C526.295 107.577 525.972 107.787 525.585 107.94C525.205 108.087 524.762 108.16 524.255 108.16H522.555ZM521.595 110V102.8H523.375V110H521.595ZM528.033 107.25C528.033 106.603 528.153 106.07 528.393 105.65C528.633 105.223 528.963 104.907 529.383 104.7C529.809 104.487 530.299 104.38 530.853 104.38C531.399 104.38 531.886 104.487 532.313 104.7C532.739 104.907 533.073 105.223 533.313 105.65C533.553 106.07 533.673 106.603 533.673 107.25C533.673 107.89 533.553 108.423 533.313 108.85C533.073 109.27 532.739 109.587 532.313 109.8C531.886 110.007 531.399 110.11 530.853 110.11C530.299 110.11 529.809 110.007 529.383 109.8C528.956 109.587 528.623 109.27 528.383 108.85C528.149 108.423 528.033 107.89 528.033 107.25ZM529.823 107.25C529.823 107.77 529.906 108.163 530.073 108.43C530.246 108.697 530.506 108.83 530.853 108.83C531.199 108.83 531.456 108.697 531.623 108.43C531.796 108.163 531.883 107.77 531.883 107.25C531.883 106.723 531.796 106.327 531.623 106.06C531.456 105.793 531.199 105.66 530.853 105.66C530.506 105.66 530.246 105.793 530.073 106.06C529.906 106.327 529.823 106.723 529.823 107.25ZM536.607 110H534.847V104.06C534.847 103.927 534.844 103.76 534.837 103.56C534.837 103.353 534.827 103.153 534.807 102.96C534.794 102.76 534.774 102.6 534.747 102.48L534.777 102.4H536.607V110ZM536.297 107.13L538.467 104.53H540.317V104.65C540.25 104.703 540.167 104.783 540.067 104.89C539.967 104.997 539.864 105.113 539.757 105.24C539.657 105.36 539.56 105.473 539.467 105.58L537.637 107.59L537.647 106.47L539.587 109.01C539.714 109.177 539.854 109.343 540.007 109.51C540.167 109.677 540.294 109.8 540.387 109.88V110H538.387L536.297 107.13ZM543.862 110.11C543.375 110.11 542.925 110.057 542.512 109.95C542.105 109.843 541.755 109.68 541.462 109.46C541.175 109.233 540.952 108.937 540.792 108.57C540.639 108.203 540.562 107.763 540.562 107.25C540.562 106.65 540.675 106.137 540.902 105.71C541.129 105.277 541.452 104.947 541.872 104.72C542.292 104.493 542.789 104.38 543.362 104.38C543.982 104.38 544.489 104.51 544.882 104.77C545.275 105.03 545.559 105.387 545.732 105.84C545.912 106.293 545.985 106.807 545.952 107.38L545.942 107.74H541.642V106.7H544.262V106.65C544.262 106.317 544.185 106.06 544.032 105.88C543.885 105.693 543.652 105.6 543.332 105.6C543.125 105.6 542.945 105.647 542.792 105.74C542.645 105.833 542.529 105.99 542.442 106.21C542.362 106.423 542.322 106.717 542.322 107.09V107.41C542.322 107.763 542.392 108.04 542.532 108.24C542.679 108.433 542.879 108.573 543.132 108.66C543.385 108.74 543.682 108.78 544.022 108.78C544.329 108.78 544.609 108.75 544.862 108.69C545.122 108.63 545.322 108.56 545.462 108.48H545.562V109.85C545.362 109.93 545.122 109.993 544.842 110.04C544.569 110.087 544.242 110.11 543.862 110.11ZM547.072 102.8H548.842V107.1C548.842 107.6 548.936 107.98 549.122 108.24C549.316 108.493 549.642 108.62 550.102 108.62C550.569 108.62 550.899 108.493 551.092 108.24C551.292 107.98 551.392 107.6 551.392 107.1V102.8H553.162V107.01C553.162 108.03 552.912 108.803 552.412 109.33C551.919 109.857 551.149 110.12 550.102 110.12C549.042 110.12 548.272 109.857 547.792 109.33C547.312 108.803 547.072 108.03 547.072 107.01V102.8ZM554.661 112.32V106.58C554.661 106.447 554.658 106.28 554.651 106.08C554.651 105.88 554.641 105.68 554.621 105.48C554.608 105.28 554.588 105.12 554.561 105L554.591 104.92C554.985 104.76 555.381 104.63 555.781 104.53C556.188 104.43 556.618 104.38 557.071 104.38C557.465 104.38 557.841 104.433 558.201 104.54C558.568 104.64 558.895 104.803 559.181 105.03C559.468 105.25 559.695 105.543 559.861 105.91C560.028 106.277 560.111 106.723 560.111 107.25C560.111 107.623 560.055 107.983 559.941 108.33C559.828 108.677 559.651 108.983 559.411 109.25C559.178 109.517 558.878 109.73 558.511 109.89C558.145 110.043 557.701 110.12 557.181 110.12C556.988 110.12 556.801 110.107 556.621 110.08C556.441 110.06 556.308 110.037 556.221 110.01L556.301 108.74C556.368 108.773 556.451 108.8 556.551 108.82C556.658 108.833 556.781 108.84 556.921 108.84C557.421 108.84 557.778 108.697 557.991 108.41C558.205 108.117 558.311 107.73 558.311 107.25C558.311 106.777 558.205 106.4 557.991 106.12C557.785 105.833 557.451 105.69 556.991 105.69C556.798 105.69 556.618 105.717 556.451 105.77C556.285 105.823 556.175 105.877 556.121 105.93L556.251 105.49C556.325 105.59 556.371 105.717 556.391 105.87C556.411 106.023 556.421 106.22 556.421 106.46V112.32H554.661ZM561.512 107.44C561.492 107.347 561.472 107.19 561.452 106.97C561.432 106.743 561.412 106.487 561.392 106.2C561.379 105.907 561.372 105.62 561.372 105.34V102.8H563.162L563.212 102.91C563.185 103.03 563.165 103.173 563.152 103.34C563.145 103.5 563.139 103.667 563.132 103.84C563.132 104.013 563.132 104.18 563.132 104.34V105.34C563.132 105.62 563.125 105.907 563.112 106.2C563.099 106.487 563.079 106.743 563.052 106.97C563.032 107.19 563.015 107.347 563.002 107.44H561.512ZM562.262 110.11C561.975 110.11 561.742 110.023 561.562 109.85C561.389 109.67 561.302 109.437 561.302 109.15C561.302 108.857 561.389 108.623 561.562 108.45C561.742 108.27 561.975 108.18 562.262 108.18C562.549 108.18 562.779 108.27 562.952 108.45C563.132 108.623 563.222 108.857 563.222 109.15C563.222 109.437 563.132 109.67 562.952 109.85C562.779 110.023 562.549 110.11 562.262 110.11ZM566.903 110C566.843 109.88 566.799 109.717 566.773 109.51C566.753 109.303 566.743 109.12 566.743 108.96C566.743 108.553 566.813 108.18 566.953 107.84C567.093 107.5 567.313 107.203 567.613 106.95C567.919 106.697 568.323 106.5 568.823 106.36L569.253 106.24C569.566 106.147 569.793 106.013 569.933 105.84C570.079 105.66 570.153 105.427 570.153 105.14C570.153 104.827 570.043 104.577 569.823 104.39C569.603 104.203 569.249 104.11 568.763 104.11C568.556 104.11 568.349 104.13 568.143 104.17C567.936 104.203 567.749 104.25 567.583 104.31C567.416 104.363 567.283 104.417 567.183 104.47H567.073V103.03C567.273 102.937 567.546 102.857 567.893 102.79C568.239 102.717 568.599 102.68 568.973 102.68C569.639 102.68 570.183 102.79 570.603 103.01C571.023 103.223 571.333 103.513 571.533 103.88C571.733 104.247 571.833 104.653 571.833 105.1C571.833 105.74 571.659 106.25 571.313 106.63C570.966 107.003 570.453 107.293 569.773 107.5L569.403 107.61C569.043 107.703 568.779 107.853 568.613 108.06C568.453 108.26 568.373 108.507 568.373 108.8C568.373 108.853 568.376 108.9 568.383 108.94C568.396 108.973 568.409 109.027 568.423 109.1L567.723 108.57H571.923V110H566.903ZM575.585 110.12C575.085 110.12 574.658 110.027 574.305 109.84C573.952 109.653 573.665 109.39 573.445 109.05C573.225 108.71 573.062 108.317 572.955 107.87C572.855 107.417 572.805 106.927 572.805 106.4C572.805 105.873 572.855 105.387 572.955 104.94C573.062 104.487 573.225 104.09 573.445 103.75C573.665 103.41 573.952 103.147 574.305 102.96C574.658 102.773 575.085 102.68 575.585 102.68C576.085 102.68 576.512 102.773 576.865 102.96C577.218 103.147 577.505 103.41 577.725 103.75C577.945 104.09 578.105 104.487 578.205 104.94C578.312 105.387 578.365 105.873 578.365 106.4C578.365 106.927 578.312 107.417 578.205 107.87C578.105 108.317 577.945 108.71 577.725 109.05C577.505 109.39 577.218 109.653 576.865 109.84C576.512 110.027 576.085 110.12 575.585 110.12ZM575.585 108.72C575.858 108.72 576.072 108.623 576.225 108.43C576.385 108.23 576.502 107.957 576.575 107.61C576.648 107.263 576.685 106.86 576.685 106.4C576.685 105.94 576.648 105.537 576.575 105.19C576.502 104.843 576.385 104.573 576.225 104.38C576.072 104.18 575.858 104.08 575.585 104.08C575.312 104.08 575.095 104.18 574.935 104.38C574.782 104.573 574.668 104.843 574.595 105.19C574.522 105.537 574.485 105.94 574.485 106.4C574.485 106.86 574.522 107.263 574.595 107.61C574.668 107.957 574.782 108.23 574.935 108.43C575.095 108.623 575.312 108.72 575.585 108.72ZM579.227 110C579.167 109.88 579.124 109.717 579.097 109.51C579.077 109.303 579.067 109.12 579.067 108.96C579.067 108.553 579.137 108.18 579.277 107.84C579.417 107.5 579.637 107.203 579.937 106.95C580.244 106.697 580.647 106.5 581.147 106.36L581.577 106.24C581.89 106.147 582.117 106.013 582.257 105.84C582.404 105.66 582.477 105.427 582.477 105.14C582.477 104.827 582.367 104.577 582.147 104.39C581.927 104.203 581.574 104.11 581.087 104.11C580.88 104.11 580.674 104.13 580.467 104.17C580.26 104.203 580.074 104.25 579.907 104.31C579.74 104.363 579.607 104.417 579.507 104.47H579.397V103.03C579.597 102.937 579.87 102.857 580.217 102.79C580.564 102.717 580.924 102.68 581.297 102.68C581.964 102.68 582.507 102.79 582.927 103.01C583.347 103.223 583.657 103.513 583.857 103.88C584.057 104.247 584.157 104.653 584.157 105.1C584.157 105.74 583.984 106.25 583.637 106.63C583.29 107.003 582.777 107.293 582.097 107.5L581.727 107.61C581.367 107.703 581.104 107.853 580.937 108.06C580.777 108.26 580.697 108.507 580.697 108.8C580.697 108.853 580.7 108.9 580.707 108.94C580.72 108.973 580.734 109.027 580.747 109.1L580.047 108.57H584.247V110H579.227ZM585.359 108.29H585.469C585.602 108.377 585.826 108.47 586.139 108.57C586.459 108.67 586.816 108.72 587.209 108.72C587.576 108.72 587.876 108.677 588.109 108.59C588.342 108.503 588.512 108.387 588.619 108.24C588.726 108.087 588.779 107.913 588.779 107.72C588.779 107.433 588.666 107.21 588.439 107.05C588.219 106.883 587.836 106.8 587.289 106.8C586.909 106.8 586.592 106.823 586.339 106.87C586.092 106.917 585.879 106.96 585.699 107L585.619 106.96V104.65C585.619 104.517 585.616 104.343 585.609 104.13C585.609 103.917 585.602 103.707 585.589 103.5C585.582 103.287 585.566 103.12 585.539 103L585.559 102.89C585.719 102.863 585.906 102.843 586.119 102.83C586.332 102.81 586.619 102.8 586.979 102.8H590.149V104.2H586.489L587.119 103.83C587.166 103.95 587.196 104.097 587.209 104.27C587.229 104.437 587.239 104.62 587.239 104.82V106.33L586.769 105.64C586.942 105.633 587.122 105.62 587.309 105.6C587.496 105.58 587.682 105.57 587.869 105.57C588.736 105.57 589.389 105.76 589.829 106.14C590.269 106.513 590.489 107.047 590.489 107.74C590.489 108.24 590.366 108.667 590.119 109.02C589.879 109.373 589.522 109.647 589.049 109.84C588.576 110.027 587.989 110.12 587.289 110.12C586.869 110.12 586.489 110.08 586.149 110C585.816 109.927 585.552 109.843 585.359 109.75V108.29ZM592.401 110.11C592.121 110.11 591.891 110.023 591.711 109.85C591.531 109.67 591.441 109.437 591.441 109.15C591.441 108.857 591.531 108.623 591.711 108.45C591.891 108.27 592.121 108.18 592.401 108.18C592.695 108.18 592.928 108.27 593.101 108.45C593.281 108.623 593.371 108.857 593.371 109.15C593.371 109.437 593.281 109.67 593.101 109.85C592.928 110.023 592.695 110.11 592.401 110.11ZM596.897 106.1H600.717V107.51H596.897V106.1ZM604.134 110L604.934 105.28C605.021 104.76 605.161 104.333 605.354 104C605.547 103.667 605.787 103.407 606.074 103.22C606.367 103.033 606.711 102.903 607.104 102.83C607.497 102.757 607.937 102.72 608.424 102.72C608.704 102.72 609.007 102.737 609.334 102.77C609.661 102.803 609.957 102.85 610.224 102.91L610.244 103.03C610.217 103.15 610.197 103.31 610.184 103.51C610.177 103.71 610.171 103.913 610.164 104.12C610.164 104.327 610.164 104.497 610.164 104.63V110H608.394V104.81C608.394 104.617 608.401 104.44 608.414 104.28C608.434 104.113 608.457 103.963 608.484 103.83L608.714 104.26C608.641 104.24 608.541 104.227 608.414 104.22C608.294 104.207 608.181 104.2 608.074 104.2C607.761 104.2 607.511 104.243 607.324 104.33C607.137 104.41 606.994 104.533 606.894 104.7C606.801 104.867 606.731 105.08 606.684 105.34L605.914 110H604.134ZM605.414 108.16V106.74H609.214V108.16H605.414ZM611.693 110V104.07C611.693 103.93 611.689 103.76 611.683 103.56C611.683 103.353 611.673 103.153 611.653 102.96C611.639 102.76 611.619 102.6 611.593 102.48L611.623 102.4H613.453V110H611.693ZM614.984 110V104.07C614.984 103.93 614.98 103.76 614.974 103.56C614.974 103.353 614.964 103.153 614.944 102.96C614.93 102.76 614.91 102.6 614.884 102.48L614.914 102.4H616.744V110H614.984ZM621.598 108.29V106.85H623.288C623.621 106.85 623.891 106.78 624.098 106.64C624.311 106.493 624.468 106.307 624.568 106.08C624.668 105.853 624.718 105.61 624.718 105.35C624.718 104.983 624.611 104.713 624.398 104.54C624.191 104.367 623.915 104.28 623.568 104.28H621.598V102.8H623.578C624.231 102.8 624.771 102.903 625.198 103.11C625.631 103.31 625.955 103.597 626.168 103.97C626.388 104.343 626.498 104.783 626.498 105.29C626.498 105.757 626.411 106.177 626.238 106.55C626.065 106.917 625.828 107.23 625.528 107.49C625.235 107.75 624.898 107.95 624.518 108.09C624.138 108.223 623.741 108.29 623.328 108.29H621.598ZM620.638 110V102.8H622.418V110H620.638ZM624.758 110L623.318 107.92L624.978 107.64L626.718 109.9V110H624.758ZM628.705 103.74C628.432 103.74 628.209 103.663 628.035 103.51C627.862 103.35 627.775 103.123 627.775 102.83C627.775 102.537 627.862 102.313 628.035 102.16C628.209 102 628.432 101.92 628.705 101.92C628.985 101.92 629.212 102 629.385 102.16C629.559 102.313 629.645 102.537 629.645 102.83C629.645 103.123 629.559 103.35 629.385 103.51C629.212 103.663 628.985 103.74 628.705 103.74ZM627.825 110V106.2C627.825 106.067 627.822 105.897 627.815 105.69C627.815 105.483 627.805 105.283 627.785 105.09C627.772 104.89 627.752 104.73 627.725 104.61L627.755 104.53H629.585V110H627.825ZM632.888 112.4C632.621 112.4 632.335 112.38 632.028 112.34C631.728 112.3 631.485 112.237 631.298 112.15V110.76H631.438C631.611 110.84 631.821 110.9 632.068 110.94C632.315 110.987 632.541 111.01 632.748 111.01C633.081 111.01 633.371 110.973 633.618 110.9C633.871 110.827 634.068 110.703 634.208 110.53C634.348 110.357 634.418 110.117 634.418 109.81V106.56C634.418 106.32 634.428 106.1 634.448 105.9C634.468 105.7 634.508 105.56 634.568 105.48L634.718 105.79C634.678 105.79 634.581 105.78 634.428 105.76C634.281 105.733 634.118 105.72 633.938 105.72C633.611 105.72 633.341 105.783 633.128 105.91C632.921 106.037 632.768 106.213 632.668 106.44C632.575 106.667 632.528 106.923 632.528 107.21C632.528 107.683 632.641 108.047 632.868 108.3C633.095 108.553 633.451 108.68 633.938 108.68C634.031 108.68 634.125 108.677 634.218 108.67C634.318 108.657 634.435 108.627 634.568 108.58L634.558 109.87C634.378 109.903 634.215 109.927 634.068 109.94C633.928 109.953 633.795 109.96 633.668 109.96C633.075 109.96 632.558 109.86 632.118 109.66C631.678 109.46 631.338 109.16 631.098 108.76C630.858 108.353 630.738 107.847 630.738 107.24C630.738 106.753 630.821 106.33 630.988 105.97C631.155 105.61 631.388 105.313 631.688 105.08C631.995 104.847 632.351 104.673 632.758 104.56C633.165 104.44 633.605 104.38 634.078 104.38C634.531 104.38 634.941 104.427 635.308 104.52C635.675 104.613 635.978 104.717 636.218 104.83L636.258 104.91C636.231 105.03 636.211 105.19 636.198 105.39C636.191 105.59 636.185 105.793 636.178 106C636.178 106.207 636.178 106.38 636.178 106.52V109.59C636.178 110.237 636.038 110.767 635.758 111.18C635.485 111.593 635.101 111.9 634.608 112.1C634.115 112.3 633.541 112.4 632.888 112.4ZM637.698 110V104.06C637.698 103.927 637.695 103.76 637.688 103.56C637.688 103.353 637.678 103.153 637.658 102.96C637.645 102.76 637.625 102.6 637.598 102.48L637.628 102.4H639.458V105.26L639.088 104.68C639.288 104.593 639.502 104.523 639.728 104.47C639.962 104.41 640.238 104.38 640.558 104.38C640.918 104.38 641.248 104.43 641.548 104.53C641.848 104.623 642.102 104.77 642.308 104.97C642.522 105.17 642.685 105.43 642.798 105.75C642.918 106.063 642.978 106.44 642.978 106.88V110H641.218V106.92C641.218 106.627 641.172 106.4 641.078 106.24C640.985 106.073 640.855 105.957 640.688 105.89C640.522 105.817 640.325 105.78 640.098 105.78C639.992 105.78 639.868 105.793 639.728 105.82C639.588 105.847 639.462 105.87 639.348 105.89C639.242 105.91 639.168 105.923 639.128 105.93L639.458 105.17V110H637.698ZM647.009 110.08C646.523 110.08 646.096 110.017 645.729 109.89C645.369 109.757 645.086 109.537 644.879 109.23C644.679 108.917 644.579 108.497 644.579 107.97V103.16H646.339V107.84C646.339 108.147 646.413 108.367 646.559 108.5C646.713 108.627 646.949 108.69 647.269 108.69C647.389 108.69 647.506 108.677 647.619 108.65C647.733 108.623 647.833 108.593 647.919 108.56H648.029V109.94C647.883 109.987 647.729 110.02 647.569 110.04C647.409 110.067 647.223 110.08 647.009 110.08ZM643.689 105.89V104.53H647.779V105.89H643.689ZM648.796 108.39H648.876C649.116 108.49 649.406 108.58 649.746 108.66C650.086 108.74 650.426 108.78 650.766 108.78C650.9 108.78 651.023 108.777 651.136 108.77C651.25 108.757 651.346 108.737 651.426 108.71C651.513 108.683 651.58 108.64 651.626 108.58C651.673 108.52 651.696 108.44 651.696 108.34C651.696 108.193 651.633 108.093 651.506 108.04C651.386 107.987 651.173 107.933 650.866 107.88L650.416 107.8C649.91 107.707 649.506 107.543 649.206 107.31C648.913 107.077 648.766 106.72 648.766 106.24C648.766 105.893 648.86 105.583 649.046 105.31C649.233 105.03 649.526 104.813 649.926 104.66C650.326 104.5 650.843 104.42 651.476 104.42C651.776 104.42 652.05 104.437 652.296 104.47C652.55 104.503 652.803 104.557 653.056 104.63V106.02H652.976C652.703 105.913 652.436 105.84 652.176 105.8C651.916 105.753 651.67 105.73 651.436 105.73C651.13 105.73 650.89 105.763 650.716 105.83C650.543 105.89 650.456 106.003 650.456 106.17C650.456 106.297 650.523 106.387 650.656 106.44C650.796 106.493 650.996 106.543 651.256 106.59L651.716 106.67C652.03 106.723 652.313 106.81 652.566 106.93C652.826 107.05 653.033 107.22 653.186 107.44C653.34 107.653 653.416 107.93 653.416 108.27C653.416 108.883 653.186 109.34 652.726 109.64C652.273 109.933 651.586 110.08 650.666 110.08C650.353 110.08 650.03 110.053 649.696 110C649.363 109.947 649.063 109.88 648.796 109.8V108.39ZM657.838 108.29V106.85H659.528C659.861 106.85 660.131 106.78 660.338 106.64C660.551 106.493 660.708 106.307 660.808 106.08C660.908 105.853 660.958 105.61 660.958 105.35C660.958 104.983 660.851 104.713 660.638 104.54C660.431 104.367 660.155 104.28 659.808 104.28H657.838V102.8H659.818C660.471 102.8 661.011 102.903 661.438 103.11C661.871 103.31 662.195 103.597 662.408 103.97C662.628 104.343 662.738 104.783 662.738 105.29C662.738 105.757 662.651 106.177 662.478 106.55C662.305 106.917 662.068 107.23 661.768 107.49C661.475 107.75 661.138 107.95 660.758 108.09C660.378 108.223 659.981 108.29 659.568 108.29H657.838ZM656.878 110V102.8H658.658V110H656.878ZM660.998 110L659.558 107.92L661.218 107.64L662.958 109.9V110H660.998ZM666.987 110.11C666.5 110.11 666.05 110.057 665.637 109.95C665.23 109.843 664.88 109.68 664.587 109.46C664.3 109.233 664.077 108.937 663.917 108.57C663.764 108.203 663.687 107.763 663.687 107.25C663.687 106.65 663.8 106.137 664.027 105.71C664.254 105.277 664.577 104.947 664.997 104.72C665.417 104.493 665.914 104.38 666.487 104.38C667.107 104.38 667.614 104.51 668.007 104.77C668.4 105.03 668.684 105.387 668.857 105.84C669.037 106.293 669.11 106.807 669.077 107.38L669.067 107.74H664.767V106.7H667.387V106.65C667.387 106.317 667.31 106.06 667.157 105.88C667.01 105.693 666.777 105.6 666.457 105.6C666.25 105.6 666.07 105.647 665.917 105.74C665.77 105.833 665.654 105.99 665.567 106.21C665.487 106.423 665.447 106.717 665.447 107.09V107.41C665.447 107.763 665.517 108.04 665.657 108.24C665.804 108.433 666.004 108.573 666.257 108.66C666.51 108.74 666.807 108.78 667.147 108.78C667.454 108.78 667.734 108.75 667.987 108.69C668.247 108.63 668.447 108.56 668.587 108.48H668.687V109.85C668.487 109.93 668.247 109.993 667.967 110.04C667.694 110.087 667.367 110.11 666.987 110.11ZM670.037 108.39H670.117C670.357 108.49 670.647 108.58 670.987 108.66C671.327 108.74 671.667 108.78 672.007 108.78C672.14 108.78 672.263 108.777 672.377 108.77C672.49 108.757 672.587 108.737 672.667 108.71C672.753 108.683 672.82 108.64 672.867 108.58C672.913 108.52 672.937 108.44 672.937 108.34C672.937 108.193 672.873 108.093 672.747 108.04C672.627 107.987 672.413 107.933 672.107 107.88L671.657 107.8C671.15 107.707 670.747 107.543 670.447 107.31C670.153 107.077 670.007 106.72 670.007 106.24C670.007 105.893 670.1 105.583 670.287 105.31C670.473 105.03 670.767 104.813 671.167 104.66C671.567 104.5 672.083 104.42 672.717 104.42C673.017 104.42 673.29 104.437 673.537 104.47C673.79 104.503 674.043 104.557 674.297 104.63V106.02H674.217C673.943 105.913 673.677 105.84 673.417 105.8C673.157 105.753 672.91 105.73 672.677 105.73C672.37 105.73 672.13 105.763 671.957 105.83C671.783 105.89 671.697 106.003 671.697 106.17C671.697 106.297 671.763 106.387 671.897 106.44C672.037 106.493 672.237 106.543 672.497 106.59L672.957 106.67C673.27 106.723 673.553 106.81 673.807 106.93C674.067 107.05 674.273 107.22 674.427 107.44C674.58 107.653 674.657 107.93 674.657 108.27C674.657 108.883 674.427 109.34 673.967 109.64C673.513 109.933 672.827 110.08 671.907 110.08C671.593 110.08 671.27 110.053 670.937 110C670.603 109.947 670.303 109.88 670.037 109.8V108.39ZM678.706 110.11C678.219 110.11 677.769 110.057 677.356 109.95C676.949 109.843 676.599 109.68 676.306 109.46C676.019 109.233 675.796 108.937 675.636 108.57C675.482 108.203 675.406 107.763 675.406 107.25C675.406 106.65 675.519 106.137 675.746 105.71C675.972 105.277 676.296 104.947 676.716 104.72C677.136 104.493 677.632 104.38 678.206 104.38C678.826 104.38 679.332 104.51 679.726 104.77C680.119 105.03 680.402 105.387 680.576 105.84C680.756 106.293 680.829 106.807 680.796 107.38L680.786 107.74H676.486V106.7H679.106V106.65C679.106 106.317 679.029 106.06 678.876 105.88C678.729 105.693 678.496 105.6 678.176 105.6C677.969 105.6 677.789 105.647 677.636 105.74C677.489 105.833 677.372 105.99 677.286 106.21C677.206 106.423 677.166 106.717 677.166 107.09V107.41C677.166 107.763 677.236 108.04 677.376 108.24C677.522 108.433 677.722 108.573 677.976 108.66C678.229 108.74 678.526 108.78 678.866 108.78C679.172 108.78 679.452 108.75 679.706 108.69C679.966 108.63 680.166 108.56 680.306 108.48H680.406V109.85C680.206 109.93 679.966 109.993 679.686 110.04C679.412 110.087 679.086 110.11 678.706 110.11ZM681.966 110V106.48C681.966 106.347 681.963 106.177 681.956 105.97C681.956 105.757 681.946 105.55 681.926 105.35C681.913 105.143 681.893 104.98 681.866 104.86L681.896 104.78C682.089 104.713 682.306 104.653 682.546 104.6C682.793 104.547 683.063 104.503 683.356 104.47C683.656 104.43 683.983 104.41 684.336 104.41C684.436 104.41 684.569 104.413 684.736 104.42C684.909 104.427 685.093 104.447 685.286 104.48V105.86H685.176C685.063 105.833 684.939 105.813 684.806 105.8C684.679 105.78 684.553 105.77 684.426 105.77C684.206 105.77 683.999 105.79 683.806 105.83C683.613 105.863 683.449 105.91 683.316 105.97L683.556 105.58C683.669 105.74 683.726 106.08 683.726 106.6V110H681.966ZM687.803 110L685.963 104.65V104.53H687.853L689.143 109.13H688.773L690.083 104.53H691.923V104.65L690.013 110H687.803ZM695.63 110.11C695.143 110.11 694.693 110.057 694.28 109.95C693.873 109.843 693.523 109.68 693.23 109.46C692.943 109.233 692.72 108.937 692.56 108.57C692.406 108.203 692.33 107.763 692.33 107.25C692.33 106.65 692.443 106.137 692.67 105.71C692.896 105.277 693.22 104.947 693.64 104.72C694.06 104.493 694.556 104.38 695.13 104.38C695.75 104.38 696.256 104.51 696.65 104.77C697.043 105.03 697.326 105.387 697.5 105.84C697.68 106.293 697.753 106.807 697.72 107.38L697.71 107.74H693.41V106.7H696.03V106.65C696.03 106.317 695.953 106.06 695.8 105.88C695.653 105.693 695.42 105.6 695.1 105.6C694.893 105.6 694.713 105.647 694.56 105.74C694.413 105.833 694.296 105.99 694.21 106.21C694.13 106.423 694.09 106.717 694.09 107.09V107.41C694.09 107.763 694.16 108.04 694.3 108.24C694.446 108.433 694.646 108.573 694.9 108.66C695.153 108.74 695.45 108.78 695.79 108.78C696.096 108.78 696.376 108.75 696.63 108.69C696.89 108.63 697.09 108.56 697.23 108.48H697.33V109.85C697.13 109.93 696.89 109.993 696.61 110.04C696.336 110.087 696.01 110.11 695.63 110.11ZM701.739 110.12C701.106 110.12 700.552 110.023 700.079 109.83C699.612 109.637 699.249 109.33 698.989 108.91C698.736 108.483 698.609 107.93 698.609 107.25C698.609 106.657 698.726 106.15 698.959 105.73C699.199 105.303 699.536 104.977 699.969 104.75C700.409 104.517 700.922 104.397 701.509 104.39C701.762 104.383 701.979 104.403 702.159 104.45C702.339 104.49 702.462 104.523 702.529 104.55L702.519 105.83C702.426 105.797 702.322 105.767 702.209 105.74C702.102 105.707 701.969 105.69 701.809 105.69C701.329 105.69 700.972 105.83 700.739 106.11C700.512 106.383 700.399 106.763 700.399 107.25C700.399 107.557 700.446 107.83 700.539 108.07C700.632 108.303 700.782 108.487 700.989 108.62C701.196 108.753 701.462 108.82 701.789 108.82C701.976 108.82 702.129 108.807 702.249 108.78C702.369 108.753 702.472 108.723 702.559 108.69L702.439 109.12C702.366 109.007 702.322 108.87 702.309 108.71C702.296 108.543 702.289 108.363 702.289 108.17V104.25C702.289 104.077 702.282 103.873 702.269 103.64C702.262 103.4 702.252 103.173 702.239 102.96C702.226 102.74 702.206 102.58 702.179 102.48L702.209 102.4H704.049V108.06C704.049 108.193 704.049 108.363 704.049 108.57C704.056 108.77 704.062 108.97 704.069 109.17C704.082 109.363 704.102 109.52 704.129 109.64L704.089 109.72C703.809 109.833 703.472 109.927 703.079 110C702.692 110.08 702.246 110.12 701.739 110.12ZM706.22 110.11C705.94 110.11 705.71 110.023 705.53 109.85C705.35 109.67 705.26 109.437 705.26 109.15C705.26 108.857 705.35 108.623 705.53 108.45C705.71 108.27 705.94 108.18 706.22 108.18C706.513 108.18 706.746 108.27 706.92 108.45C707.1 108.623 707.19 108.857 707.19 109.15C707.19 109.437 707.1 109.67 706.92 109.85C706.746 110.023 706.513 110.11 706.22 110.11Z" fill="#222222"/>
<rect x="517" y="92" width="185" height="3" rx="1.5" fill="#222222"/>
<defs>
<filter id="filter0_i_366_198" x="0" y="0" width="1219" height="128" filterUnits="userSpaceOnUse" color-interpolation-filters="sRGB">
<feFlood flood-opacity="0" result="BackgroundImageFix"/>
<feBlend mode="normal" in="SourceGraphic" in2="BackgroundImageFix" result="shape"/>
<feColorMatrix in="SourceAlpha" type="matrix" values="0 0 0 0 0 0 0 0 0 0 0 0 0 0 0 0 0 0 127 0" result="hardAlpha"/>
<feOffset dy="10"/>
<feComposite in2="hardAlpha" operator="arithmetic" k2="-1" k3="1"/>
<feColorMatrix type="matrix" values="0 0 0 0 0.179167 0 0 0 0 0.179167 0 0 0 0 0.179167 0 0 0 1 0"/>
<feBlend mode="normal" in2="shape" result="effect1_innerShadow_366_198"/>
</filter>
</defs>
</svg>
