<svg width="1489" height="1789" viewBox="0 0 1489 1789" fill="none" xmlns="http://www.w3.org/2000/svg">
<path d="M1171.5 334.289C1185.54 299.806 1267.73 376.982 1384 286.67V1198H103V270.249C128.393 281.196 229.296 286.67 269.39 270.249C341.157 240.857 443.798 322.794 451.817 357.277C459.836 391.76 566.084 342.499 606.178 334.289C646.272 326.078 640.258 368.771 628.23 413.106C616.202 457.441 722.451 380.266 734.479 368.771C746.507 357.277 809.924 384.383 864.784 398.328C922.92 413.106 952.991 362.203 1037.19 381.908C1121.38 401.612 1157.47 368.771 1171.5 334.289Z" fill="#283934"/>
<path d="M316.332 387.087C302.31 331.117 220.182 456.383 104 309.796V1789H1384V283.143C1358.63 300.911 1257.8 309.795 1217.74 283.143C1146.03 235.436 1043.47 368.431 1035.46 424.401C1027.44 480.37 921.277 400.413 881.214 387.087C841.152 373.761 847.161 443.057 859.18 515.019C871.199 586.98 765.033 461.714 753.014 443.057C740.995 424.401 677.627 468.396 622.811 491.031C564.72 515.019 534.673 432.396 450.541 464.379C366.41 496.362 330.354 443.057 316.332 387.087Z" fill="#2F583F"/>
<g filter="url(#filter0_i_411_234)">
<path d="M1340.98 335C1350.98 391 1324.98 459 1396.98 469C1412.32 512.667 1436.98 615.4 1412.98 677C1407.65 666 1382.58 631.6 1324.98 582C1252.98 537 1290.98 483 1275.98 436C1260.98 389 1244.98 398 1239.98 393C1234.98 388 1186.98 374.635 1188.98 393C1190.98 411.365 1154.98 412 1128.98 404C1102.98 396 1077.98 416 1095.98 398C1113.98 380 1172.98 415 1164.98 398C1156.98 381 1143.98 388 1095.98 374C1047.98 360 1095.98 363 1122.98 374C1149.98 385 1165.98 374 1201.98 374C1237.98 374 1249.98 379 1267.98 351C1285.98 323 1231.98 361 1201.98 357C1171.98 353 1153.8 328 1154.98 351C1156.16 374 1140.98 335 1084.98 328C1028.98 321 1077.98 307 1113.98 322C1149.98 337 1127.98 316 1172.98 335C1217.98 354 1183.98 341 1181.98 316C1179.98 291 1201.98 294 1201.98 322C1201.98 350 1239.98 335 1267.98 322C1295.98 309 1280.98 317 1290.98 286C1300.98 255 1293.98 274 1275.98 264C1257.98 254 1259.98 294 1239.98 279C1219.98 264 1208.98 218 1213.98 193C1218.98 168 1220.98 229 1239.98 251C1258.98 273 1272.98 234 1299.98 251C1326.98 268 1290.98 288 1312.98 307C1334.98 326 1322.98 335 1340.98 274C1358.98 213 1340.98 251 1312.98 199C1284.98 147 1358.98 215 1364.98 251C1370.98 287 1330.98 279 1340.98 335Z" fill="#554040"/>
</g>
<path d="M1367.66 64.5933C1347.32 71.7944 1385.97 85.607 1331.33 75.7006C1321.57 27.3349 1303.41 62.4568 1282.7 46.3576C1256.81 26.2337 1283.67 80.2493 1254.33 54.8346C1225 29.4199 1226.3 16.043 1205.93 29.8797C1185.57 43.7164 1169.1 26.3125 1166.11 40.2373C1163.12 54.162 1183.36 108.228 1214.43 108.523C1245.49 108.818 1224.04 151.664 1217.08 132.874C1210.13 114.084 1186.82 130.528 1163 126.326C1139.18 122.125 1183.6 162.556 1148.84 149.632C1114.08 136.709 1089 136.787 1069.15 178.048C1057.75 201.766 1094.11 202.524 1071.44 218.595C1048.76 234.667 1089.02 243.309 1098.1 260.734C1107.18 278.159 1158.26 276.377 1138.52 295.812C1118.79 315.246 1163.84 322.889 1170.83 311.644C1177.82 300.399 1192.62 312.467 1197.07 321.614C1201.51 330.762 1244.74 334.088 1258.42 321.548C1272.1 309.007 1255.41 309.977 1252.78 296.666C1250.14 283.354 1212.4 297.103 1209.02 287.273C1205.63 277.443 1209.07 269.986 1225.76 281.763C1242.46 293.541 1248.16 284.06 1268.46 274.763C1288.77 265.465 1285.05 274.707 1304.35 282.465C1325.74 291.063 1312.83 281.333 1320.07 264.679C1327.3 248.024 1336.94 296.557 1353.42 279.122C1377.74 253.394 1349.48 268.4 1344.38 228.159C1339.29 187.919 1307.3 247.373 1319.34 212.63C1327.85 188.056 1373.47 241.429 1383.52 236.56C1398.05 229.525 1394.13 247.801 1418.91 247.77C1443.04 247.74 1454.91 240.819 1460.14 216.451C1465.37 192.082 1447.86 189.691 1445.85 181.977C1443.84 174.264 1462.56 137.335 1414.07 144.79C1366.96 152.032 1419.49 120.194 1411.41 106.626C1403.34 93.0579 1380.16 60.1664 1367.66 64.5933Z" fill="#59A364"/>
<path d="M990.45 456.012C1001.21 448.891 999.299 470.765 1008.49 442.766C978.716 423.622 1007.67 425.975 1002.83 411.613C996.781 393.661 1025.4 422.341 1016.78 401.209C1008.17 380.076 998.771 376.611 1014.01 371.495C1029.25 366.379 1022.3 353.565 1032.56 356.424C1042.81 359.283 1073.39 384.95 1064.56 399.25C1055.74 413.549 1090.86 416.739 1080.21 407.855C1069.56 398.972 1087.42 393.298 1091.5 381.128C1095.58 368.957 1109.94 401.549 1111.32 381.725C1112.7 361.901 1120.04 350.451 1153.62 353.898C1172.92 355.879 1162.87 372.743 1180.29 367.249C1197.71 361.754 1191.84 382.793 1200.96 392.234C1210.07 401.675 1194.03 424.501 1212.86 421.371C1231.7 418.242 1223.77 441.17 1214.16 440.955C1204.55 440.74 1208.38 451.175 1213.26 455.985C1218.13 460.795 1207.82 481.58 1195.4 484.031C1182.97 486.481 1188.47 479.142 1180.26 473.896C1172.05 468.65 1192.28 455.559 1186.64 451.028C1180.99 446.497 1174.97 445.803 1178.06 457.016C1181.15 468.229 1173.1 467.958 1160.94 474.425C1148.77 480.892 1156.09 481.993 1155.71 493.177C1155.3 505.573 1152.49 496.714 1139.16 494.969C1125.83 493.225 1155.75 512.364 1139.21 514.611C1114.8 517.927 1133.12 509.554 1107.48 495.009C1081.83 480.465 1131.2 483.878 1104.28 478.838C1085.24 475.273 1107.97 512.343 1101.77 515.463C1092.81 519.972 1106.27 523.724 1099.05 535.052C1092.03 546.082 1083.91 549.41 1065.97 544.407C1048.02 539.403 1051.5 530.666 1046.88 527.407C1042.26 524.148 1011.93 521.502 1031.04 501.582C1049.6 482.233 1012.88 496.596 1006.08 488.785C999.278 480.973 983.834 460.389 990.45 456.012Z" fill="#C4E2C9"/>
<path d="M1230.98 139.059C1220.98 128.059 1240.98 117.059 1178.98 119.059C1184.32 114.059 1188.38 100.859 1161.98 88.0593C1128.98 72.0593 1170.98 125.059 1132.98 104.059C1094.98 83.0593 1068.98 105.059 1049.98 125.059C1030.98 145.059 1062.98 159.059 1062.98 175.059C1062.98 191.059 1067.98 204.059 1101.98 197.059C1135.98 190.059 1144.98 244.059 1132.98 225.059C1120.98 206.059 1106.98 217.059 1079.98 218.059C1052.98 219.059 1080.98 239.059 1039.98 233.059C998.983 227.059 984.983 267.059 998.983 293.059C1012.98 319.059 1031.98 314.059 1010.98 337.059C989.983 360.059 1035.98 360.059 1049.98 377.059C1063.98 394.059 1079.98 370.059 1062.98 396.059C1045.98 422.059 1096.98 417.059 1101.98 403.059C1106.98 389.059 1154.98 387.059 1161.98 396.059C1168.98 405.059 1187.98 413.059 1199.98 396.059C1211.98 379.059 1193.98 384.059 1187.98 370.059C1181.98 356.059 1143.98 380.059 1137.98 370.059C1131.98 360.059 1133.98 351.059 1154.98 360.059C1175.98 369.059 1158.98 342.059 1178.98 327.059C1198.98 312.059 1200.98 336.059 1221.98 351.059C1242.98 366.059 1249.98 339.059 1253.98 319.059C1257.98 299.059 1240.98 305.059 1216.98 293.059C1192.98 281.059 1193.98 315.059 1178.98 272.059C1163.98 229.059 1235.98 303.059 1240.98 262.059C1245.98 221.059 1294.98 250.059 1288.98 239.059C1282.98 228.059 1286.98 222.059 1307.98 239.059C1328.98 256.059 1371.98 267.059 1371.98 239.059C1371.98 211.059 1361.98 218.059 1357.98 210.059C1353.98 202.059 1338.98 238.059 1349.98 184.059C1360.98 130.059 1283.98 152.059 1271.98 139.059C1259.98 126.059 1240.98 150.059 1230.98 139.059Z" fill="#89C893"/>
<g filter="url(#filter1_i_411_234)">
<path d="M148 335C138 391 164 459 92 469C76.6667 512.667 52 615.4 76 677C81.3333 666 106.4 631.6 164 582C236 537 198 483 213 436C228 389 244 398 249 393C254 388 302 374.635 300 393C298 411.365 334 412 360 404C386 396 411 416 393 398C375 380 316 415 324 398C332 381 345 388 393 374C441 360 393 363 366 374C339 385 323 374 287 374C251 374 239 379 221 351C203 323 257 361 287 357C317 353 335.181 328 334 351C332.819 374 348 335 404 328C460 321 411 307 375 322C339 337 361 316 316 335C271 354 305 341 307 316C309 291 287 294 287 322C287 350 249 335 221 322C193 309 208 317 198 286C188 255 195 274 213 264C231 254 229 294 249 279C269 264 280 218 275 193C270 168 268 229 249 251C230 273 216 234 189 251C162 268 198 288 176 307C154 326 166 335 148 274C130 213 148 251 176 199C204 147 130 215 124 251C118 287 158 279 148 335Z" fill="#554040"/>
</g>
<path d="M121.324 64.5933C141.668 71.7944 103.014 85.607 157.65 75.7006C167.409 27.3349 185.568 62.4568 206.282 46.3576C232.175 26.2337 205.317 80.2493 234.652 54.8346C263.986 29.4199 262.686 16.043 283.051 29.8797C303.416 43.7164 319.88 26.3125 322.869 40.2373C325.858 54.162 305.621 108.228 274.556 108.523C243.492 108.818 264.948 151.664 271.901 132.874C278.854 114.084 302.168 130.528 325.985 126.326C349.802 122.125 305.38 162.556 340.142 149.632C374.904 136.709 399.986 136.787 419.828 178.048C431.234 201.766 394.87 202.524 417.545 218.595C440.221 234.667 399.962 243.309 390.885 260.734C381.808 278.159 330.727 276.377 350.462 295.812C370.197 315.246 325.146 322.889 318.155 311.644C311.164 300.399 296.359 312.467 291.914 321.614C287.469 330.762 244.238 334.088 230.56 321.548C216.882 309.007 233.57 309.977 236.206 296.666C238.842 283.354 276.582 297.103 279.965 287.273C283.348 277.443 279.917 269.986 263.219 281.763C246.521 293.541 240.824 284.06 220.518 274.763C200.212 265.465 203.937 274.707 184.635 282.465C163.242 291.063 176.153 281.333 168.916 264.679C161.679 248.024 152.041 296.557 135.56 279.122C111.241 253.394 139.503 268.4 144.598 228.159C149.693 187.919 181.681 247.373 169.646 212.63C161.133 188.056 115.509 241.429 105.458 236.56C90.9346 229.525 94.8575 247.801 70.0731 247.77C45.9416 247.74 34.0744 240.819 28.8439 216.451C23.6134 192.082 41.1276 189.691 43.1339 181.977C45.1403 174.264 26.4211 137.335 74.9159 144.79C122.018 152.032 69.495 120.194 77.5689 106.626C85.6428 93.0579 108.819 60.1664 121.324 64.5933Z" fill="#59A364"/>
<path d="M498.533 456.012C487.771 448.891 489.684 470.765 480.496 442.766C510.267 423.622 481.317 425.975 486.155 411.613C492.202 393.661 463.587 422.341 472.202 401.209C480.816 380.076 490.212 376.611 474.97 371.495C459.728 366.379 466.68 353.565 456.425 356.424C446.169 359.283 415.598 384.95 424.42 399.25C433.242 413.549 398.127 416.739 408.775 407.855C419.423 398.972 401.567 393.298 397.484 381.128C393.4 368.957 379.043 401.549 377.661 381.725C376.279 361.901 368.942 350.451 335.364 353.898C316.063 355.879 326.112 372.743 308.693 367.249C291.273 361.754 297.139 382.793 288.028 392.234C278.917 401.675 294.951 424.501 276.119 421.371C257.286 418.242 265.216 441.17 274.827 440.955C284.438 440.74 280.602 451.175 275.726 455.985C270.85 460.795 281.161 481.58 293.588 484.031C306.014 486.481 300.514 479.142 308.722 473.896C316.93 468.65 296.702 455.559 302.347 451.028C307.991 446.497 314.015 445.803 310.924 457.016C307.833 468.229 315.879 467.958 328.043 474.425C340.208 480.892 332.896 481.993 333.271 493.177C333.687 505.573 336.497 496.714 349.826 494.969C363.155 493.225 333.236 512.364 349.776 514.611C374.183 517.927 355.86 509.554 381.508 495.009C407.156 480.465 357.786 483.878 384.703 478.838C403.741 475.273 381.009 512.343 387.21 515.463C396.171 519.972 382.711 523.724 389.929 535.052C396.956 546.082 405.069 549.41 423.015 544.407C440.962 539.403 437.488 530.666 442.105 527.407C446.723 524.148 477.054 521.502 457.945 501.582C439.385 482.233 476.101 496.596 482.903 488.785C489.705 480.973 505.149 460.389 498.533 456.012Z" fill="#C4E2C9"/>
<path d="M258 139.059C268 128.059 248 117.059 310 119.059C304.667 114.059 300.6 100.859 327 88.0593C360 72.0593 318 125.059 356 104.059C394 83.0593 420 105.059 439 125.059C458 145.059 426 159.059 426 175.059C426 191.059 421 204.059 387 197.059C353 190.059 344 244.059 356 225.059C368 206.059 382 217.059 409 218.059C436 219.059 408 239.059 449 233.059C490 227.059 504 267.059 490 293.059C476 319.059 457 314.059 478 337.059C499 360.059 453 360.059 439 377.059C425 394.059 409 370.059 426 396.059C443 422.059 392 417.059 387 403.059C382 389.059 334 387.059 327 396.059C320 405.059 301 413.059 289 396.059C277 379.059 295 384.059 301 370.059C307 356.059 345 380.059 351 370.059C357 360.059 355 351.059 334 360.059C313 369.059 330 342.059 310 327.059C290 312.059 288 336.059 267 351.059C246 366.059 239 339.059 235 319.059C231 299.059 248 305.059 272 293.059C296 281.059 295 315.059 310 272.059C325 229.059 253 303.059 248 262.059C243 221.059 194 250.059 200 239.059C206 228.059 202 222.059 181 239.059C160 256.059 117 267.059 117 239.059C117 211.059 127 218.059 131 210.059C135 202.059 150 238.059 139 184.059C128 130.059 205 152.059 217 139.059C229 126.059 248 150.059 258 139.059Z" fill="#89C893"/>
<g filter="url(#filter2_ii_411_234)">
<ellipse cx="724" cy="1459" rx="629" ry="202" fill="#81B084"/>
</g>
<path d="M528.285 1265.6C541.122 1279.68 559.309 1269.35 573.216 1251.51C577.851 1263.09 587.123 1280.81 587.123 1259.02C640.612 1266.54 645.961 1259.02 633.123 1251.51C620.286 1244 657.728 1251.51 680.194 1259.02C702.659 1266.54 687.682 1246.81 720.845 1259.02C754.009 1271.23 754.008 1265.6 768.985 1251.51C783.962 1237.42 796.8 1246.81 806.428 1259.02C816.056 1271.23 880.242 1293.77 852.428 1274.05C824.614 1254.33 873.824 1265.6 899.499 1251.51C925.173 1237.42 955.127 1274.05 970.104 1286.26C985.081 1298.47 963.685 1265.6 985.081 1265.6C1006.48 1265.6 995.779 1286.26 993.639 1301.28C991.5 1316.31 1147.69 1251.51 1135.92 1293.77C1124.15 1336.03 1144.48 1301.28 1180.85 1301.28C1217.22 1301.28 1192.62 1306.92 1204.39 1315.37C1216.15 1323.82 1248.25 1286.26 1230.06 1321.95C1211.87 1357.63 1242.9 1330.4 1263.22 1354.82C1283.55 1379.24 1273.92 1368.9 1283.55 1359.51C1293.18 1350.12 1347.74 1398.02 1319.92 1401.78C1292.11 1405.53 1333.83 1417.74 1347.74 1407.41C1361.64 1397.08 1380.9 1425.25 1339.18 1425.25C1297.46 1425.25 1319.92 1433.71 1333.83 1453.43C1347.74 1473.15 1319.92 1503.21 1314.57 1465.64C1309.22 1428.07 1307.08 1441.22 1295.32 1488.18C1283.55 1535.14 1273.92 1517.29 1283.55 1530.44C1293.18 1543.59 1300.67 1509.78 1319.92 1530.44C1339.18 1551.1 1347.74 1530.44 1368.06 1509.78C1388.39 1489.12 1374.48 1494.75 1387.32 1509.78C1400.16 1524.81 1414.06 1470.33 1414.06 1465.64C1414.06 1460.94 1439.74 1425.25 1446.16 1391.44C1452.57 1357.63 1420.48 1330.4 1414.06 1301.28C1407.64 1272.17 1402.3 1265.6 1393.74 1301.28C1385.18 1336.97 1415.13 1349.18 1380.9 1330.4C1346.67 1311.62 1377.69 1301.28 1380.9 1274.05C1384.11 1246.81 1349.88 1154.77 1347.74 1202.67C1345.6 1250.57 1337.04 1246.81 1319.92 1217.7C1302.81 1188.58 1343.46 1180.13 1319.92 1161.35C1296.39 1142.57 1230.06 1105 1273.92 1150.08C1317.78 1195.16 1240.76 1166.98 1230.06 1131.3C1219.36 1095.61 1220.43 1138.81 1204.39 1161.35C1188.34 1183.89 1238.62 1180.13 1220.43 1202.67C1202.25 1225.21 1129.5 1194.22 1159.46 1161.35C1189.41 1128.48 1223.64 1138.81 1204.39 1131.3C1185.13 1123.78 1151.97 1131.3 1129.5 1150.08C1107.04 1168.86 1099.55 1208.31 1078.15 1180.13C1056.76 1151.96 1125.22 1180.13 1105.97 1150.08C1086.71 1120.03 1078.15 1105 1078.15 1131.3C1078.15 1157.59 1019.31 1166.98 1011.83 1194.22C1004.34 1221.46 990.43 1173.56 985.081 1138.81C979.732 1104.06 1011.83 1105 1043.92 1089.03C1076.01 1073.07 1058.9 1081.52 1026.8 1075.88C994.709 1070.25 1003.27 1065.55 963.685 1105C924.104 1144.44 947.639 1154.77 899.499 1105C851.358 1055.22 854.568 1046.77 857.777 1081.52C860.987 1116.27 882.382 1089.03 844.94 1131.3C807.498 1173.56 806.428 1106.88 823.544 1065.55C840.661 1024.23 859.917 986.664 829.963 1019.53C800.009 1052.41 745.45 999.812 743.311 1081.52C741.599 1146.89 727.621 1079.95 720.845 1038.32C705.868 998.873 700.519 1022.35 712.287 1065.55C718.111 1086.94 725.124 1089.03 687.682 1116.27C650.24 1143.5 638.472 1222.39 633.123 1126.6C627.774 1030.8 516.517 1032.68 533.634 1038.32C550.75 1043.95 580.704 1085.28 567.867 1131.3C555.029 1177.31 588.193 1234.6 544.332 1180.13C500.471 1125.66 557.169 1096.55 544.332 1096.55C531.494 1096.55 474.796 1138.81 492.982 1173.56C511.169 1208.31 420.237 1130.36 402.051 1154.77C383.865 1179.19 369.958 1176.38 341.073 1116.27C312.189 1056.16 319.678 1105 311.12 1150.08C302.561 1195.16 336.794 1174.5 329.306 1217.7C272.608 1249.63 294.003 1265.6 267.259 1202.67C240.514 1139.75 220.188 1150.08 231.956 1166.98C243.724 1183.89 209.491 1286.26 203.072 1217.7C196.653 1149.14 183.816 1228.03 184.886 1246.81C185.955 1265.6 172.048 1301.28 157.071 1301.28C142.094 1301.28 172.048 1279.68 120.699 1251.51C69.3495 1223.33 46.884 1209.25 66.1401 1228.03C85.3961 1246.81 93.9543 1251.51 99.3033 1279.68C104.652 1307.86 72.5588 1315.37 66.1401 1337.91C56.7261 1374.73 42.2484 1367.65 36.1863 1359.51L18 1441.22C22.6357 1468.14 38.7538 1521.05 66.1401 1517.29C100.373 1512.6 57.5819 1534.2 105.722 1530.44C153.862 1526.68 157.071 1507.9 129.257 1517.29C113.21 1506.96 124.978 1452.49 105.722 1478.79C86.4659 1505.08 84.3264 1437.46 88.6055 1425.25C92.8846 1413.05 57.5819 1379.24 105.722 1391.44C153.862 1403.65 185.955 1386.75 157.071 1391.44C128.187 1396.14 159.211 1315.37 172.048 1330.4C184.886 1345.43 218.049 1343.55 226.607 1337.91C235.165 1332.28 305.771 1346.36 294.003 1337.91C282.235 1329.46 268.328 1336.97 267.259 1321.95C266.189 1306.92 280.096 1319.13 294.003 1315.37C307.91 1311.62 361.399 1306.92 329.306 1301.28C297.213 1295.65 298.282 1295.65 319.678 1286.26C341.073 1276.87 358.19 1283.44 369.958 1286.26C381.725 1289.08 448.052 1324.76 429.865 1306.92C411.679 1289.08 410.609 1251.51 429.865 1265.6C449.121 1279.68 456.61 1259.02 468.377 1274.05C480.145 1289.08 488.703 1265.6 502.61 1259.02C516.517 1252.45 515.448 1251.51 528.285 1265.6Z" fill="#3A7250"/>
<path d="M911.352 1296.01C899.637 1311.21 883.042 1300.07 870.351 1280.81C866.121 1293.31 857.66 1312.43 857.66 1288.92C808.85 1297.03 803.969 1288.92 815.684 1280.81C827.398 1272.71 793.231 1280.81 772.731 1288.92C752.231 1297.03 765.898 1275.75 735.635 1288.92C705.373 1302.09 705.373 1296.01 691.706 1280.81C678.039 1265.61 666.325 1275.75 657.539 1288.92C648.753 1302.09 590.181 1326.41 615.562 1305.13C640.944 1283.85 596.038 1296.01 572.609 1280.81C549.181 1265.61 521.847 1305.13 508.18 1318.3C494.513 1331.48 514.037 1296.01 494.513 1296.01C474.989 1296.01 484.751 1318.3 486.704 1334.52C488.656 1350.73 346.131 1280.81 356.869 1326.41C367.607 1372.01 349.059 1334.52 315.868 1334.52C282.677 1334.52 305.13 1340.6 294.392 1349.72C283.654 1358.84 254.368 1318.3 270.963 1356.81C287.558 1395.32 259.249 1365.93 240.701 1392.28C222.153 1418.62 230.939 1407.48 222.153 1397.34C213.367 1387.21 163.581 1438.89 188.962 1442.94C214.343 1447 176.271 1460.17 163.581 1449.02C150.89 1437.88 133.318 1468.28 171.39 1468.28C209.462 1468.28 188.962 1477.39 176.271 1498.67C163.581 1519.95 188.962 1552.38 193.843 1511.85C198.724 1471.31 200.676 1485.5 211.415 1536.17C222.153 1586.83 230.939 1567.58 222.153 1581.77C213.367 1595.95 206.534 1559.47 188.962 1581.77C171.39 1604.06 163.581 1581.77 145.033 1559.47C126.485 1537.18 139.176 1543.26 127.461 1559.47C115.747 1575.69 103.056 1516.91 103.056 1511.85C103.056 1506.78 79.6274 1468.28 73.7702 1431.8C67.913 1395.32 97.199 1365.93 103.056 1334.52C108.913 1303.11 113.794 1296.01 121.604 1334.52C129.414 1373.02 102.08 1386.2 133.318 1365.93C164.557 1345.66 136.247 1334.52 133.318 1305.13C130.39 1275.75 161.628 1176.44 163.581 1228.12C165.533 1279.8 173.343 1275.75 188.962 1244.33C204.581 1212.92 167.486 1203.8 188.962 1183.53C210.438 1163.27 270.963 1122.74 230.939 1171.37C190.914 1220.01 261.201 1189.61 270.963 1151.11C280.725 1112.6 279.749 1159.21 294.392 1183.53C309.035 1207.85 263.153 1203.8 279.749 1228.12C296.344 1252.44 362.726 1219 335.392 1183.53C308.059 1148.07 276.82 1159.21 294.392 1151.11C311.964 1143 342.226 1151.11 362.726 1171.37C383.226 1191.64 390.06 1234.2 409.584 1203.8C429.108 1173.4 366.631 1203.8 384.202 1171.37C401.774 1138.95 409.584 1122.74 409.584 1151.11C409.584 1179.48 463.275 1189.61 470.108 1219C476.942 1248.39 489.632 1196.71 494.513 1159.21C499.394 1121.72 470.108 1122.74 440.822 1105.51C411.536 1088.28 427.155 1097.4 456.441 1091.32C485.727 1085.24 477.918 1080.18 514.037 1122.74C550.157 1165.29 528.68 1176.44 572.609 1122.74C616.539 1069.03 613.61 1059.91 610.681 1097.4C607.753 1134.9 588.229 1105.51 622.396 1151.11C656.563 1196.71 657.539 1124.76 641.92 1080.18C626.301 1035.59 608.729 995.058 636.063 1030.52C663.396 1065.99 713.183 1009.24 715.135 1097.4C716.697 1167.93 729.453 1095.71 735.635 1050.79C749.302 1008.23 754.183 1033.56 743.445 1080.18C738.13 1103.25 731.73 1105.51 765.898 1134.9C800.065 1164.28 810.803 1249.4 815.684 1146.04C820.565 1042.68 922.09 1044.71 906.471 1050.79C890.851 1056.87 863.518 1101.46 875.232 1151.11C886.947 1200.76 856.684 1262.57 896.709 1203.8C936.733 1145.03 884.994 1113.62 896.709 1113.62C908.423 1113.62 960.162 1159.21 943.566 1196.71C926.971 1234.2 1009.95 1150.1 1026.54 1176.44C1043.14 1202.79 1055.83 1199.75 1082.19 1134.9C1108.54 1070.04 1101.71 1122.74 1109.52 1171.37C1117.33 1220.01 1086.09 1197.72 1092.93 1244.33C1144.66 1278.79 1125.14 1296.01 1149.54 1228.12C1173.95 1160.23 1192.5 1171.37 1181.76 1189.61C1171.02 1207.85 1202.26 1318.3 1208.12 1244.33C1213.97 1170.36 1225.69 1255.48 1224.71 1275.75C1223.74 1296.01 1236.43 1318.3 1250.09 1318.3C1263.76 1318.3 1236.43 1311.21 1283.28 1280.81C1330.14 1250.41 1350.64 1235.21 1333.07 1255.48C1315.5 1275.75 1307.69 1280.81 1302.81 1311.21C1297.93 1341.61 1327.21 1349.72 1333.07 1374.04C1341.66 1413.76 1354.87 1406.13 1360.4 1397.34L1377 1485.5C1372.77 1514.55 1358.06 1571.63 1333.07 1567.58C1301.83 1562.51 1340.88 1585.82 1296.95 1581.77C1253.02 1577.71 1250.09 1541.87 1275.47 1552C1290.12 1540.85 1257.9 1483.47 1275.47 1511.85C1293.05 1540.22 1295 1467.26 1291.09 1454.09C1287.19 1440.92 1340.88 1418.62 1296.95 1431.8C1253.02 1444.97 1223.74 1426.73 1250.09 1431.8C1276.45 1436.86 1248.14 1349.72 1236.43 1365.93C1224.71 1382.14 1194.45 1380.12 1186.64 1374.04C1178.83 1367.96 1114.4 1383.16 1125.14 1374.04C1135.88 1364.92 1148.57 1373.02 1149.54 1356.81C1150.52 1340.6 1137.83 1353.77 1125.14 1349.72C1112.45 1345.66 1063.64 1340.6 1092.93 1334.52C1122.21 1328.44 1121.24 1328.44 1101.71 1318.3C1082.19 1308.17 1066.57 1315.26 1055.83 1318.3C1045.09 1321.34 984.567 1359.85 1001.16 1340.6C1017.76 1321.34 1018.73 1280.81 1001.16 1296.01C983.591 1311.21 976.757 1288.92 966.019 1305.13C955.281 1321.34 947.471 1296.01 934.78 1288.92C922.09 1281.83 923.066 1280.81 911.352 1296.01Z" fill="#59A364"/>
<path d="M276.684 1367.62C245.583 1358.38 250.248 1343.08 250.248 1319.38C276.684 1265.23 278.239 1276.23 270.464 1291.46C262.689 1306.69 250.248 1361.69 276.684 1325.31C297.832 1296.2 319.707 1313.18 328 1325.31C321.521 1320.79 306.385 1314.48 297.677 1325.31C286.792 1338.85 291.457 1353.23 288.347 1361.69C285.859 1368.46 279.535 1368.46 276.684 1367.62Z" fill="#C4E2C9"/>
<path d="M163.684 1462.62C132.583 1453.38 137.248 1438.08 137.248 1414.38C163.684 1360.23 165.239 1371.23 157.464 1386.46C149.689 1401.69 137.248 1456.69 163.684 1420.31C184.832 1391.2 206.707 1408.18 215 1420.31C208.521 1415.79 193.385 1409.48 184.677 1420.31C173.792 1433.85 178.457 1448.23 175.347 1456.69C172.859 1463.46 166.535 1463.46 163.684 1462.62Z" fill="#C4E2C9"/>
<path d="M1208.43 1373.43C1178.52 1386 1172.43 1371.2 1157.42 1352.87C1143.54 1294.23 1151.72 1301.75 1155.36 1318.46C1158.99 1335.17 1184.23 1385.6 1181.62 1340.7C1179.53 1304.78 1207.21 1304.06 1221.31 1308.18C1213.44 1308.8 1197.73 1313.5 1197.86 1327.4C1198.02 1344.77 1210.74 1352.94 1213.7 1361.46C1216.06 1368.27 1211.17 1372.28 1208.43 1373.43Z" fill="#C4E2C9"/>
<path d="M1325.63 1437.64C1340.99 1419.68 1331.24 1407.43 1320.68 1386.23C1279.99 1345.99 1283.92 1356.32 1295.57 1367.53C1307.23 1378.74 1339.54 1424.1 1306.77 1399.77C1280.55 1380.31 1274.43 1402.33 1274.65 1415.77C1276.69 1409.71 1283.35 1399.34 1293.63 1406.32C1306.48 1415.04 1309.97 1429.37 1315.69 1435.98C1320.27 1441.26 1324.23 1439.29 1325.63 1437.64Z" fill="#C4E2C9"/>
<path d="M399.085 1330.81C387.085 1344.81 380.085 1341.81 355.085 1317.81C330.085 1293.81 329.085 1291.81 373.085 1301.81C408.847 1309.94 382.405 1280.14 364.085 1271.81C342.085 1261.81 346.085 1280.81 320.085 1254.81C294.085 1228.81 340.085 1192.81 329.085 1212.81C318.085 1232.81 361.085 1238.81 380.085 1247.81C399.085 1256.81 389.085 1294.81 399.085 1261.81C409.085 1228.81 454.085 1231.81 467.085 1247.81C480.085 1263.81 448.085 1226.81 436.085 1261.81C424.085 1296.81 446.085 1292.81 441.085 1308.81C436.085 1324.81 440.085 1330.81 426.085 1322.81C412.085 1314.81 411.085 1316.81 399.085 1330.81Z" fill="#C4E2C9"/>
<path d="M1009.23 1311.24C1016.37 1319.18 1020.53 1317.48 1035.39 1303.87C1050.25 1290.25 1050.84 1289.12 1024.69 1294.79C1003.43 1299.4 1019.15 1282.49 1030.04 1277.77C1043.12 1272.1 1040.74 1282.87 1056.19 1268.12C1071.65 1253.37 1044.31 1232.95 1050.84 1244.3C1057.38 1255.64 1031.82 1259.05 1020.53 1264.15C1009.23 1269.26 1015.18 1290.82 1009.23 1272.1C1003.29 1253.37 976.542 1255.08 968.814 1264.15C961.087 1273.23 980.108 1252.24 987.241 1272.1C994.374 1291.95 981.297 1289.68 984.269 1298.76C987.241 1307.84 984.863 1311.24 993.185 1306.7C1001.51 1302.16 1002.1 1303.3 1009.23 1311.24Z" fill="#C4E2C9"/>
<path d="M779.175 1289.57C771.22 1296.69 767.269 1294.54 753.978 1279.39C740.687 1264.24 740.219 1263.04 765.601 1271.53C786.232 1278.43 772.447 1259.91 762.135 1254.03C749.752 1246.97 750.943 1257.94 737.185 1241.6C723.426 1225.25 752.829 1207.92 745.095 1218.49C737.361 1229.06 762.399 1235.22 773.071 1241.53C783.742 1247.83 775.488 1268.62 783.434 1250.65C791.379 1232.69 817.784 1237.29 824.478 1247.15C831.173 1257.02 814.548 1234.08 805.297 1253.04C796.046 1272.01 809.292 1271.17 805.35 1279.87C801.408 1288.57 803.402 1292.22 795.623 1286.8C787.844 1281.38 787.13 1282.45 779.175 1289.57Z" fill="#C4E2C9"/>
<g filter="url(#filter3_i_411_234)">
<ellipse cx="700.5" cy="1474.5" rx="113.5" ry="19.5" fill="#050F21" fill-opacity="0.54"/>
</g>
<g filter="url(#filter4_i_411_234)">
<circle cx="650" cy="1383" r="100" fill="#B3BED3" fill-opacity="0.81"/>
</g>
<g filter="url(#filter5_d_411_234)">
<ellipse cx="658.172" cy="1363.71" rx="102.611" ry="95.5073" transform="rotate(33.2399 658.172 1363.71)" fill="#0F0A0A"/>
</g>
<g filter="url(#filter6_iii_411_234)">
<ellipse cx="662.427" cy="1358.99" rx="103.618" ry="89.545" transform="rotate(29.0029 662.427 1358.99)" fill="#BD4141"/>
</g>
<ellipse cx="658.492" cy="1331" rx="60.8121" ry="50.8979" transform="rotate(29.0029 658.492 1331)" fill="#D96565"/>
<circle cx="614" cy="1432" r="22" fill="#E6E6E6" stroke="#0F0A0A" stroke-width="10"/>
<ellipse cx="646.021" cy="1315.22" rx="34.03" ry="29.4082" transform="rotate(15 646.021 1315.22)" fill="#F5A5CC"/>
<g filter="url(#filter7_i_411_234)">
<path d="M851.26 1390.28C851.4 1390.35 851.547 1390.4 851.698 1390.43L1197.13 1466.13C1199.44 1466.64 1200.56 1463.4 1198.42 1462.37L1152.95 1440.52C1152.81 1440.45 1152.67 1440.4 1152.51 1440.37L807.086 1364.67C804.768 1364.16 803.653 1367.4 805.792 1368.43L851.26 1390.28Z" fill="#050F21" fill-opacity="0.54"/>
</g>
<path d="M1128.92 1438.25C1128.74 1438.26 1128.56 1438.24 1128.39 1438.21L802.621 1365.74C801.542 1365.5 800.863 1364.43 801.103 1363.35L806.314 1339.92C806.554 1338.84 807.622 1338.17 808.701 1338.4L1134.47 1410.87C1134.64 1410.91 1134.81 1410.97 1134.97 1411.06L1175.03 1432.26C1176.83 1433.21 1176.23 1435.93 1174.2 1436.03L1128.92 1438.25Z" fill="#D7CBBE"/>
<g filter="url(#filter8_ii_411_234)">
<path fill-rule="evenodd" clip-rule="evenodd" d="M1130.56 1410C1129.46 1410.15 1128.01 1410.34 1126.16 1410.59C1123.61 1410.94 1122.11 1411.79 1121.62 1413.16C1121.15 1414.49 1121.73 1416.04 1122.64 1417.5C1123.56 1418.99 1124.91 1420.55 1126.25 1421.96C1126.93 1422.67 1127.6 1423.35 1128.22 1423.97L1128.49 1424.25C1129.01 1424.76 1129.48 1425.23 1129.87 1425.64C1130.3 1426.09 1130.36 1426.36 1130.35 1426.51C1130.34 1426.67 1130.24 1426.87 1129.93 1427.17C1129.73 1427.36 1129.5 1427.55 1129.23 1427.77C1129.08 1427.88 1128.93 1428 1128.76 1428.14C1128.31 1428.52 1127.82 1428.96 1127.41 1429.53C1126.58 1430.68 1126.15 1432.25 1126.87 1434.53C1127.2 1435.58 1127.78 1436.79 1128.67 1438.19L1128.66 1438.19C1128.48 1438.2 1128.3 1438.18 1128.12 1438.15L802.355 1365.68C801.277 1365.44 800.598 1364.37 800.838 1363.29L806.049 1339.86C806.289 1338.79 807.357 1338.11 808.436 1338.35L1130.56 1410Z" fill="#CEA26F"/>
</g>
<g filter="url(#filter9_ii_411_234)">
<path d="M812.311 1359.09C813.988 1363.18 810.378 1367.46 806.066 1366.5L786.026 1362.05C781.713 1361.09 778.995 1356.81 779.954 1352.5L782.56 1340.79C783.519 1336.47 787.793 1333.75 792.106 1334.71L812.504 1339.25C816.598 1340.16 817.921 1345.34 814.766 1348.1V1348.1C813.947 1348.82 813.378 1349.78 813.142 1350.84L812.032 1355.83C811.79 1356.92 811.887 1358.06 812.311 1359.09V1359.09Z" fill="#C67777"/>
</g>
<mask id="path-32-inside-1_411_234" fill="white">
<path d="M827.674 1369.76C827.729 1371.07 826.525 1372.08 825.242 1371.79L814.117 1369.32C813.039 1369.08 812.359 1368.01 812.599 1366.93L818.245 1341.55C818.485 1340.47 819.553 1339.79 820.631 1340.03L831.722 1342.5C833.015 1342.79 833.676 1344.23 833.05 1345.4L829.428 1352.15C829.342 1352.31 829.278 1352.48 829.238 1352.66L827.377 1361.02C827.34 1361.19 827.324 1361.37 827.331 1361.54L827.674 1369.76Z"/>
</mask>
<g filter="url(#filter10_ii_411_234)">
<path d="M827.674 1369.76C827.729 1371.07 826.525 1372.08 825.242 1371.79L814.117 1369.32C813.039 1369.08 812.359 1368.01 812.599 1366.93L818.245 1341.55C818.485 1340.47 819.553 1339.79 820.631 1340.03L831.722 1342.5C833.015 1342.79 833.676 1344.23 833.05 1345.4L829.428 1352.15C829.342 1352.31 829.278 1352.48 829.238 1352.66L827.377 1361.02C827.34 1361.19 827.324 1361.37 827.331 1361.54L827.674 1369.76Z" fill="#7D7D7D"/>
</g>
<path d="M827.674 1369.76C827.729 1371.07 826.525 1372.08 825.242 1371.79L814.117 1369.32C813.039 1369.08 812.359 1368.01 812.599 1366.93L818.245 1341.55C818.485 1340.47 819.553 1339.79 820.631 1340.03L831.722 1342.5C833.015 1342.79 833.676 1344.23 833.05 1345.4L829.428 1352.15C829.342 1352.31 829.278 1352.48 829.238 1352.66L827.377 1361.02C827.34 1361.19 827.324 1361.37 827.331 1361.54L827.674 1369.76Z" stroke="black" stroke-opacity="0.39" stroke-width="4" stroke-linejoin="bevel" mask="url(#path-32-inside-1_411_234)"/>
<mask id="path-33-inside-2_411_234" fill="white">
<path d="M821.817 1368.45C821.872 1369.77 820.668 1370.78 819.385 1370.49L808.26 1368.02C807.182 1367.78 806.502 1366.71 806.742 1365.63L812.388 1340.25C812.628 1339.17 813.696 1338.49 814.774 1338.73L825.865 1341.2C827.158 1341.49 827.819 1342.93 827.193 1344.1L823.571 1350.84C823.485 1351.01 823.421 1351.18 823.381 1351.36L821.521 1359.72C821.483 1359.89 821.467 1360.06 821.475 1360.24L821.817 1368.45Z"/>
</mask>
<g filter="url(#filter11_ii_411_234)">
<path d="M821.817 1368.45C821.872 1369.77 820.668 1370.78 819.385 1370.49L808.26 1368.02C807.182 1367.78 806.502 1366.71 806.742 1365.63L812.388 1340.25C812.628 1339.17 813.696 1338.49 814.774 1338.73L825.865 1341.2C827.158 1341.49 827.819 1342.93 827.193 1344.1L823.571 1350.84C823.485 1351.01 823.421 1351.18 823.381 1351.36L821.521 1359.72C821.483 1359.89 821.467 1360.06 821.475 1360.24L821.817 1368.45Z" fill="#7D7D7D"/>
</g>
<path d="M821.817 1368.45C821.872 1369.77 820.668 1370.78 819.385 1370.49L808.26 1368.02C807.182 1367.78 806.502 1366.71 806.742 1365.63L812.388 1340.25C812.628 1339.17 813.696 1338.49 814.774 1338.73L825.865 1341.2C827.158 1341.49 827.819 1342.93 827.193 1344.1L823.571 1350.84C823.485 1351.01 823.421 1351.18 823.381 1351.36L821.521 1359.72C821.483 1359.89 821.467 1360.06 821.475 1360.24L821.817 1368.45Z" stroke="black" stroke-opacity="0.21" stroke-width="4" stroke-linejoin="bevel" mask="url(#path-33-inside-2_411_234)"/>
<mask id="path-34-inside-3_411_234" fill="white">
<path d="M812.217 1366.45C812.19 1367.71 811.015 1368.63 809.783 1368.35L802.403 1366.71C801.325 1366.47 800.645 1365.4 800.885 1364.33L806.531 1338.95C806.771 1337.87 807.839 1337.19 808.918 1337.43L816.273 1339.06C817.513 1339.34 818.185 1340.69 817.659 1341.84L814.463 1348.88C814.406 1349.01 814.362 1349.14 814.332 1349.27L812.442 1357.77C812.414 1357.9 812.398 1358.03 812.395 1358.16L812.217 1366.45Z"/>
</mask>
<g filter="url(#filter12_ii_411_234)">
<path d="M812.217 1366.45C812.19 1367.71 811.015 1368.63 809.783 1368.35L802.403 1366.71C801.325 1366.47 800.645 1365.4 800.885 1364.33L806.531 1338.95C806.771 1337.87 807.839 1337.19 808.918 1337.43L816.273 1339.06C817.513 1339.34 818.185 1340.69 817.659 1341.84L814.463 1348.88C814.406 1349.01 814.362 1349.14 814.332 1349.27L812.442 1357.77C812.414 1357.9 812.398 1358.03 812.395 1358.16L812.217 1366.45Z" fill="#7D7D7D"/>
</g>
<path d="M812.217 1366.45C812.19 1367.71 811.015 1368.63 809.783 1368.35L802.403 1366.71C801.325 1366.47 800.645 1365.4 800.885 1364.33L806.531 1338.95C806.771 1337.87 807.839 1337.19 808.918 1337.43L816.273 1339.06C817.513 1339.34 818.185 1340.69 817.659 1341.84L814.463 1348.88C814.406 1349.01 814.362 1349.14 814.332 1349.27L812.442 1357.77C812.414 1357.9 812.398 1358.03 812.395 1358.16L812.217 1366.45Z" stroke="black" stroke-opacity="0.39" stroke-width="4" stroke-linejoin="bevel" mask="url(#path-34-inside-3_411_234)"/>
<g filter="url(#filter13_ii_411_234)">
<path d="M1182.81 1435.01C1183.51 1435.36 1183.28 1436.42 1182.49 1436.44L1158.28 1436.85C1158.01 1436.86 1157.76 1436.72 1157.62 1436.48L1153.74 1429.82C1153.55 1429.48 1153.64 1429.05 1153.96 1428.82L1160.3 1424.43C1160.52 1424.28 1160.81 1424.25 1161.06 1424.37L1182.81 1435.01Z" fill="#353232"/>
</g>
<defs>
<filter id="filter0_i_411_234" x="1059.6" y="180.104" width="363.405" height="496.896" filterUnits="userSpaceOnUse" color-interpolation-filters="sRGB">
<feFlood flood-opacity="0" result="BackgroundImageFix"/>
<feBlend mode="normal" in="SourceGraphic" in2="BackgroundImageFix" result="shape"/>
<feColorMatrix in="SourceAlpha" type="matrix" values="0 0 0 0 0 0 0 0 0 0 0 0 0 0 0 0 0 0 127 0" result="hardAlpha"/>
<feOffset dx="-10" dy="30"/>
<feComposite in2="hardAlpha" operator="arithmetic" k2="-1" k3="1"/>
<feColorMatrix type="matrix" values="0 0 0 0 0.275 0 0 0 0 0.185625 0 0 0 0 0.185625 0 0 0 1 0"/>
<feBlend mode="normal" in2="shape" result="effect1_innerShadow_411_234"/>
</filter>
<filter id="filter1_i_411_234" x="65.974" y="180.104" width="363.405" height="496.896" filterUnits="userSpaceOnUse" color-interpolation-filters="sRGB">
<feFlood flood-opacity="0" result="BackgroundImageFix"/>
<feBlend mode="normal" in="SourceGraphic" in2="BackgroundImageFix" result="shape"/>
<feColorMatrix in="SourceAlpha" type="matrix" values="0 0 0 0 0 0 0 0 0 0 0 0 0 0 0 0 0 0 127 0" result="hardAlpha"/>
<feOffset dx="-10" dy="30"/>
<feComposite in2="hardAlpha" operator="arithmetic" k2="-1" k3="1"/>
<feColorMatrix type="matrix" values="0 0 0 0 0.275 0 0 0 0 0.185625 0 0 0 0 0.185625 0 0 0 1 0"/>
<feBlend mode="normal" in2="shape" result="effect1_innerShadow_411_234"/>
</filter>
<filter id="filter2_ii_411_234" x="95" y="1227" width="1258" height="434" filterUnits="userSpaceOnUse" color-interpolation-filters="sRGB">
<feFlood flood-opacity="0" result="BackgroundImageFix"/>
<feBlend mode="normal" in="SourceGraphic" in2="BackgroundImageFix" result="shape"/>
<feColorMatrix in="SourceAlpha" type="matrix" values="0 0 0 0 0 0 0 0 0 0 0 0 0 0 0 0 0 0 127 0" result="hardAlpha"/>
<feMorphology radius="51" operator="erode" in="SourceAlpha" result="effect1_innerShadow_411_234"/>
<feOffset/>
<feComposite in2="hardAlpha" operator="arithmetic" k2="-1" k3="1"/>
<feColorMatrix type="matrix" values="0 0 0 0 0.0839931 0 0 0 0 0.245833 0 0 0 0 0.14715 0 0 0 0.25 0"/>
<feBlend mode="normal" in2="shape" result="effect1_innerShadow_411_234"/>
<feColorMatrix in="SourceAlpha" type="matrix" values="0 0 0 0 0 0 0 0 0 0 0 0 0 0 0 0 0 0 127 0" result="hardAlpha"/>
<feMorphology radius="101" operator="erode" in="SourceAlpha" result="effect2_innerShadow_411_234"/>
<feOffset dy="-30"/>
<feComposite in2="hardAlpha" operator="arithmetic" k2="-1" k3="1"/>
<feColorMatrix type="matrix" values="0 0 0 0 0.0541667 0 0 0 0 0.0467188 0 0 0 0 0.0467188 0 0 0 0.07 0"/>
<feBlend mode="normal" in2="effect1_innerShadow_411_234" result="effect2_innerShadow_411_234"/>
</filter>
<filter id="filter3_i_411_234" x="578" y="1455" width="236" height="39" filterUnits="userSpaceOnUse" color-interpolation-filters="sRGB">
<feFlood flood-opacity="0" result="BackgroundImageFix"/>
<feBlend mode="normal" in="SourceGraphic" in2="BackgroundImageFix" result="shape"/>
<feColorMatrix in="SourceAlpha" type="matrix" values="0 0 0 0 0 0 0 0 0 0 0 0 0 0 0 0 0 0 127 0" result="hardAlpha"/>
<feMorphology radius="9" operator="erode" in="SourceAlpha" result="effect1_innerShadow_411_234"/>
<feOffset dx="-50"/>
<feComposite in2="hardAlpha" operator="arithmetic" k2="-1" k3="1"/>
<feColorMatrix type="matrix" values="0 0 0 0 0.337255 0 0 0 0 0.470588 0 0 0 0 0.380392 0 0 0 1 0"/>
<feBlend mode="normal" in2="shape" result="effect1_innerShadow_411_234"/>
</filter>
<filter id="filter4_i_411_234" x="546" y="1283" width="204" height="200" filterUnits="userSpaceOnUse" color-interpolation-filters="sRGB">
<feFlood flood-opacity="0" result="BackgroundImageFix"/>
<feBlend mode="normal" in="SourceGraphic" in2="BackgroundImageFix" result="shape"/>
<feColorMatrix in="SourceAlpha" type="matrix" values="0 0 0 0 0 0 0 0 0 0 0 0 0 0 0 0 0 0 127 0" result="hardAlpha"/>
<feMorphology radius="13" operator="erode" in="SourceAlpha" result="effect1_innerShadow_411_234"/>
<feOffset dx="-4"/>
<feComposite in2="hardAlpha" operator="arithmetic" k2="-1" k3="1"/>
<feColorMatrix type="matrix" values="0 0 0 0 0.371667 0 0 0 0 0.4 0 0 0 0 0.377806 0 0 0 0.65 0"/>
<feBlend mode="normal" in2="shape" result="effect1_innerShadow_411_234"/>
</filter>
<filter id="filter5_d_411_234" x="553.628" y="1266.01" width="209.088" height="203.408" filterUnits="userSpaceOnUse" color-interpolation-filters="sRGB">
<feFlood flood-opacity="0" result="BackgroundImageFix"/>
<feColorMatrix in="SourceAlpha" type="matrix" values="0 0 0 0 0 0 0 0 0 0 0 0 0 0 0 0 0 0 127 0" result="hardAlpha"/>
<feOffset dy="4"/>
<feGaussianBlur stdDeviation="2"/>
<feComposite in2="hardAlpha" operator="out"/>
<feColorMatrix type="matrix" values="0 0 0 0 0 0 0 0 0 0 0 0 0 0 0 0 0 0 0.25 0"/>
<feBlend mode="normal" in2="BackgroundImageFix" result="effect1_dropShadow_411_234"/>
<feBlend mode="normal" in="SourceGraphic" in2="effect1_dropShadow_411_234" result="shape"/>
</filter>
<filter id="filter6_iii_411_234" x="561.917" y="1264.93" width="201.02" height="187.113" filterUnits="userSpaceOnUse" color-interpolation-filters="sRGB">
<feFlood flood-opacity="0" result="BackgroundImageFix"/>
<feBlend mode="normal" in="SourceGraphic" in2="BackgroundImageFix" result="shape"/>
<feColorMatrix in="SourceAlpha" type="matrix" values="0 0 0 0 0 0 0 0 0 0 0 0 0 0 0 0 0 0 127 0" result="hardAlpha"/>
<feMorphology radius="2" operator="dilate" in="SourceAlpha" result="effect1_innerShadow_411_234"/>
<feOffset dy="-50"/>
<feComposite in2="hardAlpha" operator="arithmetic" k2="-1" k3="1"/>
<feColorMatrix type="matrix" values="0 0 0 0 0.604167 0 0 0 0 0.151042 0 0 0 0 0.151042 0 0 0 1 0"/>
<feBlend mode="normal" in2="shape" result="effect1_innerShadow_411_234"/>
<feColorMatrix in="SourceAlpha" type="matrix" values="0 0 0 0 0 0 0 0 0 0 0 0 0 0 0 0 0 0 127 0" result="hardAlpha"/>
<feMorphology radius="1" operator="erode" in="SourceAlpha" result="effect2_innerShadow_411_234"/>
<feOffset dy="-20"/>
<feComposite in2="hardAlpha" operator="arithmetic" k2="-1" k3="1"/>
<feColorMatrix type="matrix" values="0 0 0 0 0.434648 0 0 0 0 0.558333 0 0 0 0 0.423403 0 0 0 0.73 0"/>
<feBlend mode="normal" in2="effect1_innerShadow_411_234" result="effect2_innerShadow_411_234"/>
<feColorMatrix in="SourceAlpha" type="matrix" values="0 0 0 0 0 0 0 0 0 0 0 0 0 0 0 0 0 0 127 0" result="hardAlpha"/>
<feMorphology radius="2" operator="dilate" in="SourceAlpha" result="effect3_innerShadow_411_234"/>
<feOffset dy="8"/>
<feComposite in2="hardAlpha" operator="arithmetic" k2="-1" k3="1"/>
<feColorMatrix type="matrix" values="0 0 0 0 0.658819 0 0 0 0 0.686374 0 0 0 0 0.745833 0 0 0 1 0"/>
<feBlend mode="normal" in2="effect2_innerShadow_411_234" result="effect3_innerShadow_411_234"/>
</filter>
<filter id="filter7_i_411_234" x="804.65" y="1364.62" width="394.913" height="101.567" filterUnits="userSpaceOnUse" color-interpolation-filters="sRGB">
<feFlood flood-opacity="0" result="BackgroundImageFix"/>
<feBlend mode="normal" in="SourceGraphic" in2="BackgroundImageFix" result="shape"/>
<feColorMatrix in="SourceAlpha" type="matrix" values="0 0 0 0 0 0 0 0 0 0 0 0 0 0 0 0 0 0 127 0" result="hardAlpha"/>
<feOffset dx="-30" dy="-15"/>
<feComposite in2="hardAlpha" operator="arithmetic" k2="-1" k3="1"/>
<feColorMatrix type="matrix" values="0 0 0 0 0.337255 0 0 0 0 0.470588 0 0 0 0 0.380392 0 0 0 1 0"/>
<feBlend mode="normal" in2="shape" result="effect1_innerShadow_411_234"/>
</filter>
<filter id="filter8_ii_411_234" x="800.789" y="1338.3" width="329.775" height="99.896" filterUnits="userSpaceOnUse" color-interpolation-filters="sRGB">
<feFlood flood-opacity="0" result="BackgroundImageFix"/>
<feBlend mode="normal" in="SourceGraphic" in2="BackgroundImageFix" result="shape"/>
<feColorMatrix in="SourceAlpha" type="matrix" values="0 0 0 0 0 0 0 0 0 0 0 0 0 0 0 0 0 0 127 0" result="hardAlpha"/>
<feOffset dx="-12" dy="-10"/>
<feComposite in2="hardAlpha" operator="arithmetic" k2="-1" k3="1"/>
<feColorMatrix type="matrix" values="0 0 0 0 0.483333 0 0 0 0 0.169167 0 0 0 0 0.090625 0 0 0 0.35 0"/>
<feBlend mode="normal" in2="shape" result="effect1_innerShadow_411_234"/>
<feColorMatrix in="SourceAlpha" type="matrix" values="0 0 0 0 0 0 0 0 0 0 0 0 0 0 0 0 0 0 127 0" result="hardAlpha"/>
<feOffset dy="10"/>
<feComposite in2="hardAlpha" operator="arithmetic" k2="-1" k3="1"/>
<feColorMatrix type="matrix" values="0 0 0 0 0.975 0 0 0 0 0.839583 0 0 0 0 0.65 0 0 0 0.35 0"/>
<feBlend mode="normal" in2="effect1_innerShadow_411_234" result="effect2_innerShadow_411_234"/>
</filter>
<filter id="filter9_ii_411_234" x="779.761" y="1334.52" width="36.7551" height="32.1185" filterUnits="userSpaceOnUse" color-interpolation-filters="sRGB">
<feFlood flood-opacity="0" result="BackgroundImageFix"/>
<feBlend mode="normal" in="SourceGraphic" in2="BackgroundImageFix" result="shape"/>
<feColorMatrix in="SourceAlpha" type="matrix" values="0 0 0 0 0 0 0 0 0 0 0 0 0 0 0 0 0 0 127 0" result="hardAlpha"/>
<feOffset dx="-5" dy="-10"/>
<feComposite in2="hardAlpha" operator="arithmetic" k2="-1" k3="1"/>
<feColorMatrix type="matrix" values="0 0 0 0 0.225 0 0 0 0 0.0515625 0 0 0 0 0.0515625 0 0 0 0.53 0"/>
<feBlend mode="normal" in2="shape" result="effect1_innerShadow_411_234"/>
<feColorMatrix in="SourceAlpha" type="matrix" values="0 0 0 0 0 0 0 0 0 0 0 0 0 0 0 0 0 0 127 0" result="hardAlpha"/>
<feOffset dx="-5" dy="5"/>
<feComposite in2="hardAlpha" operator="arithmetic" k2="-1" k3="1"/>
<feColorMatrix type="matrix" values="0 0 0 0 0.891667 0 0 0 0 0.891667 0 0 0 0 0.891667 0 0 0 0.53 0"/>
<feBlend mode="normal" in2="effect1_innerShadow_411_234" result="effect2_innerShadow_411_234"/>
</filter>
<filter id="filter10_ii_411_234" x="812.551" y="1339.99" width="20.7378" height="31.8557" filterUnits="userSpaceOnUse" color-interpolation-filters="sRGB">
<feFlood flood-opacity="0" result="BackgroundImageFix"/>
<feBlend mode="normal" in="SourceGraphic" in2="BackgroundImageFix" result="shape"/>
<feColorMatrix in="SourceAlpha" type="matrix" values="0 0 0 0 0 0 0 0 0 0 0 0 0 0 0 0 0 0 127 0" result="hardAlpha"/>
<feOffset dx="-4" dy="-10"/>
<feComposite in2="hardAlpha" operator="arithmetic" k2="-1" k3="1"/>
<feColorMatrix type="matrix" values="0 0 0 0 0.116667 0 0 0 0 0.116667 0 0 0 0 0.116667 0 0 0 0.39 0"/>
<feBlend mode="normal" in2="shape" result="effect1_innerShadow_411_234"/>
<feColorMatrix in="SourceAlpha" type="matrix" values="0 0 0 0 0 0 0 0 0 0 0 0 0 0 0 0 0 0 127 0" result="hardAlpha"/>
<feOffset dx="-2" dy="5"/>
<feComposite in2="hardAlpha" operator="arithmetic" k2="-1" k3="1"/>
<feColorMatrix type="matrix" values="0 0 0 0 0.891667 0 0 0 0 0.891667 0 0 0 0 0.891667 0 0 0 0.53 0"/>
<feBlend mode="normal" in2="effect1_innerShadow_411_234" result="effect2_innerShadow_411_234"/>
</filter>
<filter id="filter11_ii_411_234" x="806.694" y="1338.68" width="20.7378" height="31.8557" filterUnits="userSpaceOnUse" color-interpolation-filters="sRGB">
<feFlood flood-opacity="0" result="BackgroundImageFix"/>
<feBlend mode="normal" in="SourceGraphic" in2="BackgroundImageFix" result="shape"/>
<feColorMatrix in="SourceAlpha" type="matrix" values="0 0 0 0 0 0 0 0 0 0 0 0 0 0 0 0 0 0 127 0" result="hardAlpha"/>
<feOffset dx="-4" dy="-10"/>
<feComposite in2="hardAlpha" operator="arithmetic" k2="-1" k3="1"/>
<feColorMatrix type="matrix" values="0 0 0 0 0.116667 0 0 0 0 0.116667 0 0 0 0 0.116667 0 0 0 0.39 0"/>
<feBlend mode="normal" in2="shape" result="effect1_innerShadow_411_234"/>
<feColorMatrix in="SourceAlpha" type="matrix" values="0 0 0 0 0 0 0 0 0 0 0 0 0 0 0 0 0 0 127 0" result="hardAlpha"/>
<feOffset dx="-2" dy="5"/>
<feComposite in2="hardAlpha" operator="arithmetic" k2="-1" k3="1"/>
<feColorMatrix type="matrix" values="0 0 0 0 0.891667 0 0 0 0 0.891667 0 0 0 0 0.891667 0 0 0 0.53 0"/>
<feBlend mode="normal" in2="effect1_innerShadow_411_234" result="effect2_innerShadow_411_234"/>
</filter>
<filter id="filter12_ii_411_234" x="800.837" y="1337.38" width="17.0027" height="31.0226" filterUnits="userSpaceOnUse" color-interpolation-filters="sRGB">
<feFlood flood-opacity="0" result="BackgroundImageFix"/>
<feBlend mode="normal" in="SourceGraphic" in2="BackgroundImageFix" result="shape"/>
<feColorMatrix in="SourceAlpha" type="matrix" values="0 0 0 0 0 0 0 0 0 0 0 0 0 0 0 0 0 0 127 0" result="hardAlpha"/>
<feOffset dx="-4" dy="-10"/>
<feComposite in2="hardAlpha" operator="arithmetic" k2="-1" k3="1"/>
<feColorMatrix type="matrix" values="0 0 0 0 0.116667 0 0 0 0 0.116667 0 0 0 0 0.116667 0 0 0 0.39 0"/>
<feBlend mode="normal" in2="shape" result="effect1_innerShadow_411_234"/>
<feColorMatrix in="SourceAlpha" type="matrix" values="0 0 0 0 0 0 0 0 0 0 0 0 0 0 0 0 0 0 127 0" result="hardAlpha"/>
<feOffset dx="-2" dy="5"/>
<feComposite in2="hardAlpha" operator="arithmetic" k2="-1" k3="1"/>
<feColorMatrix type="matrix" values="0 0 0 0 0.891667 0 0 0 0 0.891667 0 0 0 0 0.891667 0 0 0 0.53 0"/>
<feBlend mode="normal" in2="effect1_innerShadow_411_234" result="effect2_innerShadow_411_234"/>
</filter>
<filter id="filter13_ii_411_234" x="1153.64" y="1424.3" width="29.5869" height="12.5559" filterUnits="userSpaceOnUse" color-interpolation-filters="sRGB">
<feFlood flood-opacity="0" result="BackgroundImageFix"/>
<feBlend mode="normal" in="SourceGraphic" in2="BackgroundImageFix" result="shape"/>
<feColorMatrix in="SourceAlpha" type="matrix" values="0 0 0 0 0 0 0 0 0 0 0 0 0 0 0 0 0 0 127 0" result="hardAlpha"/>
<feOffset dx="2" dy="-5"/>
<feComposite in2="hardAlpha" operator="arithmetic" k2="-1" k3="1"/>
<feColorMatrix type="matrix" values="0 0 0 0 0 0 0 0 0 0 0 0 0 0 0 0 0 0 0.44 0"/>
<feBlend mode="normal" in2="shape" result="effect1_innerShadow_411_234"/>
<feColorMatrix in="SourceAlpha" type="matrix" values="0 0 0 0 0 0 0 0 0 0 0 0 0 0 0 0 0 0 127 0" result="hardAlpha"/>
<feOffset dx="-3" dy="1"/>
<feComposite in2="hardAlpha" operator="arithmetic" k2="-1" k3="1"/>
<feColorMatrix type="matrix" values="0 0 0 0 0.916667 0 0 0 0 0.916667 0 0 0 0 0.916667 0 0 0 0.25 0"/>
<feBlend mode="normal" in2="effect1_innerShadow_411_234" result="effect2_innerShadow_411_234"/>
</filter>
</defs>
</svg>
