<svg width="1280" height="521" viewBox="0 0 1280 521" fill="none" xmlns="http://www.w3.org/2000/svg">
<g filter="url(#filter0_ii_365_212)">
<path d="M0 0H1280V196L640 88L0 196V0Z" fill="#222222"/>
</g>
<g filter="url(#filter1_i_365_212)">
<path d="M458 0H822V372.647L640 521L458 372.647V0Z" fill="#222222"/>
</g>
<mask id="mask0_365_212" style="mask-type:alpha" maskUnits="userSpaceOnUse" x="475" y="116" width="330" height="212">
<mask id="path-3-inside-1_365_212" fill="white">
<path fill-rule="evenodd" clip-rule="evenodd" d="M798.469 327.115C802.721 312.48 805 297.006 805 281C805 189.873 731.127 116 640 116C548.873 116 475 189.873 475 281C475 290.307 475.771 299.434 477.251 308.32C486.751 301.524 486.566 300.985 484.506 294.99C484.348 294.528 484.178 294.033 484 293.5C481.5 286 485.5 255 497.5 262C500.025 263.473 503.744 265.078 508.03 266.928C524.117 273.871 548.184 284.259 547 304C553.971 308.826 553.61 305.457 553.163 301.294C552.776 297.694 552.326 293.5 556.5 293.5C560.745 293.5 565.547 298.172 569.488 302.007C573.901 306.303 577.236 309.547 577.5 304C577.519 303.608 577.537 303.211 577.556 302.807C578.044 292.395 578.705 278.295 584 273C584.442 272.558 584.922 272.068 585.433 271.548C591.282 265.58 601.12 255.544 602.5 267.5C602.959 271.481 602.856 278.604 602.75 285.91C602.51 302.462 602.256 319.957 608.5 304C617.5 281 623.5 302 624 308.5C624.5 315 626.5 320 635 312C643.5 304 653 302 656.5 308.5C657.808 310.929 658.766 314.962 659.611 318.515C661.026 324.472 662.121 329.077 664 322.5C664.908 319.323 665.312 313.077 665.767 306.05C666.815 289.857 668.131 269.513 676.5 273C679.88 274.408 682.228 276.332 684.115 277.878C688.928 281.82 690.739 283.304 699 267.5C705.431 255.198 706.858 265.723 708.441 277.392C709.689 286.59 711.033 296.5 715 296.5C719.154 296.5 719.686 290.962 720.137 286.275C720.663 280.808 721.077 276.5 727 283.5C733.493 291.174 733.018 294.666 733.492 294.8C733.821 294.893 734.608 293.368 738.5 290.5C744.137 286.347 749.598 291.347 753.42 294.847C756.04 297.246 757.89 298.94 758.5 296.5C758.966 294.637 759.769 293.305 760.595 291.934C762.43 288.888 764.379 285.654 763 276C761 262 781 262 784.5 267.5C788 273 797.5 312 798 326.5C798.152 326.694 798.309 326.899 798.469 327.115Z"/>
</mask>
<path fill-rule="evenodd" clip-rule="evenodd" d="M798.469 327.115C802.721 312.48 805 297.006 805 281C805 189.873 731.127 116 640 116C548.873 116 475 189.873 475 281C475 290.307 475.771 299.434 477.251 308.32C486.751 301.524 486.566 300.985 484.506 294.99C484.348 294.528 484.178 294.033 484 293.5C481.5 286 485.5 255 497.5 262C500.025 263.473 503.744 265.078 508.03 266.928C524.117 273.871 548.184 284.259 547 304C553.971 308.826 553.61 305.457 553.163 301.294C552.776 297.694 552.326 293.5 556.5 293.5C560.745 293.5 565.547 298.172 569.488 302.007C573.901 306.303 577.236 309.547 577.5 304C577.519 303.608 577.537 303.211 577.556 302.807C578.044 292.395 578.705 278.295 584 273C584.442 272.558 584.922 272.068 585.433 271.548C591.282 265.58 601.12 255.544 602.5 267.5C602.959 271.481 602.856 278.604 602.75 285.91C602.51 302.462 602.256 319.957 608.5 304C617.5 281 623.5 302 624 308.5C624.5 315 626.5 320 635 312C643.5 304 653 302 656.5 308.5C657.808 310.929 658.766 314.962 659.611 318.515C661.026 324.472 662.121 329.077 664 322.5C664.908 319.323 665.312 313.077 665.767 306.05C666.815 289.857 668.131 269.513 676.5 273C679.88 274.408 682.228 276.332 684.115 277.878C688.928 281.82 690.739 283.304 699 267.5C705.431 255.198 706.858 265.723 708.441 277.392C709.689 286.59 711.033 296.5 715 296.5C719.154 296.5 719.686 290.962 720.137 286.275C720.663 280.808 721.077 276.5 727 283.5C733.493 291.174 733.018 294.666 733.492 294.8C733.821 294.893 734.608 293.368 738.5 290.5C744.137 286.347 749.598 291.347 753.42 294.847C756.04 297.246 757.89 298.94 758.5 296.5C758.966 294.637 759.769 293.305 760.595 291.934C762.43 288.888 764.379 285.654 763 276C761 262 781 262 784.5 267.5C788 273 797.5 312 798 326.5C798.152 326.694 798.309 326.899 798.469 327.115Z" fill="#D96B6B"/>
<path d="M798.469 327.115L782.433 339.066L806.459 371.304L817.675 332.694L798.469 327.115ZM477.251 308.32L457.523 311.608L462.796 343.254L488.889 324.586L477.251 308.32ZM484.506 294.99L503.422 288.492L503.422 288.492L484.506 294.99ZM484 293.5L502.974 287.175L502.974 287.175L484 293.5ZM497.5 262L487.423 279.276L487.423 279.276L497.5 262ZM508.03 266.928L500.104 285.291H500.104L508.03 266.928ZM547 304L527.036 302.802L526.362 314.037L535.616 320.444L547 304ZM553.163 301.294L573.049 299.16V299.16L553.163 301.294ZM569.488 302.007L555.539 316.341L555.539 316.341L569.488 302.007ZM577.5 304L557.523 303.049L557.523 303.049L577.5 304ZM577.556 302.807L597.534 303.744V303.744L577.556 302.807ZM584 273L598.142 287.142L598.142 287.142L584 273ZM585.433 271.548L571.15 257.547L571.15 257.547L585.433 271.548ZM602.5 267.5L622.368 265.208V265.208L602.5 267.5ZM602.75 285.91L622.748 286.2L602.75 285.91ZM608.5 304L589.875 296.712V296.712L608.5 304ZM656.5 308.5L638.891 317.982L638.891 317.982L656.5 308.5ZM659.611 318.515L679.069 313.891V313.891L659.611 318.515ZM664 322.5L644.77 317.006L644.77 317.006L664 322.5ZM665.767 306.05L685.725 307.342V307.342L665.767 306.05ZM676.5 273L668.808 291.462L668.808 291.462L676.5 273ZM684.115 277.878L696.789 262.406L696.789 262.406L684.115 277.878ZM699 267.5L716.724 276.765L716.725 276.765L699 267.5ZM708.441 277.392L728.26 274.704L728.26 274.704L708.441 277.392ZM720.137 286.275L740.045 288.189V288.189L720.137 286.275ZM727 283.5L742.268 270.581L727 283.5ZM733.492 294.8L738.934 275.555L738.934 275.555L733.492 294.8ZM738.5 290.5L750.364 306.601V306.601L738.5 290.5ZM753.42 294.847L739.914 309.597L739.914 309.597L753.42 294.847ZM758.5 296.5L777.903 301.351V301.351L758.5 296.5ZM760.595 291.934L777.725 302.256V302.256L760.595 291.934ZM763 276L782.799 273.172L763 276ZM798 326.5L778.012 327.189L778.237 333.706L782.259 338.838L798 326.5ZM785 281C785 295.099 782.994 308.695 779.263 321.535L817.675 332.694C822.448 316.265 825 298.913 825 281H785ZM640 136C720.081 136 785 200.919 785 281H825C825 178.827 742.173 96 640 96V136ZM495 281C495 200.919 559.919 136 640 136V96C537.827 96 455 178.827 455 281H495ZM496.979 305.033C495.679 297.229 495 289.201 495 281H455C455 291.413 455.862 301.639 457.523 311.608L496.979 305.033ZM465.591 301.488C465.88 302.329 465.985 302.64 466.046 302.842C466.104 303.03 465.951 302.578 465.824 301.779C465.686 300.906 465.543 299.421 465.776 297.565C466.019 295.625 466.602 293.827 467.396 292.271C468.138 290.815 468.918 289.858 469.318 289.407C469.704 288.973 469.905 288.824 469.685 289.012C469.142 289.477 468.037 290.321 465.614 292.055L488.889 324.586C491.216 322.921 493.65 321.15 495.68 319.414C497.549 317.816 500.776 314.862 503.032 310.439C505.786 305.036 506.001 299.744 505.331 295.514C504.838 292.406 503.725 289.375 503.422 288.492L465.591 301.488ZM465.026 299.824C465.237 300.456 465.435 301.034 465.591 301.488L503.422 288.492C503.26 288.021 503.118 287.609 502.974 287.175L465.026 299.824ZM507.577 244.724C503.009 242.06 497.038 240.239 490.337 241.268C483.779 242.275 478.942 245.64 475.78 248.826C470.083 254.568 467.409 262.078 466.053 266.92C464.51 272.432 463.675 278.257 463.397 283.336C463.161 287.639 463.143 294.174 465.026 299.825L502.974 287.175C503.432 288.549 503.379 289.158 503.323 288.337C503.284 287.762 503.267 286.802 503.337 285.523C503.481 282.899 503.928 280.005 504.572 277.705C504.888 276.575 505.166 275.899 505.303 275.616C505.486 275.238 505.224 275.943 504.173 277.002C503.035 278.149 500.459 280.182 496.407 280.804C492.211 281.449 488.991 280.19 487.423 279.276L507.577 244.724ZM515.956 248.565C511.188 246.508 508.808 245.442 507.577 244.724L487.423 279.276C491.242 281.503 496.3 283.648 500.104 285.291L515.956 248.565ZM566.964 305.198C568.14 285.596 556.255 272.392 546.021 264.687C535.897 257.065 523.562 251.849 515.956 248.565L500.104 285.291C508.585 288.951 516.327 292.4 521.962 296.643C527.488 300.803 527.044 302.664 527.036 302.802L566.964 305.198ZM533.277 303.428C533.43 304.854 533.361 304.507 533.371 303.857C533.377 303.445 533.411 302.122 533.853 300.368C534.288 298.641 535.407 295.339 538.398 292.206C545.98 284.266 555.285 286.587 557.01 287.133C558.996 287.763 559.7 288.467 558.384 287.556L535.616 320.444C537.785 321.946 541.059 324.039 544.924 325.264C548.527 326.406 559.021 328.53 567.328 319.83C573.463 313.405 573.35 305.532 573.367 304.447C573.4 302.145 573.119 299.816 573.049 299.16L533.277 303.428ZM556.5 273.5C552.05 273.5 546.356 274.678 541.351 278.854C536.49 282.91 534.5 287.949 533.677 291.364C532.331 296.956 533.208 302.789 533.277 303.428L573.049 299.16C572.997 298.681 572.967 298.396 572.944 298.141C572.923 297.899 572.921 297.826 572.922 297.861C572.923 297.891 572.932 298.152 572.904 298.577C572.876 298.992 572.801 299.751 572.565 300.73C572.104 302.647 570.759 306.412 566.976 309.569C563.048 312.846 558.863 313.5 556.5 313.5V273.5ZM583.436 287.674C581.673 285.959 578.514 282.838 575.014 280.246C572.037 278.04 565.352 273.5 556.5 273.5V313.5C553.928 313.5 552.183 312.809 551.572 312.534C550.945 312.253 550.801 312.088 551.202 312.386C551.567 312.656 552.118 313.109 552.909 313.831C553.706 314.559 554.519 315.348 555.539 316.341L583.436 287.674ZM557.523 303.049C557.533 302.839 557.588 301.721 558.044 300.142C558.469 298.668 559.639 295.394 562.786 292.322C566.421 288.773 571.123 287.026 575.646 286.943C579.505 286.872 582.297 288.012 583.432 288.536C585.522 289.5 586.511 290.54 585.746 289.869C585.282 289.462 584.648 288.854 583.436 287.674L555.539 316.341C556.534 317.309 557.973 318.716 559.383 319.952C560.493 320.925 563.16 323.234 566.668 324.854C569.957 326.372 581.255 330.193 590.729 320.944C594.294 317.463 595.803 313.566 596.478 311.224C597.184 308.777 597.401 306.548 597.477 304.951L557.523 303.049ZM557.578 301.871C557.559 302.276 557.541 302.666 557.523 303.049L597.477 304.951C597.496 304.551 597.515 304.146 597.534 303.744L557.578 301.871ZM569.858 258.858C565.692 263.024 563.39 267.876 562.042 271.565C560.639 275.406 559.791 279.335 559.232 282.79C558.13 289.601 557.811 296.895 557.578 301.871L597.534 303.744C597.789 298.306 598.045 293.345 598.719 289.179C599.048 287.146 599.388 285.907 599.614 285.288C599.895 284.52 599.66 285.624 598.142 287.142L569.858 258.858ZM571.15 257.547C570.622 258.086 570.215 258.5 569.858 258.858L598.142 287.142C598.668 286.616 599.222 286.051 599.715 285.548L571.15 257.547ZM622.368 265.208C621.856 260.773 619.878 250.171 609.52 244.621C599.061 239.016 589.356 243.518 586.367 245.083C582.417 247.151 579.101 249.949 576.978 251.865C574.681 253.936 572.548 256.121 571.15 257.547L599.715 285.548C601.242 283.99 602.532 282.683 603.768 281.568C605.178 280.297 605.505 280.214 604.918 280.522C604.58 280.698 603.17 281.415 600.929 281.743C598.479 282.101 594.632 282.024 590.627 279.878C586.642 277.742 584.541 274.65 583.585 272.66C583.121 271.696 582.886 270.923 582.773 270.48C582.713 270.248 582.678 270.072 582.658 269.962C582.648 269.906 582.642 269.864 582.638 269.836C582.634 269.808 582.632 269.793 582.632 269.792L622.368 265.208ZM622.748 286.2C622.843 279.625 623.016 270.82 622.368 265.208L582.632 269.792C582.903 272.142 582.869 277.582 582.752 285.62L622.748 286.2ZM589.875 296.712C589.248 298.314 589 298.707 589.154 298.44C589.23 298.31 589.683 297.53 590.566 296.518C591.265 295.718 593.488 293.293 597.413 291.701C602.307 289.714 608.557 289.616 614.185 292.793C618.73 295.36 620.83 298.943 621.528 300.255C622.918 302.866 623.075 304.844 622.959 304.093C622.599 301.76 622.613 295.471 622.748 286.2L582.752 285.62C582.646 292.901 582.414 303.636 583.428 310.199C583.655 311.671 584.258 315.366 586.219 319.05C587.203 320.899 589.62 324.859 594.518 327.624C600.498 331.001 607.135 330.924 612.455 328.765C616.804 326.999 619.491 324.208 620.694 322.83C622.082 321.241 623.08 319.672 623.746 318.525C625.081 316.226 626.191 313.675 627.125 311.288L589.875 296.712ZM643.941 306.966C643.684 303.626 642.88 299.632 641.755 295.959C640.76 292.713 638.731 287.044 634.728 282.296C632.643 279.823 628.71 276.031 622.569 274.329C615.583 272.393 608.941 274.023 603.939 277.195C599.555 279.975 596.683 283.713 594.852 286.592C592.907 289.652 591.286 293.106 589.875 296.712L627.125 311.288C627.964 309.144 628.499 308.223 628.607 308.054C628.829 307.705 627.906 309.361 625.358 310.977C622.191 312.985 617.272 314.369 611.886 312.876C607.345 311.617 604.888 308.958 604.147 308.079C602.831 306.519 602.959 305.88 603.511 307.681C603.932 309.055 604.066 310.124 604.059 310.034L643.941 306.966ZM621.293 297.436C619.893 298.753 620.331 297.973 622.356 297.165C624.962 296.126 631.183 294.854 637.445 298.948C642.421 302.201 643.714 306.595 643.834 306.982C644.095 307.82 644.021 308.007 643.941 306.966L604.059 310.034C604.229 312.243 604.593 315.492 605.634 318.846C606.536 321.748 608.954 328.111 615.555 332.427C623.442 337.584 631.788 336.468 637.175 334.319C641.982 332.402 645.857 329.247 648.707 326.564L621.293 297.436ZM674.109 299.018C671.096 293.421 666.309 289 660.238 286.59C654.463 284.298 648.763 284.298 644.131 285.12C635.183 286.708 627.291 291.791 621.293 297.436L648.707 326.564C651.209 324.209 652.317 324.292 651.119 324.505C650.362 324.639 648.224 324.858 645.481 323.769C642.441 322.562 640.154 320.329 638.891 317.982L674.109 299.018ZM679.069 313.891C678.488 311.446 676.958 304.308 674.109 299.018L638.891 317.982C638.64 317.517 638.581 317.311 638.663 317.533C638.733 317.723 638.853 318.079 639.019 318.65C639.368 319.857 639.708 321.269 640.153 323.14L679.069 313.891ZM644.77 317.006C644.664 317.376 644.713 317.124 644.97 316.529C645.071 316.296 646.026 313.97 648.381 311.548C651.143 308.707 658.271 303.698 667.824 306.519C674.856 308.596 678.03 313.727 678.489 314.446C679.926 316.697 680.251 318.458 679.87 317.116C679.681 316.452 679.454 315.51 679.069 313.891L640.153 323.14C640.476 324.499 640.916 326.367 641.389 328.036C641.671 329.027 642.651 332.645 644.774 335.97C645.576 337.226 649.1 342.697 656.494 344.881C666.408 347.809 673.909 342.673 677.06 339.431C679.804 336.609 681.164 333.611 681.689 332.394C682.372 330.815 682.867 329.268 683.23 327.994L644.77 317.006ZM645.809 304.759C645.575 308.362 645.38 311.346 645.144 313.814C645.028 315.025 644.919 315.933 644.82 316.588C644.71 317.314 644.667 317.366 644.77 317.006L683.23 327.994C684.236 324.475 684.687 320.498 684.962 317.623C685.269 314.417 685.503 310.765 685.725 307.342L645.809 304.759ZM684.192 254.538C679.729 252.679 673.98 251.766 667.88 253.614C662.027 255.388 658.107 259.023 655.734 262.033C651.495 267.41 649.751 273.877 648.879 277.742C646.949 286.294 646.297 297.216 645.809 304.759L685.725 307.342C686.285 298.692 686.815 291.345 687.898 286.548C688.134 285.498 688.313 284.981 688.361 284.856C688.446 284.636 688.153 285.521 687.145 286.799C686.089 288.139 683.654 290.63 679.479 291.895C675.057 293.235 671.179 292.45 668.808 291.462L684.192 254.538ZM696.789 262.406C694.856 260.822 690.533 257.18 684.192 254.538L668.808 291.462C669.227 291.636 669.601 291.842 671.441 293.35L696.789 262.406ZM681.275 258.235C679.329 261.959 678.128 263.945 677.449 264.921C677.13 265.379 677.162 265.269 677.539 264.878C677.895 264.509 678.986 263.441 680.861 262.443C682.922 261.344 685.656 260.483 688.828 260.494C691.88 260.504 694.238 261.318 695.633 261.956C696.318 262.27 696.826 262.565 697.129 262.754C697.431 262.942 697.615 263.077 697.647 263.1C697.679 263.123 697.636 263.093 697.474 262.963C697.304 262.827 697.109 262.668 696.789 262.406L671.441 293.35C671.918 293.74 675.137 296.566 678.986 298.328C684.696 300.941 692.273 301.685 699.669 297.745C705.073 294.866 708.46 290.386 710.283 287.766C712.417 284.698 714.541 280.943 716.724 276.765L681.275 258.235ZM728.26 274.704C727.883 271.928 727.429 268.539 726.86 265.506C726.4 263.056 725.453 258.303 723.193 254.058C722.105 252.014 719.325 247.366 713.619 244.4C706.42 240.659 698.946 241.721 693.63 244.527C689.324 246.799 686.621 250.023 685.253 251.827C683.676 253.905 682.367 256.147 681.275 258.235L716.725 276.765C717.241 275.777 717.383 275.657 717.121 276.002C717.068 276.072 715.544 278.191 712.301 279.902C708.048 282.147 701.52 283.192 695.173 279.893C690.318 277.37 688.293 273.623 687.884 272.855C686.983 271.162 687.091 270.46 687.545 272.881C687.89 274.718 688.208 277.021 688.623 280.08L728.26 274.704ZM715 276.5C718.972 276.5 722.422 277.824 724.987 279.593C727.322 281.204 728.624 282.959 729.202 283.841C730.228 285.406 730.309 286.284 729.998 285.14C729.43 283.055 728.943 279.745 728.26 274.704L688.623 280.08C689.186 284.237 689.996 290.481 691.404 295.651C692.08 298.134 693.319 302.064 695.752 305.774C698.168 309.46 704.312 316.5 715 316.5V276.5ZM700.229 284.361C700.107 285.63 700.036 286.309 699.953 286.859C699.865 287.444 699.864 287.136 700.137 286.376C700.374 285.718 701.318 283.276 703.918 280.873C707.016 278.009 711.067 276.5 715 276.5V316.5C721.009 316.5 726.685 314.298 731.066 310.25C734.948 306.662 736.831 302.543 737.777 299.914C739.509 295.097 739.893 289.777 740.045 288.189L700.229 284.361ZM742.268 270.581C740.502 268.495 737.463 265.118 733.31 262.781C731.072 261.522 727.105 259.757 721.948 259.865C716.122 259.986 711.127 262.442 707.595 265.88C704.524 268.869 703.037 272.1 702.337 273.903C701.582 275.843 701.184 277.601 700.961 278.759C700.538 280.951 700.332 283.291 700.229 284.361L740.045 288.189C740.205 286.525 740.248 286.276 740.236 286.342C740.217 286.437 740.065 287.247 739.619 288.395C739.227 289.404 738.11 291.998 735.494 294.545C732.417 297.539 727.961 299.748 722.78 299.856C718.269 299.95 715.054 298.406 713.696 297.642C711.303 296.296 710.536 295.005 711.732 296.419L742.268 270.581ZM738.934 275.555C744.964 277.26 748.359 281.193 749.846 283.337C750.618 284.45 751.132 285.437 751.447 286.102C751.77 286.783 751.992 287.354 752.128 287.726C752.38 288.416 752.525 288.945 752.539 288.995C752.559 289.067 752.581 289.152 752.523 288.933C752.309 288.126 751.869 286.507 751.029 284.442C749.364 280.348 746.66 275.772 742.268 270.581L711.732 296.419C713.833 298.902 714.138 299.909 713.977 299.512C713.889 299.297 713.825 299.056 713.858 299.181C713.862 299.195 713.938 299.486 714.007 299.735C714.071 299.963 714.261 300.642 714.558 301.455C714.795 302.104 715.511 304.019 716.978 306.134C718.513 308.347 721.96 312.324 728.05 314.046L738.934 275.555ZM726.636 274.399C723.775 276.507 721.838 278.291 720.481 279.655C720.18 279.957 719.929 280.218 719.808 280.344C719.601 280.557 719.758 280.391 719.97 280.186C720.002 280.156 721.161 278.991 722.939 277.864C723.906 277.252 725.748 276.198 728.3 275.503C731.044 274.755 734.79 274.383 738.934 275.555L728.049 314.045C736.505 316.437 742.88 312.582 744.344 311.655C746.244 310.452 747.549 309.161 747.761 308.956C748.154 308.576 748.527 308.186 748.582 308.13C748.722 307.984 748.777 307.928 748.839 307.866C748.93 307.774 749.333 307.361 750.364 306.601L726.636 274.399ZM766.927 280.097C765.523 278.811 760.895 274.338 754.978 271.624C751.676 270.11 747.15 268.716 741.784 268.954C736.183 269.203 731.01 271.176 726.636 274.399L750.364 306.601C748.808 307.747 746.432 308.787 743.559 308.915C740.922 309.032 739.057 308.329 738.303 307.983C737.602 307.661 737.43 307.453 737.893 307.818C738.357 308.183 738.884 308.654 739.914 309.597L766.927 280.097ZM739.097 291.649C739.396 290.455 741.242 283.451 749.031 279.642C757.095 275.698 764.006 278.799 765.412 279.479C766.48 279.994 767.208 280.487 767.513 280.701C767.691 280.826 767.821 280.924 767.895 280.982C767.971 281.041 768.012 281.075 768.013 281.076C768.015 281.077 767.992 281.058 767.938 281.011C767.884 280.965 767.812 280.901 767.714 280.814C767.506 280.626 767.271 280.412 766.927 280.097L739.914 309.597C740.466 310.104 741.456 311.016 742.454 311.845C743.273 312.525 745.3 314.186 748.015 315.497C750.288 316.595 757.939 319.813 766.604 315.575C774.993 311.472 777.299 303.765 777.903 301.351L739.097 291.649ZM743.465 281.611C742.674 282.924 740.369 286.56 739.097 291.649L777.903 301.351C777.825 301.661 777.73 301.961 777.626 302.239C777.522 302.513 777.426 302.723 777.363 302.851C777.304 302.97 777.281 303.006 777.338 302.907C777.409 302.782 777.5 302.63 777.725 302.256L743.465 281.611ZM743.201 278.828C743.672 282.124 743.335 282.74 743.5 282.015C743.59 281.618 743.738 281.22 743.874 280.933C743.94 280.794 743.976 280.762 743.465 281.611L777.725 302.256C778.737 300.577 781.195 296.646 782.506 290.875C783.759 285.358 783.707 279.529 782.799 273.172L743.201 278.828ZM801.373 256.762C796.332 248.841 788.202 246.077 784.004 245.08C778.877 243.863 773.165 243.72 767.674 244.844C762.276 245.95 755.358 248.67 749.976 254.818C744.063 261.571 741.972 270.226 743.201 278.828L782.799 273.172C782.882 273.753 782.95 275.006 782.502 276.65C782.043 278.335 781.184 279.896 780.071 281.167C777.986 283.549 775.911 283.988 775.701 284.031C775.398 284.093 775.217 284.106 774.762 283.998C774.495 283.935 773.704 283.724 772.606 283.099C771.598 282.526 769.448 281.099 767.627 278.238L801.373 256.762ZM817.988 325.811C817.663 316.378 814.713 301.272 811.846 289.055C810.343 282.653 808.712 276.409 807.179 271.277C806.417 268.724 805.626 266.268 804.837 264.121C804.217 262.433 803.07 259.428 801.373 256.762L767.627 278.238C766.805 276.947 766.721 276.363 767.292 277.918C767.694 279.014 768.224 280.619 768.852 282.723C770.1 286.903 771.532 292.347 772.904 298.195C775.787 310.478 777.837 322.122 778.012 327.189L817.988 325.811ZM814.506 315.163C814.254 314.825 813.999 314.491 813.741 314.162L782.259 338.838C782.306 338.898 782.364 338.973 782.433 339.066L814.506 315.163Z" fill="#BC5151" mask="url(#path-3-inside-1_365_212)"/>
</mask>
<g mask="url(#mask0_365_212)">
<g filter="url(#filter2_i_365_212)">
<circle cx="640" cy="281" r="165" fill="#D96B6B"/>
</g>
<circle cx="640" cy="281" r="155" stroke="#BC5151" stroke-width="20"/>
<path fill-rule="evenodd" clip-rule="evenodd" d="M757.964 276.942L772.96 277.308C772.971 276.827 772.981 276.346 772.987 275.863C772.996 275.243 773 274.622 773 274C773 273.333 772.995 272.667 772.985 272.002C772.979 271.565 772.97 271.128 772.96 270.692L757.964 271.058L742.969 271.424C742.989 272.279 743 273.138 743 274C743 274.862 742.989 275.721 742.969 276.576L757.964 276.942ZM753.125 240.311L767.503 236.036C767.379 235.618 767.253 235.202 767.125 234.786C767.091 234.675 767.056 234.565 767.022 234.455C766.662 233.296 766.286 232.143 765.895 230.998M737.173 207.035L749.516 198.511C749.268 198.152 749.018 197.794 748.766 197.438C748.701 197.345 748.635 197.252 748.57 197.159C747.868 196.17 747.153 195.19 746.425 194.221C746.425 194.221 746.425 194.221 746.425 194.221C746.163 193.871 745.899 193.524 745.634 193.177L733.727 202.301L721.821 211.424C722.858 212.777 723.861 214.156 724.83 215.559L737.173 207.035ZM711.699 180.273L720.823 168.366C720.476 168.101 720.129 167.837 719.779 167.575C719.689 167.507 719.599 167.439 719.508 167.372C718.536 166.646 717.554 165.933 716.562 165.234C716.206 164.982 715.848 164.732 715.489 164.484L706.965 176.827L698.441 189.17C699.844 190.139 701.223 191.142 702.576 192.179L711.699 180.273ZM679.25 162.681L684.238 148.534C683.721 148.352 683.203 148.173 682.683 147.997C681.533 147.608 680.377 147.234 679.214 146.875C679.214 146.875 679.214 146.875 679.214 146.875C678.798 146.747 678.381 146.621 677.964 146.497L673.689 160.875L669.415 175.253C671.048 175.739 672.664 176.264 674.263 176.827L679.25 162.681ZM642.942 156.036L643.308 141.04C642.872 141.03 642.435 141.021 641.998 141.015C641.953 141.014 641.908 141.013 641.863 141.013C641.243 141.004 640.622 141 640 141C639.333 141 638.667 141.005 638.002 141.015C637.565 141.021 637.128 141.03 636.692 141.04L637.058 156.036L637.424 171.031C638.279 171.011 639.138 171 640 171C640.862 171 641.721 171.011 642.576 171.031L642.942 156.036ZM606.311 160.875L602.036 146.497C601.618 146.621 601.202 146.747 600.786 146.875C600.675 146.909 600.565 146.944 600.455 146.978C599.295 147.338 598.143 147.714 596.997 148.106C596.585 148.247 596.173 148.389 595.762 148.534L600.75 162.681L605.737 176.827C607.336 176.264 608.952 175.739 610.585 175.253L606.311 160.875ZM573.035 176.827L564.511 164.484C564.152 164.732 563.794 164.982 563.438 165.234C563.345 165.299 563.252 165.365 563.159 165.43C562.17 166.132 561.19 166.847 560.221 167.575C559.871 167.837 559.524 168.101 559.177 168.366L568.301 180.273L577.424 192.179C578.777 191.142 580.156 190.139 581.559 189.17L573.035 176.827ZM546.273 202.301L534.366 193.177C534.032 193.613 533.7 194.052 533.372 194.492C532.646 195.464 531.933 196.446 531.234 197.438C530.982 197.794 530.732 198.152 530.484 198.511L542.827 207.035L555.17 215.559C556.139 214.156 557.142 212.777 558.179 211.424L546.273 202.301ZM528.681 234.75L514.534 229.762C514.389 230.173 514.247 230.585 514.106 230.997C514.069 231.104 514.033 231.211 513.997 231.317C513.608 232.467 513.234 233.623 512.875 234.786C512.747 235.202 512.621 235.618 512.497 236.036L526.875 240.311L541.253 244.585C541.739 242.952 542.264 241.336 542.827 239.737L528.681 234.75ZM507.015 272.002C507.021 271.565 507.03 271.128 507.04 270.692L522.036 271.058L537.031 271.424C537.011 272.279 537 273.138 537 274C537 274.862 537.011 275.721 537.031 276.576L522.036 276.942L507.04 277.308C507.03 276.872 507.021 276.435 507.015 275.998C507.014 275.953 507.013 275.908 507.013 275.863C507.004 275.243 507 274.622 507 274C507 273.333 507.005 272.667 507.015 272.002ZM526.875 307.689L512.497 311.964C512.621 312.382 512.747 312.798 512.875 313.214C512.909 313.325 512.944 313.435 512.978 313.545C513.338 314.704 513.714 315.857 514.106 317.003C514.247 317.415 514.389 317.827 514.534 318.238L528.681 313.25L542.827 308.263C542.264 306.664 541.739 305.048 541.253 303.415L526.875 307.689ZM542.827 340.965L530.484 349.489C530.732 349.848 530.982 350.206 531.234 350.562C531.299 350.655 531.365 350.748 531.43 350.841C532.132 351.83 532.847 352.81 533.575 353.779C533.575 353.779 533.575 353.779 533.575 353.779C533.837 354.129 534.101 354.476 534.366 354.823L546.273 345.699L558.179 336.576C557.142 335.223 556.139 333.844 555.17 332.441L542.827 340.965ZM568.301 367.727L559.177 379.634C559.613 379.968 560.052 380.299 560.492 380.628C561.464 381.354 562.446 382.067 563.438 382.766C563.794 383.018 564.152 383.268 564.511 383.516L573.035 371.173L581.559 358.83C580.156 357.861 578.777 356.858 577.424 355.821L568.301 367.727ZM600.75 385.319L595.762 399.466C596.279 399.648 596.797 399.827 597.317 400.003C598.466 400.392 599.623 400.766 600.785 401.124C601.201 401.253 601.618 401.379 602.036 401.503L606.311 387.125L610.585 372.747C608.952 372.261 607.336 371.736 605.737 371.173L600.75 385.319ZM637.058 391.964L636.692 406.96C637.173 406.971 637.654 406.981 638.137 406.987C638.757 406.996 639.378 407 640 407C640.667 407 641.333 406.995 641.998 406.985C642.435 406.979 642.872 406.97 643.308 406.96L642.942 391.964L642.576 376.969C641.721 376.989 640.862 377 640 377C639.138 377 638.279 376.989 637.424 376.969L637.058 391.964ZM673.689 387.125L677.964 401.503C678.382 401.379 678.798 401.253 679.214 401.125C679.325 401.091 679.435 401.056 679.545 401.022C680.704 400.662 681.857 400.286 683.003 399.894C683.415 399.753 683.827 399.611 684.238 399.466L679.25 385.319L674.263 371.173C672.664 371.736 671.048 372.261 669.415 372.747L673.689 387.125ZM706.965 371.173L715.489 383.516C715.848 383.268 716.206 383.018 716.562 382.766C716.655 382.701 716.748 382.635 716.841 382.57C717.83 381.868 718.81 381.153 719.779 380.425C719.779 380.425 719.779 380.425 719.779 380.425C720.129 380.163 720.476 379.899 720.823 379.634L711.699 367.727L702.576 355.821C701.223 356.858 699.844 357.861 698.441 358.83L706.965 371.173ZM733.727 345.699L745.634 354.823C745.968 354.387 746.299 353.948 746.628 353.508C747.354 352.536 748.067 351.554 748.766 350.562C749.018 350.206 749.268 349.848 749.516 349.489L737.173 340.965L724.83 332.441C723.861 333.844 722.858 335.223 721.821 336.576L733.727 345.699ZM751.319 313.25L765.466 318.238C765.648 317.721 765.827 317.203 766.003 316.683C766.392 315.533 766.766 314.377 767.124 313.215C767.253 312.799 767.379 312.382 767.503 311.964L753.125 307.689L738.747 303.415C738.261 305.048 737.736 306.664 737.173 308.263L751.319 313.25ZM765.002 262.734L772.472 262.069C772.354 260.744 772.217 259.424 772.061 258.111L764.613 258.997L757.166 259.884C757.305 261.05 757.426 262.221 757.531 263.398L765.002 262.734ZM763.156 249.729L770.516 248.287C770.261 246.981 769.986 245.683 769.692 244.391L762.379 246.054L755.065 247.717C755.326 248.861 755.569 250.013 755.796 251.17L763.156 249.729ZM755.434 224.665L762.329 221.715C761.806 220.493 761.265 219.281 760.707 218.078L753.904 221.235L747.101 224.393C747.596 225.459 748.075 226.533 748.539 227.616L755.434 224.665ZM749.637 212.878L756.185 209.22C755.537 208.061 754.873 206.913 754.192 205.775L747.757 209.628L741.322 213.481C741.926 214.49 742.516 215.508 743.09 216.536L749.637 212.878ZM734.514 191.43L740.16 186.493C739.287 185.495 738.399 184.509 737.497 183.537L732 188.64L726.503 193.742C727.304 194.605 728.093 195.48 728.868 196.367L734.514 191.43ZM725.36 182L730.463 176.503C729.491 175.601 728.505 174.713 727.507 173.84L722.57 179.486L717.633 185.132C718.52 185.907 719.395 186.696 720.258 187.497L725.36 182ZM704.372 166.243L708.225 159.808C707.087 159.127 705.939 158.463 704.78 157.815L701.122 164.363L697.464 170.91C698.492 171.484 699.51 172.074 700.519 172.678L704.372 166.243ZM692.765 160.096L695.922 153.293C694.719 152.735 693.507 152.194 692.285 151.671L689.335 158.566L686.384 165.461C687.467 165.925 688.541 166.404 689.607 166.899L692.765 160.096ZM667.946 151.621L669.609 144.308C668.317 144.014 667.019 143.739 665.713 143.484L664.271 150.844L662.83 158.204C663.987 158.431 665.139 158.674 666.283 158.935L667.946 151.621ZM655.003 149.387L655.889 141.939C654.576 141.783 653.256 141.646 651.931 141.528L651.266 148.998L650.602 156.469C651.779 156.574 652.95 156.695 654.116 156.834L655.003 149.387ZM628.734 148.998L628.069 141.528C626.744 141.646 625.424 141.783 624.111 141.939L624.997 149.387L625.884 156.834C627.05 156.695 628.221 156.574 629.398 156.469L628.734 148.998ZM615.729 150.844L614.287 143.484C612.981 143.739 611.683 144.014 610.391 144.308L612.054 151.621L613.717 158.935C614.861 158.674 616.013 158.431 617.17 158.204L615.729 150.844ZM590.665 158.566L587.715 151.671C586.493 152.194 585.281 152.735 584.078 153.293L587.235 160.096L590.393 166.899C591.459 166.404 592.533 165.925 593.616 165.461L590.665 158.566ZM578.878 164.363L575.22 157.815C574.061 158.463 572.913 159.127 571.775 159.808L575.628 166.243L579.481 172.678C580.49 172.074 581.508 171.484 582.536 170.91L578.878 164.363ZM557.43 179.486L552.493 173.84C551.495 174.713 550.509 175.601 549.537 176.503L554.64 182L559.742 187.497C560.605 186.696 561.48 185.907 562.367 185.132L557.43 179.486ZM548 188.64L542.503 183.537C541.601 184.509 540.713 185.495 539.84 186.493L545.486 191.43L551.132 196.367C551.907 195.48 552.696 194.605 553.497 193.742L548 188.64ZM532.243 209.628L525.808 205.775C525.127 206.913 524.463 208.061 523.815 209.22L530.363 212.878L536.91 216.536C537.484 215.508 538.074 214.49 538.678 213.481L532.243 209.628ZM526.096 221.235L519.293 218.078C518.735 219.281 518.194 220.493 517.671 221.715L524.566 224.665L531.461 227.616C531.925 226.533 532.404 225.459 532.899 224.393L526.096 221.235ZM517.621 246.054L510.308 244.391C510.014 245.683 509.739 246.981 509.484 248.287L516.844 249.729L524.204 251.17C524.431 250.013 524.674 248.861 524.935 247.717L517.621 246.054ZM515.387 258.997L507.939 258.11C507.783 259.424 507.646 260.744 507.528 262.069L514.998 262.734L522.469 263.398C522.574 262.221 522.695 261.05 522.834 259.884L515.387 258.997ZM514.998 285.266L507.528 285.931C507.646 287.256 507.783 288.576 507.939 289.889L515.387 289.003L522.834 288.116C522.695 286.95 522.574 285.779 522.469 284.602L514.998 285.266ZM516.844 298.271L509.484 299.713C509.739 301.019 510.014 302.317 510.308 303.609L517.621 301.946L524.935 300.283C524.674 299.139 524.431 297.987 524.204 296.83L516.844 298.271ZM524.566 323.335L517.671 326.285C518.194 327.507 518.735 328.719 519.293 329.922L526.096 326.765L532.899 323.607C532.404 322.541 531.925 321.467 531.461 320.384L524.566 323.335ZM530.363 335.122L523.815 338.78C524.463 339.939 525.127 341.087 525.808 342.225L532.243 338.372L538.678 334.519C538.074 333.51 537.484 332.492 536.91 331.464L530.363 335.122ZM545.486 356.57L539.84 361.507C540.713 362.505 541.601 363.491 542.503 364.463L548 359.36L553.497 354.258C552.696 353.395 551.907 352.52 551.132 351.633L545.486 356.57ZM554.64 366L549.537 371.497C550.509 372.399 551.495 373.287 552.493 374.16L557.43 368.514L562.367 362.868C561.48 362.093 560.605 361.304 559.742 360.503L554.64 366ZM575.628 381.757L571.775 388.192C572.913 388.873 574.061 389.537 575.22 390.185L578.878 383.637L582.536 377.09C581.508 376.516 580.49 375.926 579.481 375.322L575.628 381.757ZM587.235 387.904L584.078 394.707C585.281 395.265 586.493 395.806 587.715 396.329L590.665 389.434L593.616 382.539C592.533 382.075 591.459 381.596 590.393 381.101L587.235 387.904ZM612.054 396.379L610.391 403.692C611.683 403.986 612.981 404.261 614.287 404.516L615.729 397.156L617.17 389.796C616.013 389.569 614.861 389.326 613.717 389.065L612.054 396.379ZM624.997 398.613L624.11 406.061C625.424 406.217 626.744 406.354 628.069 406.472L628.734 399.002L629.398 391.531C628.221 391.426 627.05 391.305 625.884 391.166L624.997 398.613ZM651.266 399.002L651.931 406.472C653.256 406.354 654.576 406.217 655.889 406.061L655.003 398.613L654.116 391.166C652.95 391.305 651.779 391.426 650.602 391.531L651.266 399.002ZM664.271 397.156L665.713 404.516C667.019 404.261 668.317 403.986 669.609 403.692L667.946 396.379L666.283 389.065C665.139 389.326 663.987 389.569 662.83 389.796L664.271 397.156ZM689.335 389.434L692.285 396.329C693.507 395.806 694.719 395.265 695.922 394.707L692.765 387.904L689.607 381.101C688.541 381.596 687.467 382.075 686.384 382.539L689.335 389.434ZM708.225 388.192C707.087 388.873 705.939 389.537 704.78 390.185L701.122 383.637L697.464 377.09C698.492 376.516 699.51 375.926 700.519 375.322L704.372 381.757L708.225 388.192ZM722.57 368.514L727.507 374.16C728.505 373.287 729.491 372.399 730.463 371.497L725.36 366L720.258 360.503C719.395 361.304 718.52 362.093 717.633 362.868L722.57 368.514ZM732 359.36L737.497 364.463C738.399 363.491 739.287 362.505 740.16 361.507L734.514 356.57L728.868 351.633C728.093 352.52 727.304 353.395 726.503 354.258L732 359.36ZM747.757 338.372L754.192 342.225C754.873 341.087 755.537 339.939 756.185 338.78L749.637 335.122L743.09 331.464C742.516 332.492 741.926 333.51 741.322 334.519L747.757 338.372ZM753.904 326.765L760.707 329.922C761.265 328.719 761.806 327.507 762.329 326.285L755.434 323.335L748.539 320.384C748.075 321.467 747.596 322.541 747.101 323.607L753.904 326.765ZM762.379 301.946L769.692 303.609C769.986 302.317 770.261 301.019 770.516 299.713L763.156 298.271L755.796 296.83C755.569 297.987 755.326 299.139 755.065 300.283L762.379 301.946ZM764.613 289.003L772.061 289.889C772.217 288.576 772.354 287.256 772.472 285.931L765.002 285.266L757.531 284.602C757.426 285.779 757.305 286.95 757.166 288.116L764.613 289.003Z" fill="#BC5151"/>
<circle cx="640" cy="321" r="69" fill="#D96B6B" stroke="#BC5151" stroke-width="20"/>
<path d="M429 301.324C429 280.104 447.889 263.862 468.87 267.04L636.521 292.439C646.45 293.943 656.55 293.943 666.479 292.439L834.131 267.04C855.111 263.862 874 280.104 874 301.324C874 320.475 858.475 336 839.324 336H463.676C444.525 336 429 320.475 429 301.324Z" fill="#0F0A0A"/>
<circle cx="640" cy="314" r="57" fill="#0F0A0A"/>
<g filter="url(#filter3_i_365_212)">
<circle cx="639.5" cy="312.5" r="38.5" fill="#D9D9D9"/>
</g>
<path d="M638.021 168.434C638.357 166.156 641.643 166.156 641.979 168.434L658.863 283.066C658.95 283.658 658.768 284.257 658.367 284.7L641.483 303.361C640.689 304.238 639.311 304.238 638.517 303.361L621.633 284.7C621.232 284.257 621.05 283.658 621.137 283.066L638.021 168.434Z" fill="#A2D7D5"/>
<path d="M636.021 183.013C636.382 180.561 640 180.826 640 183.304V285V300.808C640 302.639 637.745 303.508 636.517 302.15L621.633 285.7C621.232 285.257 621.05 284.658 621.137 284.066L636.021 183.013Z" fill="#55A3AB"/>
</g>
<g filter="url(#filter4_i_365_212)">
<path d="M526.412 341.707C525.012 342.687 523.622 343.617 522.192 344.477C520.992 345.167 519.712 345.887 518.332 346.647C517.032 347.407 515.922 348.007 514.992 348.407C516.912 358.887 518.752 366.967 520.102 372.617C521.652 378.297 522.832 382.477 523.582 385.127C524.432 388.277 524.852 390.047 524.832 390.427C524.682 390.397 524.122 389.897 523.112 388.927C522.052 387.847 520.862 386.617 519.522 385.227C518.232 383.837 516.972 382.487 515.722 381.137C514.542 379.817 513.742 378.837 513.352 378.207C512.782 376.887 511.172 373.097 508.572 366.857C507.452 364.147 506.162 360.787 504.722 356.777C503.422 352.787 502.012 347.937 500.712 342.257C499.842 336.587 499.322 329.907 499.292 322.247C499.772 314.597 500.612 305.817 501.762 295.877C500.272 295.707 499.012 295.587 497.992 295.547C497.062 295.497 496.322 295.507 495.782 295.587C495.272 295.557 494.892 295.537 494.622 295.527C494.382 295.407 494.222 295.147 494.122 294.747C493.942 293.937 493.962 292.597 494.172 290.727C494.412 288.747 494.712 286.867 495.072 285.097C495.472 283.127 496.072 281.157 496.852 279.187C497.692 277.217 498.452 275.987 499.142 275.507C499.402 275.317 499.972 275.277 500.852 275.387C501.812 275.507 502.892 275.727 504.112 276.047C505.342 276.367 506.652 276.737 508.082 277.177C509.512 277.597 510.862 278.027 512.142 278.447C513.422 278.877 514.522 279.297 515.442 279.717C516.442 280.037 517.162 280.257 517.592 280.357C518.302 280.587 519.622 281.227 521.522 282.277C523.442 283.237 525.472 284.467 527.602 285.957C529.822 287.357 531.892 288.917 533.832 290.637C535.842 292.247 537.322 293.867 538.252 295.467C538.622 296.117 538.942 297.907 539.242 300.857C539.622 303.817 539.902 307.037 540.102 310.507C540.392 313.887 540.542 317.137 540.572 320.277C540.682 323.327 540.582 325.307 540.242 326.227C539.972 326.827 539.442 327.777 538.672 329.077C537.902 330.367 536.912 331.797 535.692 333.347C534.542 334.797 533.192 336.277 531.642 337.777C530.092 339.257 528.342 340.577 526.412 341.707ZM514.062 337.397C514.842 336.967 515.772 336.097 516.842 334.777C517.982 333.367 519.162 331.787 520.372 330.077C521.582 328.237 522.772 326.347 523.972 324.397C525.152 322.337 526.222 320.417 527.162 318.627C528.182 316.837 528.962 315.297 529.502 313.987C530.132 312.567 530.442 311.657 530.442 311.247C530.442 310.627 530.092 309.827 529.402 308.877C528.712 307.807 527.722 306.717 526.422 305.637C525.212 304.547 523.672 303.497 521.842 302.497C520.082 301.407 518.122 300.457 515.952 299.647C514.859 312.26 514.229 324.843 514.062 337.397ZM572.732 311.277C573.242 311.957 573.742 313.257 574.222 315.157C574.782 317.067 575.282 319.367 575.732 322.047C576.192 324.747 576.622 327.677 577.032 330.817C577.452 333.977 577.842 337.087 578.202 340.157C578.562 343.217 578.862 346.117 579.072 348.857C579.352 351.477 579.582 353.657 579.742 355.377C579.932 357.447 580.102 359.627 580.242 361.927C580.442 364.127 580.572 366.247 580.642 368.317C580.762 370.277 580.812 372.057 580.792 373.667C580.832 375.287 580.782 376.477 580.642 377.257C580.362 378.927 579.762 380.027 578.822 380.537C577.942 380.957 576.922 381.157 575.762 381.177C575.172 381.177 574.152 381.037 572.702 380.767C571.292 380.387 569.762 379.977 568.082 379.547C566.452 379.017 564.892 378.497 563.392 377.997C561.882 377.487 560.732 377.057 559.962 376.687C558.402 375.857 557.212 374.947 556.422 373.937C555.692 372.957 554.912 371.577 554.082 369.837C553.802 369.137 553.422 367.487 552.972 364.847C552.522 362.117 552.072 358.907 551.612 355.227C551.242 351.457 550.902 347.427 550.622 343.137C550.362 338.867 550.192 334.807 550.102 330.967C550.122 327.147 550.172 323.797 550.272 320.927C550.452 318.067 550.742 316.167 551.152 315.227C551.832 313.767 553.012 312.447 554.702 311.247C556.452 310.047 558.032 309.087 559.432 308.397C560.142 308.097 561.052 307.927 562.182 307.867C563.382 307.707 564.622 307.757 565.892 308.027C567.232 308.187 568.512 308.567 569.722 309.167C570.932 309.657 571.932 310.367 572.732 311.277ZM569.702 362.487C569.802 362.057 569.832 360.727 569.802 358.497C569.832 356.167 569.772 353.387 569.622 350.157C569.552 346.937 569.392 343.497 569.182 339.827C569.042 336.167 568.902 332.807 568.752 329.707C568.602 326.627 568.412 324.027 568.192 321.927C567.952 319.717 567.732 318.447 567.502 318.107C567.142 317.647 566.602 317.447 565.902 317.527C565.262 317.487 564.602 317.607 563.902 317.897C563.202 318.077 562.582 318.367 562.032 318.767C561.472 319.057 561.092 319.357 560.892 319.667C560.022 320.817 559.602 322.737 559.652 325.437C559.682 326.197 559.722 328.357 559.772 331.947C559.902 335.417 560.112 339.227 560.392 343.377C560.682 347.427 561.002 351.207 561.362 354.737C561.812 358.277 562.242 360.477 562.662 361.297C563.082 362.127 563.612 362.797 564.282 363.337C564.992 363.777 565.702 364.047 566.382 364.147C567.142 364.267 567.812 364.207 568.402 363.957C569.042 363.607 569.482 363.107 569.702 362.487ZM605.452 347.357C606.032 349.057 606.912 351.617 608.072 355.047C609.292 358.497 610.582 362.357 611.932 366.607C613.272 370.887 614.632 375.347 616.032 379.957C617.392 384.637 618.582 388.947 619.592 392.897C620.602 396.877 621.362 400.217 621.882 402.917C622.472 405.617 622.672 407.087 622.482 407.337C622.172 407.687 621.702 407.837 621.072 407.747C620.442 407.527 619.782 407.227 619.092 406.867C618.382 406.377 617.722 405.807 617.082 405.187C616.502 404.447 616.092 403.817 615.832 403.237C613.572 396.997 611.512 391.317 609.652 386.167C607.842 381.097 606.232 376.717 604.812 373.017C603.172 368.837 601.702 365.017 600.382 361.537C600.392 367.147 600.382 372.477 600.372 377.537C600.372 382.637 600.352 387.187 600.312 391.197C600.272 395.117 600.182 398.277 600.022 400.707C599.922 403.017 599.782 404.217 599.602 404.307C599.102 404.317 598.552 403.827 597.952 402.837C597.342 401.727 596.752 400.447 596.192 398.997C595.602 397.407 595.062 395.847 594.552 394.307C594.082 392.647 593.802 391.277 593.682 390.177C592.762 379.157 591.962 369.407 591.302 360.887C590.712 352.337 590.192 344.837 589.722 338.367C589.342 331.937 589.042 326.417 588.812 321.747C588.652 316.997 588.532 312.997 588.432 309.717C588.222 301.977 588.222 296.667 588.432 293.757C588.662 291.527 589.232 289.417 590.152 287.417C591.152 285.317 592.222 283.477 593.372 281.927C594.512 280.367 595.602 279.197 596.632 278.417C597.652 277.647 598.342 277.417 598.692 277.757C598.972 278.097 599.182 280.057 599.322 283.637C599.472 287.237 599.572 291.837 599.622 297.477C599.752 303.027 599.842 309.277 599.892 316.237C599.942 323.227 600.012 330.267 600.082 337.347C601.212 334.267 602.322 331.187 603.392 328.117C604.472 324.907 605.492 322.057 606.462 319.547C607.422 316.937 608.262 314.757 608.982 313.057C609.772 311.347 610.362 310.317 610.772 309.987C611.242 309.537 612.002 309.207 613.022 308.987C614.122 308.667 615.222 308.447 616.322 308.357C617.422 308.257 618.432 308.327 619.332 308.567C620.312 308.807 620.902 309.217 621.122 309.807C621.332 310.147 620.982 311.587 620.052 314.127C619.132 316.557 617.912 319.557 616.402 323.147C614.902 326.717 613.172 330.647 611.222 334.927C609.282 339.197 607.362 343.347 605.452 347.357ZM635.682 359.107C636.762 358.377 637.972 357.567 639.322 356.697C640.742 355.697 642.092 354.817 643.382 354.067C644.662 353.177 645.822 352.417 646.852 351.777C647.872 351.147 648.622 350.637 649.102 350.257C649.052 348.927 648.972 347.417 648.852 345.727C648.802 343.927 648.722 342.247 648.592 340.697C648.472 339.027 648.312 337.597 648.112 336.417C647.922 335.227 647.712 334.507 647.512 334.277C646.962 333.937 646.032 333.647 644.722 333.437C643.492 333.087 642.182 333.167 640.812 333.657C639.502 334.137 638.302 335.047 637.212 336.357C636.122 337.667 635.512 339.767 635.382 342.657C635.252 344.587 635.222 346.997 635.292 349.927C635.362 352.847 635.492 355.907 635.682 359.107ZM657.522 361.327C657.452 361.587 656.632 362.127 655.062 362.967C653.502 363.787 651.632 364.697 649.482 365.667C647.322 366.517 645.042 367.407 642.642 368.357C640.242 369.147 638.172 369.807 636.452 370.317C636.752 375.367 637.122 379.947 637.542 384.057C637.972 388.057 638.332 390.597 638.642 391.637C638.962 392.537 639.362 393.387 639.882 394.157C640.322 394.797 640.862 395.437 641.502 396.077C642.202 396.567 643.032 396.917 643.992 397.137C644.702 397.477 645.382 396.907 646.062 395.427C646.602 394.077 647.112 391.767 647.562 388.507C648.082 385.257 648.412 380.197 648.542 373.387C650.612 372.637 652.222 372.167 653.352 371.967C654.562 371.747 655.422 371.687 655.952 371.777C656.612 371.847 657.012 371.997 657.132 372.237C657.192 372.597 657.162 373.527 657.052 375.017C656.952 376.537 656.732 378.417 656.402 380.707C656.142 382.857 655.812 385.287 655.402 387.997C655.062 390.567 654.662 393.097 654.202 395.597C653.752 397.967 653.262 400.157 652.752 402.167C652.252 404.057 651.732 405.447 651.202 406.297C649.602 408.887 647.652 410.327 645.362 410.577C643.072 410.647 640.832 410.117 638.622 408.997C636.422 407.687 634.432 406.117 632.672 404.337C630.892 402.397 629.782 400.817 629.342 399.597C629.022 398.777 628.732 396.787 628.472 393.617C628.212 390.347 627.982 386.447 627.772 381.947C627.632 377.477 627.512 372.607 627.422 367.347C627.322 362.127 627.322 357.087 627.422 352.197C627.582 347.337 627.822 342.877 628.112 338.807C628.492 334.757 629.002 331.497 629.672 329.007C630.662 325.477 632.322 322.607 634.652 320.387C636.992 318.157 639.482 316.627 642.122 315.807C644.772 314.967 647.292 314.837 649.672 315.387C652.122 315.927 653.942 317.187 655.122 319.137C655.812 320.277 656.422 322.607 656.942 326.097C657.452 329.487 657.742 333.657 657.802 338.617C657.792 339.087 657.802 340.447 657.822 342.717C657.852 344.967 657.842 347.417 657.782 350.067C657.802 352.587 657.782 355.017 657.722 357.307C657.672 359.627 657.602 360.967 657.522 361.327ZM703.222 274.537C703.432 274.967 703.652 277.207 703.872 281.257C704.172 285.187 704.442 290.107 704.672 296.007C704.942 301.907 705.172 308.367 705.352 315.367C705.472 322.267 705.532 328.957 705.512 335.447C705.462 341.827 705.362 347.577 705.252 352.657C705.122 357.657 705.022 361.147 704.982 363.147C704.912 366.157 704.872 369.817 704.852 374.147C704.892 378.467 704.872 382.747 704.812 386.977C704.812 391.087 704.762 394.727 704.662 397.857C704.562 400.997 704.372 402.897 704.112 403.507C703.852 404.137 703.202 404.247 702.172 403.837C701.132 403.417 700.032 402.737 698.842 401.787C697.662 400.817 696.562 399.717 695.522 398.477C694.542 397.207 693.932 396.087 693.702 395.107C693.472 393.997 693.272 392.147 693.112 389.527C692.952 386.807 692.812 383.217 692.712 378.767C691.612 381.717 690.412 384.757 689.112 387.897C687.822 391.067 686.592 394.007 685.412 396.717C684.252 399.447 683.182 401.757 682.212 403.637C681.332 405.397 680.702 406.257 680.312 406.237C679.682 406.257 678.782 404.907 677.612 402.157C676.512 399.247 675.382 395.957 674.222 392.287C673.062 388.497 671.992 384.897 671.032 381.517C670.142 377.997 669.652 375.647 669.562 374.437C669.532 373.707 669.572 372.087 669.672 369.537C669.782 366.877 669.912 363.747 670.052 360.147C670.262 356.557 670.462 352.687 670.682 348.547C670.962 344.287 671.192 340.167 671.392 336.197C671.652 332.107 671.852 328.287 672.012 324.697C672.232 321.127 672.442 318.197 672.632 315.897C672.842 312.357 673.082 308.697 673.372 304.947C673.712 301.087 674.012 297.517 674.272 294.247C674.592 290.977 674.882 288.227 675.122 285.977C675.432 283.617 675.702 282.167 675.922 281.597C676.072 281.157 676.512 280.877 677.232 280.757C678.042 280.647 678.912 280.757 679.852 281.077C680.792 281.307 681.662 281.747 682.442 282.417C683.242 282.967 683.772 283.677 684.052 284.567C684.192 285.127 684.232 287.347 684.172 291.257C684.182 295.047 684.132 299.637 684.012 305.017C683.882 310.427 683.682 316.297 683.412 322.647C683.192 328.907 682.932 334.857 682.632 340.487C682.312 346.157 682.012 351.037 681.742 355.127C681.532 359.107 681.412 361.447 681.372 362.157C681.302 363.447 681.702 365.447 682.562 368.137C683.482 370.707 684.272 373.857 684.892 377.637C687.306 373.13 689.739 368.667 692.192 364.247C692.342 361.037 692.552 356.907 692.802 351.897C693.112 346.877 693.382 341.607 693.602 336.067C693.802 330.437 693.982 324.837 694.142 319.247C694.342 313.557 694.512 308.367 694.652 303.707C694.772 299.057 694.862 295.237 694.922 292.257C695.052 289.157 695.162 287.387 695.242 286.947C695.482 286.067 695.942 284.787 696.622 283.137C697.382 281.367 698.172 279.767 698.992 278.327C699.822 276.787 700.642 275.587 701.462 274.707C702.282 273.827 702.862 273.767 703.222 274.537ZM749.932 299.107C750.742 299.697 751.512 300.787 752.252 302.407C753.072 303.907 753.822 305.717 754.502 307.827C755.192 309.827 755.742 312.037 756.162 314.447C756.582 316.767 756.762 318.987 756.722 321.117C756.662 323.347 756.192 326.467 755.282 330.477C754.382 334.387 753.262 338.367 751.932 342.407C750.532 346.477 749.182 350.157 747.912 353.427C746.602 356.707 745.752 358.667 745.392 359.327C744.452 361.767 743.472 363.567 742.462 364.717C741.512 365.667 740.332 366.457 738.922 367.077C737.632 367.577 736.322 367.987 735.012 368.297C733.702 368.607 732.452 368.807 731.272 368.897C730.112 368.877 729.232 368.767 728.612 368.537C728.532 368.557 728.292 368.497 727.882 368.347C727.212 372.647 726.472 377.067 725.652 381.617C724.912 385.537 724.092 389.957 723.182 394.907C722.302 399.767 721.412 404.707 720.522 409.747C720.232 410.777 719.792 412.027 719.192 413.487C718.662 414.927 718.062 416.297 717.382 417.577C716.692 418.987 716.002 420.177 715.332 421.147C714.712 422.097 714.202 422.537 713.802 422.447C713.562 422.417 713.552 420.507 713.762 416.727C714.032 413.047 714.442 408.157 715.002 402.057C715.612 396.067 716.302 389.247 717.042 381.557C717.732 373.927 718.402 366.147 719.042 358.237C719.592 350.367 720.052 342.657 720.432 335.137C720.802 327.507 721.042 320.757 721.172 314.867C721.332 308.867 721.492 303.987 721.682 300.237C721.852 296.367 722.082 294.277 722.392 293.957C722.622 293.617 723.062 293.667 723.722 294.077C724.382 294.387 725.122 294.997 725.912 295.937C726.792 296.767 727.672 297.857 728.542 299.217C729.492 300.457 730.322 301.857 731.042 303.407C734.812 300.947 738.382 299.197 741.762 298.147C745.162 297.097 747.892 297.417 749.932 299.107ZM744.562 322.087C744.632 320.427 744.502 318.837 744.152 317.317C743.882 315.677 743.482 314.307 742.962 313.197C742.432 311.987 741.862 311.087 741.252 310.487C740.722 309.797 740.212 309.557 739.742 309.787C737.782 310.517 736.132 311.327 734.792 312.227C734.082 312.687 733.482 313.197 733.012 313.747C733.022 317.107 732.882 321.727 732.532 327.627C732.192 333.407 731.682 339.787 730.972 346.767C730.622 349.837 730.452 351.897 730.472 352.937C730.232 355.477 730.452 357.167 731.162 358.007C731.342 358.297 731.632 358.627 732.032 358.987C732.442 359.237 732.902 359.477 733.382 359.727C733.892 359.867 734.412 359.947 734.932 359.977C735.462 359.907 735.972 359.627 736.422 359.157C736.522 359.037 736.822 358.067 737.322 356.257C737.922 354.337 738.562 352.047 739.232 349.397C739.902 346.657 740.562 343.757 741.222 340.717C741.942 337.567 742.522 334.687 742.982 332.077C743.502 329.357 743.892 327.067 744.162 325.197C744.422 323.327 744.552 322.287 744.562 322.087ZM781.282 279.457C781.542 280.037 781.952 282.367 782.512 286.407C783.152 290.347 783.812 295.217 784.482 301.027C785.192 306.737 785.812 312.897 786.312 319.497C786.622 326.007 786.512 332.187 785.792 338.017C784.452 343.767 782.662 348.667 780.792 352.757C778.912 356.727 777.632 359.037 777.002 359.657C775.392 361.347 773.562 362.427 771.522 362.937C769.552 363.337 768.132 363.497 767.262 363.407C767.012 363.337 767.102 362.267 767.492 360.197C767.842 358.137 768.362 355.377 768.982 351.917C769.582 348.447 770.152 344.487 770.622 340.017C770.882 335.557 771.012 330.987 771.012 326.317C770.872 321.537 770.632 316.867 770.302 312.287C769.902 307.607 769.532 303.357 769.222 299.557C768.892 295.747 768.652 292.547 768.502 289.927C768.352 287.307 768.322 285.647 768.432 284.937C768.622 283.507 769.302 282.237 770.452 281.087C771.592 279.957 772.882 279.127 774.312 278.597C775.742 277.957 777.102 277.727 778.392 277.897C779.762 277.957 780.732 278.477 781.282 279.457ZM773.822 372.577C773.872 373.217 773.562 374.197 772.882 375.487C772.342 376.667 771.632 377.967 770.722 379.387C769.972 380.697 769.082 382.017 768.072 383.367C767.202 384.597 766.382 385.657 765.612 386.507C765.022 387.157 764.352 387.727 763.612 388.217C762.882 388.707 762.162 389.067 761.492 389.267C760.772 389.587 760.142 389.797 759.582 389.897C759.042 389.997 758.602 390.077 758.292 390.137C757.872 390.117 757.542 389.757 757.302 389.047C757.142 388.327 757.072 387.447 757.092 386.407C757.222 385.237 757.442 384.017 757.762 382.727C758.102 381.357 758.622 380.037 759.302 378.787C759.962 377.637 761.042 376.517 762.562 375.447C764.152 374.277 765.752 373.347 767.362 372.667C769.092 371.977 770.572 371.597 771.812 371.547C773.182 371.387 773.852 371.727 773.822 372.577Z" fill="#D9D9D9"/>
</g>
<rect x="620" y="64" width="40" height="67" rx="5" fill="#BC5151"/>
<rect x="516" y="112" width="40" height="51.4019" rx="5" transform="rotate(-30 516 112)" fill="#BC5151"/>
<rect width="40" height="51.4019" rx="5" transform="matrix(-0.866025 -0.5 -0.5 0.866025 764.342 112)" fill="#BC5151"/>
<circle cx="640" cy="71" r="48" stroke="#BC5151" stroke-width="10"/>
<g filter="url(#filter5_i_365_212)">
<rect x="612" y="54" width="56" height="34" rx="5" fill="#D96B6B"/>
</g>
<rect x="608" y="50" width="64" height="42" rx="9" stroke="#BC5151" stroke-width="8"/>
<defs>
<filter id="filter0_ii_365_212" x="0" y="0" width="1280" height="196" filterUnits="userSpaceOnUse" color-interpolation-filters="sRGB">
<feFlood flood-opacity="0" result="BackgroundImageFix"/>
<feBlend mode="normal" in="SourceGraphic" in2="BackgroundImageFix" result="shape"/>
<feColorMatrix in="SourceAlpha" type="matrix" values="0 0 0 0 0 0 0 0 0 0 0 0 0 0 0 0 0 0 127 0" result="hardAlpha"/>
<feOffset dy="-30"/>
<feComposite in2="hardAlpha" operator="arithmetic" k2="-1" k3="1"/>
<feColorMatrix type="matrix" values="0 0 0 0 0.101961 0 0 0 0 0.0862745 0 0 0 0 0.0862745 0 0 0 1 0"/>
<feBlend mode="normal" in2="shape" result="effect1_innerShadow_365_212"/>
<feColorMatrix in="SourceAlpha" type="matrix" values="0 0 0 0 0 0 0 0 0 0 0 0 0 0 0 0 0 0 127 0" result="hardAlpha"/>
<feOffset dy="30"/>
<feComposite in2="hardAlpha" operator="arithmetic" k2="-1" k3="1"/>
<feColorMatrix type="matrix" values="0 0 0 0 0.179167 0 0 0 0 0.179167 0 0 0 0 0.179167 0 0 0 1 0"/>
<feBlend mode="normal" in2="effect1_innerShadow_365_212" result="effect2_innerShadow_365_212"/>
</filter>
<filter id="filter1_i_365_212" x="458" y="0" width="364" height="521" filterUnits="userSpaceOnUse" color-interpolation-filters="sRGB">
<feFlood flood-opacity="0" result="BackgroundImageFix"/>
<feBlend mode="normal" in="SourceGraphic" in2="BackgroundImageFix" result="shape"/>
<feColorMatrix in="SourceAlpha" type="matrix" values="0 0 0 0 0 0 0 0 0 0 0 0 0 0 0 0 0 0 127 0" result="hardAlpha"/>
<feOffset dy="-30"/>
<feComposite in2="hardAlpha" operator="arithmetic" k2="-1" k3="1"/>
<feColorMatrix type="matrix" values="0 0 0 0 0.101961 0 0 0 0 0.0862745 0 0 0 0 0.0862745 0 0 0 1 0"/>
<feBlend mode="normal" in2="shape" result="effect1_innerShadow_365_212"/>
</filter>
<filter id="filter2_i_365_212" x="475" y="116" width="330" height="330" filterUnits="userSpaceOnUse" color-interpolation-filters="sRGB">
<feFlood flood-opacity="0" result="BackgroundImageFix"/>
<feBlend mode="normal" in="SourceGraphic" in2="BackgroundImageFix" result="shape"/>
<feColorMatrix in="SourceAlpha" type="matrix" values="0 0 0 0 0 0 0 0 0 0 0 0 0 0 0 0 0 0 127 0" result="hardAlpha"/>
<feOffset dx="-10" dy="40"/>
<feComposite in2="hardAlpha" operator="arithmetic" k2="-1" k3="1"/>
<feColorMatrix type="matrix" values="0 0 0 0 1 0 0 0 0 1 0 0 0 0 1 0 0 0 0.45 0"/>
<feBlend mode="normal" in2="shape" result="effect1_innerShadow_365_212"/>
</filter>
<filter id="filter3_i_365_212" x="601" y="274" width="77" height="77" filterUnits="userSpaceOnUse" color-interpolation-filters="sRGB">
<feFlood flood-opacity="0" result="BackgroundImageFix"/>
<feBlend mode="normal" in="SourceGraphic" in2="BackgroundImageFix" result="shape"/>
<feColorMatrix in="SourceAlpha" type="matrix" values="0 0 0 0 0 0 0 0 0 0 0 0 0 0 0 0 0 0 127 0" result="hardAlpha"/>
<feOffset dy="-45"/>
<feComposite in2="hardAlpha" operator="arithmetic" k2="-1" k3="1"/>
<feColorMatrix type="matrix" values="0 0 0 0 0.145098 0 0 0 0 0.109804 0 0 0 0 0.109804 0 0 0 0.45 0"/>
<feBlend mode="normal" in2="shape" result="effect1_innerShadow_365_212"/>
</filter>
<filter id="filter4_i_365_212" x="494" y="274" width="292.476" height="148.458" filterUnits="userSpaceOnUse" color-interpolation-filters="sRGB">
<feFlood flood-opacity="0" result="BackgroundImageFix"/>
<feBlend mode="normal" in="SourceGraphic" in2="BackgroundImageFix" result="shape"/>
<feColorMatrix in="SourceAlpha" type="matrix" values="0 0 0 0 0 0 0 0 0 0 0 0 0 0 0 0 0 0 127 0" result="hardAlpha"/>
<feOffset dy="-6"/>
<feComposite in2="hardAlpha" operator="arithmetic" k2="-1" k3="1"/>
<feColorMatrix type="matrix" values="0 0 0 0 0.145833 0 0 0 0 0.111198 0 0 0 0 0.111198 0 0 0 0.45 0"/>
<feBlend mode="normal" in2="shape" result="effect1_innerShadow_365_212"/>
</filter>
<filter id="filter5_i_365_212" x="604" y="46" width="72" height="50" filterUnits="userSpaceOnUse" color-interpolation-filters="sRGB">
<feFlood flood-opacity="0" result="BackgroundImageFix"/>
<feBlend mode="normal" in="SourceGraphic" in2="BackgroundImageFix" result="shape"/>
<feColorMatrix in="SourceAlpha" type="matrix" values="0 0 0 0 0 0 0 0 0 0 0 0 0 0 0 0 0 0 127 0" result="hardAlpha"/>
<feOffset dx="-10" dy="18"/>
<feComposite in2="hardAlpha" operator="arithmetic" k2="-1" k3="1"/>
<feColorMatrix type="matrix" values="0 0 0 0 1 0 0 0 0 1 0 0 0 0 1 0 0 0 0.45 0"/>
<feBlend mode="normal" in2="shape" result="effect1_innerShadow_365_212"/>
</filter>
</defs>
</svg>
