<svg width="292" height="97" viewBox="0 0 292 97" fill="none" xmlns="http://www.w3.org/2000/svg">
<path d="M109.898 89.7794L108.512 84.8639L184.034 85.1456L182.611 90.0506L109.898 89.7794Z" fill="#222222" stroke="#1A1616" stroke-width="7"/>
<path d="M98.6777 87.824L97.374 84.8112L195.609 85.1776L194.283 88.1806L98.6777 87.824Z" fill="#222222" stroke="#1A1616" stroke-width="7"/>
<path d="M36.4963 89L27.5601 5H265.44L256.504 89H36.4963Z" fill="#222222" stroke="#1A1616" stroke-width="10"/>
<path d="M4.31863 7.5219L9.36125 5.17862L20.7571 90.4218L15.2761 89.4854L4.31863 7.5219Z" fill="#222222" stroke="#1A1616" stroke-width="7"/>
<path d="M287.538 7.5219L282.495 5.17862L271.099 90.4218L276.58 89.4854L287.538 7.5219Z" fill="#222222" stroke="#1A1616" stroke-width="7"/>
<path d="M80.408 52.64H80.808C81.4746 52.9867 82.2746 53.32 83.208 53.64C84.1413 53.96 85.1546 54.2267 86.248 54.44C87.368 54.6267 88.488 54.72 89.608 54.72C90.7813 54.72 91.7546 54.64 92.528 54.48C93.328 54.32 93.928 54.0667 94.328 53.72C94.7546 53.3467 94.968 52.8533 94.968 52.24C94.968 51.4667 94.7013 50.8933 94.168 50.52C93.6613 50.1467 92.7413 49.8533 91.408 49.64L88.768 49.24C86.7946 48.9467 85.1146 48.44 83.728 47.72C82.368 47 81.3413 46.0533 80.648 44.88C79.9546 43.68 79.608 42.24 79.608 40.56C79.608 38.5067 80.088 36.7467 81.048 35.28C82.0346 33.8133 83.528 32.6933 85.528 31.92C87.528 31.12 90.088 30.72 93.208 30.72C94.5946 30.72 95.928 30.84 97.208 31.08C98.488 31.2933 99.5546 31.5867 100.408 31.96V38H99.968C99.168 37.6267 98.1413 37.28 96.888 36.96C95.6346 36.64 94.2346 36.48 92.688 36.48C91.3546 36.48 90.2213 36.6133 89.288 36.88C88.3813 37.1467 87.688 37.56 87.208 38.12C86.728 38.6533 86.488 39.3333 86.488 40.16C86.488 41.2267 86.8346 41.9867 87.528 42.44C88.2213 42.8933 89.3413 43.2533 90.888 43.52L93.408 43.92C94.9813 44.16 96.408 44.5867 97.688 45.2C98.9946 45.8133 100.021 46.6667 100.768 47.76C101.541 48.8533 101.928 50.2933 101.928 52.08C101.928 53.6 101.608 54.9067 100.968 56C100.328 57.0667 99.4346 57.9333 98.288 58.6C97.168 59.24 95.8613 59.7067 94.368 60C92.9013 60.32 91.3146 60.48 89.608 60.48C88.408 60.48 87.2213 60.4 86.048 60.24C84.9013 60.1067 83.8346 59.92 82.848 59.68C81.8613 59.44 81.048 59.1867 80.408 58.92V52.64ZM104.044 31.2H127.884V37.36H119.484V60H112.404V37.36H104.044V31.2ZM131.438 31.2H138.518V48.4C138.518 50.4 138.891 51.92 139.638 52.96C140.411 53.9733 141.718 54.48 143.558 54.48C145.424 54.48 146.744 53.9733 147.518 52.96C148.318 51.92 148.718 50.4 148.718 48.4V31.2H155.798V48.04C155.798 52.12 154.798 55.2133 152.798 57.32C150.824 59.4267 147.744 60.48 143.558 60.48C139.318 60.48 136.238 59.4267 134.318 57.32C132.398 55.2133 131.438 52.12 131.438 48.04V31.2ZM165.556 60V53.84H171.956C173.422 53.84 174.676 53.6 175.716 53.12C176.756 52.6133 177.609 51.92 178.276 51.04C178.942 50.16 179.436 49.1467 179.756 48C180.076 46.8533 180.236 45.6267 180.236 44.32C180.236 42.1067 179.649 40.4 178.476 39.2C177.329 37.9733 175.436 37.36 172.796 37.36H165.556V31.2H172.796C177.649 31.2 181.302 32.3333 183.756 34.6C186.236 36.84 187.476 40.0533 187.476 44.24C187.476 46.3467 187.169 48.3467 186.556 50.24C185.969 52.1333 185.036 53.8133 183.756 55.28C182.502 56.7467 180.876 57.9067 178.876 58.76C176.876 59.5867 174.449 60 171.596 60H165.556ZM161.716 60V31.2H168.836V60H161.716ZM197.063 60V48.04L187.623 31.64V31.2H195.103L202.223 44.36L199.623 44.4L206.303 31.2H213.703V31.64L204.143 48V60H197.063Z" fill="#CECECE"/>
</svg>
