<svg width="22" height="22" viewBox="0 0 22 22" fill="none" xmlns="http://www.w3.org/2000/svg">
<path d="M0 5C0 2.23858 2.23858 0 5 0H17C19.7614 0 22 2.23858 22 5V17C22 19.7614 19.7614 22 17 22H5C2.23858 22 0 19.7614 0 17V5Z" fill="#BC5151"/>
<path d="M9 6C9 5.44772 9.44772 5 10 5H12C12.5523 5 13 5.44772 13 6V16C13 16.5523 12.5523 17 12 17H10C9.44772 17 9 16.5523 9 16V6Z" fill="white"/>
<path d="M16 9C16.5523 9 17 9.44772 17 10V12C17 12.5523 16.5523 13 16 13H6C5.44772 13 5 12.5523 5 12V10C5 9.44772 5.44772 9 6 9H16Z" fill="white"/>
</svg>
