<svg width="1280" height="283" viewBox="0 0 1280 283" fill="none" xmlns="http://www.w3.org/2000/svg">
<g filter="url(#filter0_ii_432_268)">
<path d="M0 0H1280V196L640 88L0 196V0Z" fill="#222222"/>
</g>
<g filter="url(#filter1_i_432_268)">
<path d="M1070 0H1214V202.417L1142 283L1070 202.417V0Z" fill="#222222"/>
</g>
<mask id="mask0_432_268" style="mask-type:alpha" maskUnits="userSpaceOnUse" x="1085" y="78" width="115" height="70">
<mask id="path-3-inside-1_432_268" fill="white">
<path fill-rule="evenodd" clip-rule="evenodd" d="M1197.33 147.119C1198.81 142.379 1199.6 137.367 1199.6 132.183C1199.6 102.668 1173.94 78.7412 1142.3 78.7412C1110.65 78.7412 1085 102.668 1085 132.183C1085 135.197 1085.27 138.154 1085.78 141.032C1089.08 138.831 1089.02 138.656 1088.3 136.714C1088.25 136.565 1088.19 136.404 1088.13 136.232C1087.26 133.803 1088.65 123.762 1092.81 126.029C1093.69 126.506 1094.98 127.026 1096.47 127.625C1102.06 129.874 1110.41 133.239 1110 139.633C1112.42 141.196 1112.3 140.104 1112.14 138.756C1112.01 137.59 1111.85 136.232 1113.3 136.232C1114.78 136.232 1116.44 137.745 1117.81 138.987C1119.34 140.378 1120.5 141.429 1120.59 139.633C1120.6 139.506 1120.61 139.377 1120.61 139.246C1120.78 135.874 1121.01 131.307 1122.85 129.592C1123 129.449 1123.17 129.29 1123.35 129.121C1125.38 127.189 1128.8 123.938 1129.28 127.811C1129.44 129.1 1129.4 131.407 1129.36 133.773C1129.28 139.134 1129.19 144.801 1131.36 139.633C1134.48 132.183 1136.57 138.985 1136.74 141.09C1136.92 143.195 1137.61 144.815 1140.56 142.224C1143.51 139.633 1146.81 138.985 1148.03 141.09C1148.48 141.877 1148.82 143.183 1149.11 144.334C1149.6 146.263 1149.98 147.755 1150.63 145.624C1150.95 144.595 1151.09 142.573 1151.25 140.297C1151.61 135.052 1152.07 128.463 1154.97 129.592C1156.15 130.048 1156.96 130.671 1157.62 131.172C1159.29 132.449 1159.92 132.929 1162.79 127.811C1165.02 123.826 1165.52 127.235 1166.07 131.014C1166.5 133.994 1166.97 137.203 1168.34 137.203C1169.79 137.203 1169.97 135.41 1170.13 133.892C1170.31 132.121 1170.45 130.726 1172.51 132.993C1174.76 135.472 1174.6 136.604 1174.76 136.652C1174.88 136.686 1175.15 136.192 1176.5 135.26C1178.46 133.915 1180.36 135.534 1181.68 136.668C1182.59 137.445 1183.24 137.994 1183.45 137.203C1183.61 136.6 1183.89 136.168 1184.18 135.724C1184.81 134.738 1185.49 133.69 1185.01 130.564C1184.32 126.029 1191.26 126.029 1192.48 127.811C1193.69 129.592 1196.99 142.224 1197.17 146.92C1197.22 146.983 1197.27 147.049 1197.33 147.119Z"/>
</mask>
<path fill-rule="evenodd" clip-rule="evenodd" d="M1197.33 147.119C1198.81 142.379 1199.6 137.367 1199.6 132.183C1199.6 102.668 1173.94 78.7412 1142.3 78.7412C1110.65 78.7412 1085 102.668 1085 132.183C1085 135.197 1085.27 138.154 1085.78 141.032C1089.08 138.831 1089.02 138.656 1088.3 136.714C1088.25 136.565 1088.19 136.404 1088.13 136.232C1087.26 133.803 1088.65 123.762 1092.81 126.029C1093.69 126.506 1094.98 127.026 1096.47 127.625C1102.06 129.874 1110.41 133.239 1110 139.633C1112.42 141.196 1112.3 140.104 1112.14 138.756C1112.01 137.59 1111.85 136.232 1113.3 136.232C1114.78 136.232 1116.44 137.745 1117.81 138.987C1119.34 140.378 1120.5 141.429 1120.59 139.633C1120.6 139.506 1120.61 139.377 1120.61 139.246C1120.78 135.874 1121.01 131.307 1122.85 129.592C1123 129.449 1123.17 129.29 1123.35 129.121C1125.38 127.189 1128.8 123.938 1129.28 127.811C1129.44 129.1 1129.4 131.407 1129.36 133.773C1129.28 139.134 1129.19 144.801 1131.36 139.633C1134.48 132.183 1136.57 138.985 1136.74 141.09C1136.92 143.195 1137.61 144.815 1140.56 142.224C1143.51 139.633 1146.81 138.985 1148.03 141.09C1148.48 141.877 1148.82 143.183 1149.11 144.334C1149.6 146.263 1149.98 147.755 1150.63 145.624C1150.95 144.595 1151.09 142.573 1151.25 140.297C1151.61 135.052 1152.07 128.463 1154.97 129.592C1156.15 130.048 1156.96 130.671 1157.62 131.172C1159.29 132.449 1159.92 132.929 1162.79 127.811C1165.02 123.826 1165.52 127.235 1166.07 131.014C1166.5 133.994 1166.97 137.203 1168.34 137.203C1169.79 137.203 1169.97 135.41 1170.13 133.892C1170.31 132.121 1170.45 130.726 1172.51 132.993C1174.76 135.472 1174.6 136.604 1174.76 136.652C1174.88 136.686 1175.15 136.192 1176.5 135.26C1178.46 133.915 1180.36 135.534 1181.68 136.668C1182.59 137.445 1183.24 137.994 1183.45 137.203C1183.61 136.6 1183.89 136.168 1184.18 135.724C1184.81 134.738 1185.49 133.69 1185.01 130.564C1184.32 126.029 1191.26 126.029 1192.48 127.811C1193.69 129.592 1196.99 142.224 1197.17 146.92C1197.22 146.983 1197.27 147.049 1197.33 147.119Z" fill="#D96B6B"/>
<path d="M1197.33 147.119L1181.7 159.604L1205.22 189.035L1216.42 153.067L1197.33 147.119ZM1085.78 141.032L1066.09 144.549L1071.47 174.628L1096.88 157.668L1085.78 141.032ZM1088.3 136.714L1107.07 129.802L1107.07 129.802L1088.3 136.714ZM1088.13 136.232L1069.29 142.962L1069.29 142.962L1088.13 136.232ZM1092.81 126.029L1102.37 108.461H1102.37L1092.81 126.029ZM1096.47 127.625L1089 146.178L1089 146.178L1096.47 127.625ZM1110 139.633L1090.04 138.349L1089.29 150.065L1099.15 156.434L1110 139.633ZM1112.14 138.756L1132.01 136.47V136.47L1112.14 138.756ZM1117.81 138.987L1104.37 153.797L1104.37 153.797L1117.81 138.987ZM1120.59 139.633L1140.57 140.652L1140.57 140.652L1120.59 139.633ZM1120.61 139.246L1140.59 140.25L1140.59 140.25L1120.61 139.246ZM1122.85 129.592L1136.49 144.218L1136.49 144.218L1122.85 129.592ZM1123.35 129.121L1137.14 143.611L1137.14 143.611L1123.35 129.121ZM1129.28 127.811L1149.12 125.355V125.355L1129.28 127.811ZM1129.36 133.773L1109.37 133.462V133.462L1129.36 133.773ZM1131.36 139.633L1112.92 131.895L1112.92 131.895L1131.36 139.633ZM1136.74 141.09L1156.67 139.446V139.446L1136.74 141.09ZM1140.56 142.224L1153.76 157.254L1153.76 157.254L1140.56 142.224ZM1148.03 141.09L1165.35 131.09L1165.35 131.09L1148.03 141.09ZM1149.11 144.334L1168.49 139.396L1168.49 139.395L1149.11 144.334ZM1150.63 145.624L1131.51 139.767L1131.51 139.767L1150.63 145.624ZM1151.25 140.297L1171.2 141.681V141.681L1151.25 140.297ZM1154.97 129.592L1162.22 110.95L1162.22 110.95L1154.97 129.592ZM1157.62 131.172L1169.76 115.28L1169.76 115.28L1157.62 131.172ZM1162.79 127.811L1180.23 137.589V137.589L1162.79 127.811ZM1166.07 131.014L1185.86 128.136V128.136L1166.07 131.014ZM1170.13 133.892L1190.02 135.943L1190.02 135.943L1170.13 133.892ZM1172.51 132.993L1187.32 119.555L1187.32 119.555L1172.51 132.993ZM1174.76 136.652L1169.07 155.824L1169.07 155.824L1174.76 136.652ZM1176.5 135.26L1165.18 118.777L1165.18 118.777L1176.5 135.26ZM1181.68 136.668L1194.67 121.46L1194.67 121.46L1181.68 136.668ZM1183.45 137.203L1202.77 142.381L1202.77 142.381L1183.45 137.203ZM1184.18 135.724L1167.38 124.871L1167.38 124.871L1184.18 135.724ZM1185.01 130.564L1204.78 127.536L1204.78 127.536L1185.01 130.564ZM1192.48 127.811L1209 116.539L1209 116.539L1192.48 127.811ZM1197.17 146.92L1177.18 147.659L1177.43 154.526L1181.85 159.787L1197.17 146.92ZM1179.6 132.183C1179.6 135.318 1179.12 138.326 1178.23 141.172L1216.42 153.067C1218.49 146.432 1219.6 139.416 1219.6 132.183H1179.6ZM1142.3 98.7412C1164.23 98.7412 1179.6 115.003 1179.6 132.183H1219.6C1219.6 90.3326 1183.65 58.7412 1142.3 58.7412V98.7412ZM1105 132.183C1105 115.003 1120.36 98.7412 1142.3 98.7412V58.7412C1100.94 58.7412 1065 90.3326 1065 132.183H1105ZM1105.47 137.514C1105.16 135.79 1105 134.011 1105 132.183H1065C1065 136.384 1065.37 140.517 1066.09 144.549L1105.47 137.514ZM1069.53 143.627C1069.95 144.77 1069.28 143.166 1068.96 141.251C1068.73 139.948 1068.55 138.011 1068.87 135.691C1069.19 133.282 1069.96 131.083 1071 129.183C1072.81 125.871 1075.1 124.14 1075.2 124.065C1075.5 123.822 1075.56 123.811 1074.68 124.396L1096.88 157.668C1097.66 157.152 1098.94 156.293 1100.14 155.338C1101.13 154.55 1103.98 152.242 1106.1 148.368C1108.83 143.374 1109.04 138.362 1108.39 134.546C1108.13 133.002 1107.75 131.776 1107.54 131.149C1107.34 130.534 1107.12 129.948 1107.07 129.802L1069.53 143.627ZM1069.29 142.962C1069.39 143.239 1069.48 143.486 1069.53 143.627L1107.07 129.802C1107.01 129.643 1106.98 129.57 1106.96 129.501L1069.29 142.962ZM1102.37 108.461C1098.84 106.54 1094.04 105.132 1088.54 105.919C1083.14 106.694 1079.11 109.301 1076.5 111.752C1071.93 116.054 1070.13 121.274 1069.43 123.619C1068.54 126.582 1068.09 129.556 1067.94 132.122C1067.84 133.867 1067.65 138.358 1069.29 142.962L1106.96 129.501C1107.72 131.634 1107.83 133.246 1107.85 133.536C1107.89 134.08 1107.88 134.397 1107.87 134.466C1107.87 134.537 1107.87 134.686 1107.74 135.12C1107.66 135.36 1107.47 135.977 1107.03 136.822C1106.63 137.589 1105.7 139.209 1103.9 140.898C1101.99 142.689 1098.75 144.865 1094.22 145.515C1089.59 146.177 1085.74 144.952 1083.26 143.597L1102.37 108.461ZM1103.94 109.072C1103.14 108.752 1102.66 108.556 1102.28 108.392C1102.19 108.357 1102.13 108.33 1102.09 108.31C1102.06 108.3 1102.05 108.292 1102.04 108.287C1102.02 108.282 1102.02 108.279 1102.02 108.279C1102.02 108.28 1102.03 108.283 1102.04 108.289C1102.05 108.296 1102.07 108.306 1102.1 108.32C1102.16 108.347 1102.25 108.394 1102.37 108.461L1083.26 143.597C1085.39 144.761 1087.98 145.769 1089 146.178L1103.94 109.072ZM1129.96 140.916C1130.84 127.275 1121.81 119.101 1116.98 115.707C1112.02 112.224 1106.29 110.017 1103.94 109.072L1089 146.178C1090.46 146.766 1091.53 147.202 1092.52 147.664C1092.98 147.882 1093.34 148.064 1093.61 148.212C1093.88 148.363 1093.99 148.443 1093.99 148.442C1093.99 148.439 1093.94 148.404 1093.85 148.336C1093.77 148.268 1093.64 148.156 1093.47 147.997C1093.16 147.688 1092.63 147.128 1092.08 146.281C1091.52 145.416 1090.93 144.253 1090.52 142.81C1090.11 141.342 1089.95 139.822 1090.04 138.349L1129.96 140.916ZM1092.27 141.042C1092.36 141.792 1092.2 140.68 1092.22 139.365C1092.22 139.173 1091.99 131.912 1098.06 125.979C1105.82 118.405 1115.02 120.564 1117.05 121.165C1118.46 121.583 1119.47 122.071 1119.94 122.31C1120.45 122.574 1120.77 122.779 1120.85 122.831L1099.15 156.434C1100.21 157.115 1102.59 158.6 1105.71 159.524C1108.4 160.318 1118.01 162.414 1126.01 154.593C1132.34 148.414 1132.2 140.725 1132.21 139.998C1132.23 138.895 1132.16 137.989 1132.12 137.512C1132.08 137.028 1132.02 136.579 1132.01 136.47L1092.27 141.042ZM1113.3 116.232C1109.84 116.232 1104.84 117.074 1100.21 120.678C1095.57 124.287 1093.58 128.892 1092.76 132.056C1092 135.003 1092.04 137.487 1092.08 138.616C1092.12 139.815 1092.26 140.899 1092.27 141.043L1132.01 136.47C1131.96 136.03 1132.03 136.507 1132.05 137.123C1132.07 137.67 1132.13 139.595 1131.49 142.057C1130.8 144.736 1129.04 148.928 1124.77 152.247C1120.52 155.559 1116.04 156.232 1113.3 156.232V116.232ZM1131.25 124.177C1130.77 123.743 1129.03 122.113 1126.97 120.69C1125.35 119.57 1120.33 116.232 1113.3 116.232V156.232C1110.29 156.232 1107.99 155.472 1106.71 154.934C1105.41 154.392 1104.56 153.827 1104.23 153.597C1103.71 153.242 1103.48 152.989 1104.37 153.797L1131.25 124.177ZM1100.62 138.613C1100.66 137.864 1100.79 136.26 1101.4 134.271C1102 132.332 1103.44 128.826 1106.87 125.697C1115.61 117.742 1125.51 121.215 1127.65 122.135C1129.1 122.758 1130.11 123.416 1130.57 123.727C1131.08 124.074 1131.43 124.35 1131.54 124.442C1131.69 124.571 1131.75 124.626 1131.25 124.177L1104.37 153.797C1104.64 154.044 1105.41 154.752 1106.22 155.413C1106.75 155.845 1108.86 157.594 1111.84 158.875C1114.47 160.008 1124.77 163.494 1133.8 155.273C1137.38 152.012 1138.93 148.304 1139.62 146.085C1140.32 143.814 1140.51 141.851 1140.57 140.652L1100.62 138.613ZM1100.64 138.242C1100.63 138.375 1100.63 138.495 1100.62 138.613L1140.57 140.652C1140.58 140.516 1140.58 140.379 1140.59 140.25L1100.64 138.242ZM1109.21 114.966C1103.04 120.718 1101.76 128.319 1101.4 130.379C1100.85 133.569 1100.71 136.802 1100.64 138.242L1140.59 140.25C1140.63 139.367 1140.67 138.737 1140.71 138.146C1140.76 137.556 1140.8 137.279 1140.81 137.216C1140.83 137.09 1140.75 137.675 1140.37 138.642C1140.04 139.496 1139.01 141.873 1136.49 144.218L1109.21 114.966ZM1109.56 114.632C1109.37 114.818 1109.28 114.904 1109.21 114.966L1136.49 144.218C1136.73 143.994 1136.98 143.762 1137.14 143.611L1109.56 114.632ZM1149.12 125.355C1148.77 122.455 1147.06 113.058 1137.38 108.22C1128.2 103.632 1120.03 107.382 1118.12 108.317C1113.55 110.548 1109.73 114.474 1109.56 114.632L1137.14 143.611C1137.4 143.356 1137.57 143.198 1137.73 143.054C1137.88 142.915 1137.94 142.861 1137.94 142.862C1137.94 142.865 1137.9 142.895 1137.83 142.946C1137.77 142.996 1137.66 143.08 1137.51 143.188C1137.25 143.37 1136.62 143.799 1135.67 144.261C1134.92 144.626 1127.83 148.168 1119.49 144C1110.65 139.581 1109.55 131.23 1109.43 130.266L1149.12 125.355ZM1149.36 134.084C1149.38 132.502 1149.5 128.392 1149.12 125.355L1109.43 130.266C1109.38 129.852 1109.37 129.653 1109.38 129.804C1109.38 129.916 1109.39 130.14 1109.39 130.511C1109.4 131.285 1109.38 132.223 1109.37 133.462L1149.36 134.084ZM1112.92 131.895C1112.82 132.126 1113.06 131.493 1113.67 130.515C1113.97 130.023 1114.66 128.983 1115.76 127.801C1116.72 126.783 1119.1 124.437 1123.04 122.946C1127.78 121.154 1133.73 121.047 1139.24 123.947C1143.87 126.388 1146.2 129.93 1147.12 131.55C1148.88 134.63 1149.24 137.327 1149.25 137.384C1149.38 138.205 1149.3 137.83 1149.36 134.084L1109.37 133.462C1109.34 135.078 1109.17 140.217 1109.79 143.919C1109.91 144.696 1110.43 147.949 1112.38 151.377C1113.41 153.17 1115.84 156.834 1120.6 159.34C1126.23 162.304 1132.32 162.204 1137.2 160.356C1141.29 158.81 1143.83 156.345 1144.96 155.14C1146.24 153.77 1147.12 152.475 1147.63 151.654C1148.65 150.018 1149.36 148.431 1149.8 147.37L1112.92 131.895ZM1156.67 139.446C1156.48 137.083 1155.93 134.708 1155.27 132.683C1154.73 131.049 1153.3 127.024 1149.99 123.366C1148.22 121.401 1144.77 118.29 1139.4 116.901C1133.36 115.342 1127.64 116.65 1123.31 119.206C1116.63 123.161 1113.84 129.684 1112.92 131.895L1149.8 147.37C1149.87 147.207 1149.65 147.796 1149.01 148.735C1148.46 149.535 1146.82 151.775 1143.68 153.637C1139.99 155.816 1134.86 157.045 1129.38 155.628C1124.57 154.383 1121.63 151.639 1120.32 150.19C1118.94 148.667 1118.21 147.306 1117.9 146.696C1117.55 145.996 1117.36 145.459 1117.27 145.17C1117.14 144.78 1116.92 144.044 1116.81 142.734L1156.67 139.446ZM1127.37 127.193C1127.41 127.159 1128.95 125.74 1131.77 124.691C1135.04 123.474 1141.49 122.36 1148.02 126.343C1153.61 129.752 1155.48 134.709 1155.97 136.201C1156.57 138.008 1156.67 139.34 1156.67 139.446L1116.81 142.734C1116.91 143.893 1117.15 146.216 1118.02 148.838C1118.79 151.145 1121.04 156.74 1127.2 160.493C1134.29 164.82 1141.48 163.756 1145.72 162.181C1149.51 160.772 1152.24 158.584 1153.76 157.254L1127.37 127.193ZM1165.35 131.09C1159.25 120.534 1148.29 119.071 1141.68 120.164C1135.56 121.177 1130.68 124.286 1127.37 127.193L1153.76 157.254C1153.4 157.57 1151.64 159.059 1148.21 159.627C1146.38 159.931 1143.33 160.071 1139.82 158.771C1136 157.358 1132.75 154.632 1130.71 151.09L1165.35 131.09ZM1168.49 139.395C1168.49 139.387 1167.51 134.834 1165.35 131.09L1130.71 151.09C1130.19 150.189 1129.89 149.474 1129.76 149.145C1129.61 148.784 1129.54 148.547 1129.53 148.507C1129.51 148.457 1129.52 148.483 1129.56 148.633C1129.6 148.789 1129.65 148.966 1129.73 149.272L1168.49 139.395ZM1131.51 139.767C1131.57 139.554 1131.8 138.823 1132.25 137.853C1132.55 137.216 1133.73 134.663 1136.34 132.16C1139.43 129.194 1146.34 124.911 1155.3 127.379C1162.2 129.28 1165.57 134.118 1166.31 135.205C1167.45 136.862 1168.03 138.278 1168.2 138.715C1168.43 139.3 1168.56 139.724 1168.6 139.828C1168.64 139.98 1168.65 140.014 1168.49 139.396L1129.73 149.272C1129.82 149.618 1130.05 150.562 1130.33 151.47C1130.4 151.7 1131.24 154.781 1133.31 157.798C1134.17 159.059 1137.66 164.008 1144.68 165.943C1153.77 168.446 1160.81 164.121 1164.03 161.025C1166.78 158.393 1168.1 155.622 1168.55 154.667C1169.14 153.378 1169.53 152.228 1169.76 151.482L1131.51 139.767ZM1131.29 138.912C1131.25 139.496 1131.22 139.975 1131.19 140.416C1131.15 140.856 1131.13 141.166 1131.1 141.388C1131.09 141.493 1131.08 141.554 1131.08 141.578C1131.08 141.604 1131.08 141.566 1131.1 141.478C1131.11 141.394 1131.14 141.211 1131.2 140.955C1131.25 140.708 1131.35 140.293 1131.51 139.767L1169.76 151.482C1170.54 148.923 1170.79 146.434 1170.89 145.469C1171.03 144.155 1171.13 142.723 1171.2 141.681L1131.29 138.912ZM1162.22 110.95C1158.59 109.542 1153.77 108.791 1148.55 110.266C1143.48 111.7 1140.03 114.673 1137.94 117.139C1134.34 121.406 1133.13 126.139 1132.72 127.85C1131.71 132.011 1131.44 136.879 1131.29 138.912L1171.2 141.681C1171.29 140.307 1171.37 139.261 1171.47 138.326C1171.57 137.327 1171.64 137.065 1171.6 137.257C1171.57 137.377 1171.43 137.935 1171.09 138.747C1170.79 139.476 1170.04 141.13 1168.49 142.962C1166.86 144.887 1163.92 147.49 1159.43 148.759C1154.8 150.069 1150.63 149.36 1147.73 148.234L1162.22 110.95ZM1169.76 115.28C1169.03 114.719 1166.26 112.523 1162.22 110.95L1147.73 148.234C1146.03 147.573 1144.9 146.623 1145.48 147.064L1169.76 115.28ZM1145.34 118.033C1144.76 119.075 1144.68 119.11 1144.97 118.716C1144.99 118.695 1146.89 115.947 1150.85 113.979C1153.19 112.82 1156.06 112.009 1159.29 112.019C1162.42 112.029 1164.92 112.805 1166.58 113.511C1169.05 114.565 1170.88 116.134 1169.76 115.28L1145.48 147.064C1145.58 147.145 1146.2 147.626 1146.89 148.097C1147.59 148.576 1148.99 149.494 1150.87 150.299C1155.71 152.362 1162.24 152.989 1168.65 149.8C1173.34 147.472 1176.04 143.964 1177.03 142.633C1178.31 140.93 1179.38 139.106 1180.23 137.589L1145.34 118.033ZM1185.86 128.136C1185.74 127.342 1185.53 125.841 1185.24 124.415C1185.07 123.58 1184.41 120.069 1182.43 116.587C1181.42 114.828 1178.76 110.687 1173.38 108.079C1166.8 104.89 1160.1 105.807 1155.33 108.155C1151.42 110.079 1149.06 112.77 1148.03 114.029C1146.82 115.516 1145.94 116.965 1145.34 118.033L1180.23 137.589C1180.19 137.66 1179.81 138.344 1179.06 139.269C1178.49 139.967 1176.54 142.3 1173 144.042C1168.6 146.208 1162.22 147.12 1155.94 144.074C1150.85 141.609 1148.46 137.76 1147.69 136.415C1146.76 134.794 1146.35 133.479 1146.23 133.084C1146.15 132.807 1146.1 132.6 1146.07 132.487C1146.04 132.371 1146.03 132.305 1146.03 132.303C1146.03 132.299 1146.03 132.333 1146.05 132.413C1146.06 132.492 1146.08 132.6 1146.1 132.744C1146.15 133.051 1146.2 133.396 1146.27 133.893L1185.86 128.136ZM1168.34 117.203C1177.04 117.203 1182.07 122.651 1183.83 125.153C1185.47 127.484 1186 129.471 1186.05 129.62C1186.18 130.08 1186.14 130.093 1185.86 128.136L1146.27 133.893C1146.42 134.915 1146.83 138.023 1147.65 140.832C1148.04 142.156 1148.98 145.132 1151.11 148.157C1153.35 151.354 1158.95 157.203 1168.34 157.203V117.203ZM1150.23 131.841C1150.07 133.391 1150.15 131.283 1151.06 128.921C1151.62 127.461 1153.01 124.46 1156.15 121.75C1159.72 118.67 1164.13 117.203 1168.34 117.203V157.203C1173.27 157.203 1178.25 155.512 1182.27 152.049C1185.85 148.955 1187.57 145.411 1188.38 143.313C1189.21 141.162 1189.56 139.272 1189.73 138.251C1189.9 137.198 1189.99 136.218 1190.02 135.943L1150.23 131.841ZM1187.32 119.555C1186.47 118.616 1184.14 116.081 1180.59 114.218C1178.65 113.201 1175.13 111.728 1170.51 111.818C1165.32 111.918 1160.65 113.966 1157.17 117.12C1151.8 121.995 1150.79 128.188 1150.7 128.631C1150.38 130.179 1150.25 131.714 1150.23 131.841L1190.02 135.943C1190.1 135.184 1190.05 135.881 1189.87 136.74C1189.77 137.239 1189.5 138.439 1188.88 139.925C1188.3 141.31 1186.95 144.116 1184.06 146.736C1180.74 149.747 1176.26 151.714 1171.29 151.81C1166.9 151.895 1163.63 150.494 1162 149.637C1160.3 148.746 1159.17 147.813 1158.68 147.383C1158.13 146.899 1157.79 146.533 1157.7 146.431L1187.32 119.555ZM1180.46 117.481C1186.11 119.16 1189.41 122.785 1190.96 124.937C1191.75 126.032 1192.29 127.013 1192.63 127.694C1192.97 128.388 1193.21 128.977 1193.37 129.373C1193.65 130.11 1193.82 130.695 1193.86 130.805C1193.89 130.93 1193.94 131.092 1193.9 130.939C1193.75 130.407 1193.39 129.21 1192.75 127.725C1191.47 124.806 1189.64 122.109 1187.32 119.555L1157.7 146.431C1157.63 146.356 1156.85 145.465 1156.09 143.744C1155.71 142.858 1155.49 142.108 1155.42 141.879C1155.4 141.802 1155.46 142.03 1155.52 142.214C1155.57 142.381 1155.76 143.016 1156.06 143.793C1156.3 144.422 1157.03 146.276 1158.51 148.324C1160.08 150.5 1163.4 154.139 1169.07 155.824L1180.46 117.481ZM1165.18 118.777C1163.58 119.876 1162.39 120.883 1161.48 121.733C1161.3 121.906 1161.14 122.057 1161.11 122.086C1160.99 122.203 1161.24 121.963 1161.53 121.699C1161.64 121.598 1162.91 120.422 1164.8 119.329C1166.39 118.406 1172.52 115.121 1180.46 117.481L1169.07 155.824C1177.04 158.192 1183.19 154.899 1184.83 153.953C1186.76 152.835 1188.08 151.619 1188.25 151.462C1188.47 151.269 1188.64 151.109 1188.72 151.029C1188.81 150.948 1188.88 150.874 1188.9 150.858C1188.96 150.801 1188.91 150.848 1188.85 150.904C1188.45 151.282 1188.07 151.576 1187.83 151.743L1165.18 118.777ZM1194.67 121.46C1194.48 121.297 1191.38 118.435 1187.2 116.646C1181.7 114.297 1173.17 113.283 1165.18 118.777L1187.83 151.743C1185.36 153.44 1182.23 154.593 1178.78 154.736C1175.53 154.871 1172.99 154.074 1171.46 153.423C1169.05 152.39 1167.56 150.905 1168.7 151.876L1194.67 121.46ZM1164.13 132.025C1164.67 130.014 1166.95 123 1174.91 119.366C1182.71 115.807 1189.38 118.541 1191.04 119.288C1193.12 120.224 1194.47 121.305 1194.56 121.381C1194.83 121.583 1195 121.742 1194.67 121.46L1168.7 151.876C1168.82 151.982 1169.42 152.501 1170.07 153C1170.55 153.373 1172.24 154.687 1174.61 155.758C1176.57 156.641 1183.5 159.413 1191.51 155.759C1199.69 152.03 1202.12 144.788 1202.77 142.381L1164.13 132.025ZM1167.38 124.871C1167.15 125.221 1165.2 128.037 1164.13 132.025L1202.77 142.381C1202.02 145.163 1200.63 147.115 1200.98 146.578L1167.38 124.871ZM1165.24 133.592C1165.23 133.515 1164.96 131.765 1165.58 129.214C1166.26 126.44 1167.62 124.5 1167.38 124.871L1200.98 146.578C1201.37 145.963 1203.39 143.005 1204.44 138.679C1205.44 134.576 1205.27 130.739 1204.78 127.536L1165.24 133.592ZM1209 116.539C1204.33 109.693 1197.39 107.848 1195.03 107.325C1191.6 106.565 1187.89 106.484 1184.28 107.174C1180.83 107.832 1175.54 109.586 1171.13 114.282C1166.02 119.723 1164.21 126.879 1165.24 133.592L1204.78 127.536C1205.46 131.981 1204.26 137.436 1200.3 141.658C1197.03 145.135 1193.43 146.149 1191.78 146.463C1189.97 146.809 1188.18 146.779 1186.38 146.378C1185.44 146.171 1184.03 145.761 1182.41 144.902C1180.92 144.111 1178.21 142.39 1175.96 139.083L1209 116.539ZM1217.15 146.181C1216.98 141.497 1215.6 135.316 1214.61 131.392C1214.03 129.114 1213.39 126.798 1212.75 124.788C1212.43 123.798 1212.05 122.694 1211.63 121.619C1211.39 121.006 1210.52 118.771 1209 116.539L1175.96 139.083C1175.2 137.971 1174.77 137.08 1174.66 136.848C1174.5 136.508 1174.42 136.295 1174.41 136.282C1174.4 136.257 1174.49 136.469 1174.65 136.987C1174.97 137.993 1175.39 139.463 1175.82 141.153C1176.24 142.829 1176.61 144.504 1176.88 145.905C1177.01 146.603 1177.1 147.148 1177.15 147.534C1177.21 147.974 1177.19 147.974 1177.18 147.659L1217.15 146.181ZM1212.95 134.634C1212.8 134.443 1212.64 134.249 1212.48 134.053L1181.85 159.787C1181.8 159.717 1181.75 159.656 1181.7 159.604L1212.95 134.634Z" fill="#BC5151" mask="url(#path-3-inside-1_432_268)"/>
</mask>
<g mask="url(#mask0_432_268)">
<g filter="url(#filter2_i_432_268)">
<ellipse cx="1142.3" cy="132.183" rx="57.2983" ry="53.4419" fill="#D96B6B"/>
</g>
<path d="M1196.6 132.183C1196.6 159.848 1172.49 182.625 1142.3 182.625C1112.11 182.625 1088 159.848 1088 132.183C1088 104.518 1112.11 81.7412 1142.3 81.7412C1172.49 81.7412 1196.6 104.518 1196.6 132.183Z" stroke="#BC5151" stroke-width="6"/>
<path fill-rule="evenodd" clip-rule="evenodd" d="M1182.06 146.159L1184.6 147.202C1184.74 146.908 1184.88 146.611 1185.01 146.312C1185.14 146.013 1185.27 145.714 1185.39 145.414L1182.8 144.487L1180.21 143.56C1180.1 143.82 1179.99 144.081 1179.87 144.341C1179.76 144.601 1179.64 144.859 1179.52 145.115L1182.06 146.159ZM1184.03 141.076L1186.71 141.763C1186.9 141.144 1187.07 140.523 1187.23 139.901L1184.52 139.337L1181.81 138.773C1181.67 139.313 1181.52 139.851 1181.35 140.388L1184.03 141.076ZM1185.25 135.811L1188.01 136.124C1188.11 135.489 1188.2 134.853 1188.27 134.218L1185.48 134.03L1182.7 133.843C1182.64 134.394 1182.57 134.946 1182.48 135.497L1185.25 135.811ZM1188.48 130.391L1188.49 130.391C1188.5 129.752 1188.49 129.115 1188.47 128.479L1188.46 128.48C1188.46 128.449 1188.46 128.419 1188.46 128.389L1182.46 128.613L1176.46 128.837C1176.48 129.194 1176.48 129.554 1176.48 129.916C1176.48 130.278 1176.48 130.637 1176.46 130.995L1182.46 131.219L1188.46 131.443C1188.47 131.093 1188.48 130.743 1188.48 130.391ZM1185.38 125.111L1188.15 124.677C1188.07 124.047 1187.97 123.42 1187.86 122.795L1185.1 123.349L1182.34 123.903C1182.44 124.448 1182.53 124.996 1182.6 125.545L1185.38 125.111ZM1184.3 119.875L1187 119.087C1186.83 118.477 1186.65 117.871 1186.45 117.269L1183.78 118.17L1181.11 119.071C1181.29 119.598 1181.45 120.129 1181.6 120.663L1184.3 119.875ZM1182.51 114.839L1185.1 113.72C1184.84 113.139 1184.58 112.564 1184.3 111.995L1181.76 113.22L1179.23 114.445C1179.47 114.945 1179.71 115.45 1179.93 115.959L1182.51 114.839ZM1176.96 105.695L1179.19 103.989C1178.79 103.495 1178.38 103.009 1177.96 102.53L1175.81 104.322L1173.65 106.115C1174.02 106.537 1174.38 106.966 1174.73 107.401L1176.96 105.695ZM1173.31 101.73L1175.31 99.7744C1174.85 99.3351 1174.38 98.9044 1173.9 98.4825L1171.98 100.514L1170.06 102.545C1170.49 102.917 1170.91 103.297 1171.31 103.685L1173.31 101.73ZM1169.16 98.2513L1170.9 96.0797C1170.39 95.7012 1169.86 95.332 1169.33 94.9725L1167.68 97.2085L1166.03 99.4445C1166.5 99.7623 1166.96 100.089 1167.42 100.423L1169.16 98.2513ZM1159.63 92.9359L1160.79 90.4401C1160.49 90.3177 1160.18 90.198 1159.88 90.0809C1159.57 89.9638 1159.27 89.85 1158.96 89.7395L1157.9 92.2745L1156.84 94.8096C1157.12 94.9077 1157.39 95.0087 1157.66 95.1127C1157.93 95.2167 1158.2 95.323 1158.46 95.4316L1159.63 92.9359ZM1153.34 88.0812C1153.97 88.2277 1154.61 88.3872 1155.24 88.5601L1154.39 91.162L1153.54 93.7639C1152.98 93.6108 1152.42 93.4695 1151.86 93.3399L1152.6 90.7105L1153.34 88.0812ZM1148.96 90.0233L1149.48 87.3518C1148.82 87.2557 1148.17 87.173 1147.52 87.1036L1147.12 89.7895L1146.72 92.4754C1147.29 92.5367 1147.87 92.6098 1148.44 92.6947L1148.96 90.0233ZM1143.58 86.8547L1143.58 86.8434C1142.92 86.8264 1142.26 86.8228 1141.6 86.8324L1141.6 86.8433C1141.32 86.8471 1141.05 86.8532 1140.77 86.8616L1140.95 92.8588L1141.13 98.856C1141.52 98.8443 1141.91 98.8384 1142.3 98.8384C1142.69 98.8384 1143.08 98.8443 1143.46 98.856L1143.64 92.8588L1143.83 86.8616C1143.74 86.8591 1143.66 86.8568 1143.58 86.8547ZM1137.82 89.7387L1137.64 87.0498C1136.98 87.1129 1136.32 87.1892 1135.66 87.2785L1135.96 89.9539L1136.25 92.6292C1136.83 92.5505 1137.41 92.4832 1138 92.4277L1137.82 89.7387ZM1132.27 90.6088L1131.74 87.975C1131.09 88.1177 1130.45 88.2735 1129.81 88.4421L1130.45 91.0479L1131.1 93.6536C1131.66 93.5053 1132.23 93.3682 1132.8 93.2426L1132.27 90.6088ZM1126.87 92.1468L1125.99 89.6119C1125.37 89.833 1124.74 90.0668 1124.13 90.3131L1125.12 92.8054L1126.11 95.2976C1126.65 95.0814 1127.2 94.8761 1127.75 94.6818L1126.87 92.1468ZM1116.86 97.1501L1115.32 94.947C1114.76 95.3165 1114.22 95.6977 1113.69 96.0904L1115.33 98.2205L1116.97 100.351C1117.44 100.008 1117.91 99.6756 1118.39 99.3531L1116.86 97.1501ZM1112.43 100.55L1110.59 98.5805C1110.09 99.0169 1109.61 99.4645 1109.13 99.9229L1111.07 101.805L1113.01 103.687C1113.42 103.288 1113.84 102.899 1114.28 102.519L1112.43 100.55ZM1108.52 104.484L1106.4 102.791C1105.97 103.287 1105.55 103.794 1105.14 104.31L1107.34 105.903L1109.55 107.496C1109.9 107.048 1110.26 106.608 1110.64 106.177L1108.52 104.484ZM1101.86 109.102L1101.85 109.1C1102.37 108.226 1102.92 107.37 1103.5 106.535L1108.43 109.956L1113.36 113.378C1112.94 113.98 1112.55 114.594 1112.18 115.22L1107.01 112.16L1103.21 109.905L1101.82 109.173C1101.83 109.149 1101.84 109.126 1101.86 109.102ZM1099.59 113.52C1099.72 113.221 1099.86 112.924 1099.99 112.63L1102.54 113.673L1105.08 114.717C1104.96 114.973 1104.84 115.231 1104.72 115.491C1104.61 115.751 1104.5 116.011 1104.39 116.272L1101.8 115.345L1099.21 114.418C1099.33 114.118 1099.46 113.818 1099.59 113.52ZM1100.57 118.756L1097.89 118.069C1097.7 118.688 1097.52 119.309 1097.36 119.93L1100.08 120.494L1102.79 121.058C1102.93 120.519 1103.08 119.981 1103.25 119.443L1100.57 118.756ZM1099.35 124.021L1096.58 123.707C1096.48 124.343 1096.4 124.978 1096.33 125.614L1099.11 125.801L1101.9 125.989C1101.95 125.438 1102.03 124.886 1102.11 124.335L1099.35 124.021ZM1096.12 129.44L1096.1 129.441C1096.1 130.079 1096.1 130.717 1096.13 131.353L1096.14 131.352C1096.14 131.382 1096.14 131.413 1096.14 131.443L1102.14 131.219L1108.13 130.995C1108.12 130.637 1108.11 130.278 1108.11 129.916C1108.11 129.554 1108.12 129.194 1108.13 128.837L1102.14 128.613L1096.14 128.389C1096.13 128.738 1096.12 129.089 1096.12 129.44ZM1099.22 134.721L1096.45 135.155C1096.53 135.785 1096.63 136.412 1096.74 137.037L1099.5 136.483L1102.25 135.928C1102.16 135.383 1102.07 134.836 1102 134.287L1099.22 134.721ZM1100.3 139.957L1097.59 140.744C1097.76 141.354 1097.95 141.961 1098.15 142.563L1100.81 141.662L1103.48 140.761C1103.31 140.233 1103.15 139.703 1103 139.169L1100.3 139.957ZM1102.09 144.992L1099.5 146.112C1099.75 146.692 1100.02 147.267 1100.3 147.837L1102.83 146.612L1105.37 145.386C1105.13 144.886 1104.89 144.381 1104.67 143.872L1102.09 144.992ZM1107.63 154.137L1105.41 155.843C1105.8 156.337 1106.21 156.823 1106.64 157.302L1108.79 155.509L1110.95 153.717C1110.58 153.295 1110.22 152.866 1109.86 152.431L1107.63 154.137ZM1111.29 158.102L1109.29 160.057C1109.75 160.497 1110.22 160.927 1110.7 161.349L1112.62 159.318L1114.53 157.287C1114.11 156.915 1113.69 156.534 1113.29 156.147L1111.29 158.102ZM1115.44 161.58L1113.7 163.752C1114.21 164.131 1114.74 164.5 1115.27 164.859L1116.92 162.623L1118.57 160.387C1118.1 160.069 1117.63 159.743 1117.18 159.409L1115.44 161.58ZM1124.97 166.896L1123.81 169.392C1124.11 169.514 1124.41 169.634 1124.72 169.751C1125.02 169.868 1125.33 169.982 1125.64 170.092L1126.69 167.557L1127.75 165.022C1127.48 164.924 1127.21 164.823 1126.94 164.719C1126.67 164.615 1126.4 164.509 1126.13 164.4L1124.97 166.896ZM1130.21 168.67L1129.36 171.272C1129.99 171.444 1130.62 171.604 1131.26 171.75L1132 169.121L1132.74 166.492C1132.17 166.362 1131.61 166.221 1131.05 166.068L1130.21 168.67ZM1135.64 169.808L1135.12 172.48C1135.77 172.576 1136.42 172.659 1137.08 172.728L1137.48 170.042L1137.88 167.356C1137.3 167.295 1136.73 167.222 1136.15 167.137L1135.64 169.808ZM1141.02 172.977L1141.02 172.988C1141.68 173.005 1142.34 173.009 1143 172.999L1143 172.988C1143.27 172.985 1143.55 172.978 1143.83 172.97L1143.64 166.973L1143.46 160.976C1143.08 160.987 1142.69 160.993 1142.3 160.993C1141.91 160.993 1141.52 160.987 1141.13 160.976L1140.95 166.973L1140.77 172.97C1140.85 172.973 1140.94 172.975 1141.02 172.977ZM1146.78 170.093L1146.96 172.782C1147.62 172.719 1148.28 172.643 1148.93 172.553L1148.64 169.878L1148.34 167.202C1147.76 167.281 1147.18 167.348 1146.6 167.404L1146.78 170.093ZM1152.32 169.223L1152.85 171.857C1153.5 171.714 1154.15 171.558 1154.79 171.39L1154.14 168.784L1153.5 166.178C1152.93 166.326 1152.37 166.463 1151.79 166.589L1152.32 169.223ZM1157.73 167.685L1158.6 170.22C1159.23 169.999 1159.85 169.765 1160.47 169.519L1159.48 167.026L1158.49 164.534C1157.95 164.75 1157.4 164.956 1156.85 165.15L1157.73 167.685ZM1167.74 162.682L1169.28 164.885C1169.83 164.515 1170.38 164.134 1170.91 163.741L1169.27 161.611L1167.62 159.481C1167.16 159.824 1166.68 160.156 1166.2 160.479L1167.74 162.682ZM1172.16 159.282L1174.01 161.251C1174.5 160.815 1174.99 160.367 1175.47 159.909L1173.53 158.027L1171.59 156.145C1171.18 156.543 1170.75 156.933 1170.32 157.312L1172.16 159.282ZM1176.08 155.348L1178.19 157.041C1178.62 156.545 1179.04 156.038 1179.45 155.521L1177.25 153.928L1175.05 152.336C1174.7 152.784 1174.33 153.224 1173.96 153.654L1176.08 155.348ZM1181.75 152.326L1181.75 152.326C1181.77 152.291 1181.8 152.255 1181.82 152.219C1182.14 151.729 1182.45 151.234 1182.74 150.732L1182.74 150.73C1182.75 150.706 1182.77 150.683 1182.78 150.659L1181.38 149.925L1177.58 147.672L1172.42 144.612C1172.05 145.238 1171.66 145.852 1171.24 146.454L1176.17 149.875L1181.1 153.297C1181.32 152.976 1181.54 152.653 1181.75 152.326ZM1181.1 106.535C1181.68 107.37 1182.23 108.226 1182.74 109.1L1177.58 112.16L1172.42 115.22C1172.05 114.594 1171.66 113.98 1171.24 113.378L1176.17 109.956L1181.1 106.535ZM1163.2 98.2434L1166.14 93.0158C1165.26 92.519 1164.36 92.0488 1163.44 91.6067L1160.84 97.0135L1158.24 102.42C1158.92 102.751 1159.6 103.101 1160.25 103.471L1163.2 98.2434ZM1123.76 97.0135L1121.16 91.6067C1120.24 92.0488 1119.34 92.5189 1118.45 93.0158L1121.4 98.2434L1124.34 103.471C1125 103.101 1125.67 102.751 1126.36 102.42L1123.76 97.0135ZM1107.01 147.672L1101.85 150.732C1102.37 151.606 1102.92 152.461 1103.5 153.297L1108.43 149.875L1113.36 146.454C1112.94 145.852 1112.55 145.238 1112.18 144.612L1107.01 147.672ZM1121.16 168.225C1120.24 167.783 1119.34 167.313 1118.45 166.816L1121.4 161.588L1124.34 156.361C1125 156.731 1125.67 157.081 1126.36 157.411L1123.76 162.818L1121.16 168.225ZM1160.84 162.818L1163.44 168.225C1164.36 167.783 1165.26 167.313 1166.14 166.816L1163.2 161.588L1160.25 156.361C1159.6 156.731 1158.92 157.081 1158.24 157.411L1160.84 162.818Z" fill="#BC5151"/>
<path d="M1159.73 145.139C1159.73 153.102 1152.59 160.726 1142.3 160.726C1132 160.726 1124.86 153.102 1124.86 145.139C1124.86 137.175 1132 129.551 1142.3 129.551C1152.59 129.551 1159.73 137.175 1159.73 145.139Z" fill="#D96B6B" stroke="#BC5151" stroke-width="20"/>
<path d="M1069.03 138.705C1069.03 131.84 1075.1 126.564 1081.9 127.524L1137.85 135.429C1143.45 136.221 1149.14 136.221 1154.74 135.429L1210.69 127.524C1217.48 126.564 1223.56 131.84 1223.56 138.705C1223.56 144.941 1218.5 149.997 1212.27 149.997H1080.32C1074.08 149.997 1069.03 144.941 1069.03 138.705Z" fill="#0F0A0A"/>
<ellipse cx="1142.3" cy="142.871" rx="19.794" ry="18.4617" fill="#0F0A0A"/>
<g filter="url(#filter3_i_432_268)">
<ellipse cx="1142.12" cy="142.386" rx="13.3696" ry="12.4698" fill="#D9D9D9"/>
</g>
<path d="M1141.31 97.6278C1141.49 96.5024 1143.11 96.5024 1143.29 97.6278L1148.82 132.661C1148.87 132.972 1148.77 133.287 1148.55 133.513L1143.02 139.216C1142.62 139.621 1141.97 139.621 1141.58 139.216L1136.05 133.513C1135.83 133.287 1135.73 132.972 1135.78 132.661L1141.31 97.6278Z" fill="#A2D7D5"/>
<path d="M1140.31 104.284C1140.5 103.067 1142.3 103.207 1142.3 104.44V133.479V137.813C1142.3 138.711 1141.21 139.154 1140.58 138.509L1136.05 133.837C1135.83 133.611 1135.73 133.296 1135.78 132.985L1140.31 104.284Z" fill="#55A3AB"/>
</g>
<g filter="url(#filter4_i_432_268)">
<path d="M1102.85 151.845C1102.37 152.163 1101.88 152.464 1101.39 152.742C1100.97 152.966 1100.53 153.199 1100.05 153.445C1099.6 153.691 1099.21 153.886 1098.89 154.015C1099.55 157.41 1100.19 160.027 1100.66 161.857C1101.2 163.696 1101.61 165.05 1101.87 165.909C1102.17 166.929 1102.31 167.502 1102.31 167.625C1102.25 167.616 1102.06 167.454 1101.71 167.139C1101.34 166.79 1100.93 166.391 1100.46 165.941C1100.01 165.491 1099.58 165.054 1099.14 164.616C1098.73 164.189 1098.45 163.871 1098.32 163.667C1098.12 163.24 1097.56 162.012 1096.66 159.991C1096.27 159.113 1095.82 158.025 1095.32 156.726C1094.87 155.434 1094.38 153.863 1093.93 152.023C1093.63 150.187 1093.45 148.023 1093.44 145.542C1093.6 143.065 1093.89 140.221 1094.29 137.001C1093.78 136.946 1093.34 136.908 1092.98 136.895C1092.66 136.878 1092.4 136.882 1092.22 136.908C1092.04 136.898 1091.91 136.891 1091.81 136.888C1091.73 136.849 1091.68 136.765 1091.64 136.635C1091.58 136.373 1091.59 135.939 1091.66 135.333C1091.74 134.692 1091.85 134.083 1091.97 133.51C1092.11 132.872 1092.32 132.234 1092.59 131.596C1092.88 130.958 1093.14 130.559 1093.38 130.404C1093.47 130.342 1093.67 130.329 1093.98 130.365C1094.31 130.404 1094.69 130.475 1095.11 130.579C1095.54 130.682 1095.99 130.802 1096.49 130.945C1096.99 131.081 1097.45 131.22 1097.9 131.356C1098.34 131.495 1098.72 131.631 1099.04 131.767C1099.39 131.871 1099.64 131.942 1099.79 131.975C1100.04 132.049 1100.5 132.256 1101.16 132.597C1101.82 132.907 1102.53 133.306 1103.27 133.788C1104.04 134.242 1104.76 134.747 1105.43 135.304C1106.13 135.826 1106.64 136.35 1106.97 136.869C1107.09 137.079 1107.2 137.659 1107.31 138.614C1107.44 139.573 1107.54 140.616 1107.61 141.74C1107.71 142.835 1107.76 143.887 1107.77 144.904C1107.81 145.892 1107.77 146.534 1107.66 146.832C1107.56 147.026 1107.38 147.334 1107.11 147.755C1106.84 148.172 1106.5 148.636 1106.08 149.138C1105.68 149.607 1105.21 150.087 1104.67 150.572C1104.13 151.052 1103.52 151.479 1102.85 151.845ZM1098.57 150.449C1098.84 150.31 1099.16 150.028 1099.53 149.601C1099.93 149.144 1100.34 148.632 1100.76 148.078C1101.18 147.483 1101.59 146.87 1102.01 146.239C1102.42 145.572 1102.79 144.95 1103.11 144.37C1103.47 143.79 1103.74 143.291 1103.93 142.867C1104.15 142.407 1104.25 142.112 1104.25 141.98C1104.25 141.779 1104.13 141.52 1103.89 141.212C1103.65 140.865 1103.31 140.512 1102.86 140.163C1102.44 139.81 1101.9 139.469 1101.27 139.146C1100.66 138.793 1099.97 138.485 1099.22 138.223C1098.84 142.308 1098.62 146.383 1098.57 150.449ZM1118.94 141.989C1119.12 142.21 1119.29 142.631 1119.46 143.246C1119.65 143.865 1119.82 144.61 1119.98 145.478C1120.14 146.352 1120.29 147.301 1120.43 148.318C1120.58 149.342 1120.71 150.349 1120.84 151.343C1120.96 152.334 1121.07 153.274 1121.14 154.161C1121.24 155.01 1121.32 155.716 1121.37 156.273C1121.44 156.943 1121.5 157.649 1121.55 158.394C1121.62 159.107 1121.66 159.794 1121.69 160.464C1121.73 161.099 1121.74 161.675 1121.74 162.197C1121.75 162.722 1121.73 163.107 1121.69 163.36C1121.59 163.901 1121.38 164.257 1121.05 164.422C1120.75 164.558 1120.39 164.623 1119.99 164.629C1119.79 164.629 1119.43 164.584 1118.93 164.496C1118.44 164.373 1117.91 164.241 1117.32 164.101C1116.76 163.93 1116.22 163.761 1115.7 163.599C1115.17 163.434 1114.77 163.295 1114.5 163.175C1113.96 162.906 1113.55 162.611 1113.28 162.284C1113.02 161.967 1112.75 161.52 1112.46 160.956C1112.37 160.73 1112.23 160.195 1112.08 159.34C1111.92 158.456 1111.76 157.416 1111.6 156.224C1111.48 155.003 1111.36 153.698 1111.26 152.308C1111.17 150.925 1111.11 149.61 1111.08 148.367C1111.09 147.129 1111.1 146.044 1111.14 145.115C1111.2 144.189 1111.3 143.573 1111.45 143.269C1111.68 142.796 1112.09 142.368 1112.68 141.98C1113.29 141.591 1113.83 141.28 1114.32 141.057C1114.57 140.959 1114.88 140.904 1115.28 140.885C1115.69 140.833 1116.12 140.849 1116.56 140.937C1117.03 140.989 1117.47 141.112 1117.89 141.306C1118.31 141.465 1118.66 141.695 1118.94 141.989ZM1117.89 158.576C1117.92 158.436 1117.93 158.006 1117.92 157.283C1117.93 156.529 1117.91 155.628 1117.86 154.582C1117.83 153.539 1117.78 152.425 1117.71 151.236C1117.66 150.051 1117.61 148.963 1117.56 147.959C1117.5 146.961 1117.44 146.119 1117.36 145.439C1117.28 144.723 1117.2 144.312 1117.12 144.202C1117 144.053 1116.81 143.988 1116.57 144.014C1116.34 144.001 1116.12 144.04 1115.87 144.133C1115.63 144.192 1115.41 144.286 1115.22 144.415C1115.03 144.509 1114.9 144.606 1114.83 144.707C1114.53 145.079 1114.38 145.701 1114.4 146.576C1114.41 146.822 1114.42 147.521 1114.44 148.684C1114.48 149.808 1114.56 151.042 1114.65 152.386C1114.75 153.698 1114.87 154.922 1114.99 156.066C1115.15 157.212 1115.3 157.925 1115.44 158.19C1115.59 158.459 1115.77 158.676 1116 158.851C1116.25 158.994 1116.5 159.081 1116.73 159.113C1117 159.152 1117.23 159.133 1117.44 159.052C1117.66 158.939 1117.81 158.777 1117.89 158.576ZM1130.3 153.675C1130.5 154.226 1130.81 155.055 1131.21 156.166C1131.63 157.283 1132.08 158.534 1132.55 159.91C1133.02 161.296 1133.49 162.741 1133.98 164.234C1134.45 165.75 1134.86 167.146 1135.21 168.425C1135.56 169.714 1135.83 170.796 1136.01 171.671C1136.21 172.545 1136.28 173.021 1136.22 173.102C1136.11 173.216 1135.94 173.264 1135.73 173.235C1135.51 173.164 1135.28 173.067 1135.04 172.95C1134.79 172.791 1134.56 172.607 1134.34 172.406C1134.14 172.166 1134 171.962 1133.91 171.774C1133.12 169.753 1132.41 167.914 1131.76 166.245C1131.13 164.603 1130.57 163.185 1130.08 161.986C1129.51 160.632 1129 159.395 1128.54 158.268C1128.54 160.085 1128.54 161.811 1128.54 163.45C1128.54 165.102 1128.53 166.576 1128.52 167.875C1128.5 169.144 1128.47 170.168 1128.42 170.955C1128.38 171.703 1128.33 172.092 1128.27 172.121C1128.1 172.124 1127.91 171.965 1127.7 171.645C1127.49 171.285 1127.28 170.871 1127.09 170.401C1126.88 169.886 1126.69 169.381 1126.52 168.882C1126.35 168.344 1126.26 167.901 1126.21 167.544C1125.89 163.975 1125.62 160.817 1125.39 158.058C1125.18 155.288 1125 152.859 1124.84 150.764C1124.71 148.681 1124.6 146.893 1124.52 145.38C1124.47 143.842 1124.43 142.546 1124.39 141.484C1124.32 138.977 1124.32 137.257 1124.39 136.315C1124.47 135.593 1124.67 134.909 1124.99 134.261C1125.34 133.581 1125.71 132.985 1126.11 132.483C1126.5 131.978 1126.88 131.599 1127.24 131.346C1127.59 131.097 1127.83 131.022 1127.95 131.133C1128.05 131.243 1128.12 131.877 1128.17 133.037C1128.22 134.203 1128.26 135.693 1128.28 137.52C1128.32 139.317 1128.35 141.342 1128.37 143.596C1128.39 145.86 1128.41 148.14 1128.44 150.433C1128.83 149.436 1129.21 148.438 1129.59 147.444C1129.96 146.404 1130.32 145.481 1130.65 144.668C1130.99 143.823 1131.28 143.116 1131.53 142.566C1131.8 142.012 1132.01 141.678 1132.15 141.572C1132.31 141.426 1132.58 141.319 1132.93 141.248C1133.31 141.144 1133.69 141.073 1134.08 141.044C1134.46 141.011 1134.81 141.034 1135.12 141.112C1135.46 141.189 1135.67 141.322 1135.74 141.513C1135.82 141.623 1135.69 142.09 1135.37 142.912C1135.05 143.699 1134.63 144.671 1134.1 145.834C1133.58 146.99 1132.98 148.263 1132.31 149.649C1131.63 151.032 1130.96 152.376 1130.3 153.675ZM1140.8 157.481C1141.17 157.245 1141.59 156.982 1142.06 156.7C1142.56 156.377 1143.03 156.092 1143.47 155.849C1143.92 155.56 1144.32 155.314 1144.68 155.107C1145.03 154.903 1145.29 154.738 1145.46 154.615C1145.44 154.184 1145.41 153.695 1145.37 153.147C1145.36 152.564 1145.33 152.02 1145.28 151.518C1145.24 150.977 1145.19 150.514 1145.12 150.132C1145.05 149.747 1144.98 149.513 1144.91 149.439C1144.72 149.329 1144.39 149.235 1143.94 149.167C1143.51 149.053 1143.06 149.079 1142.58 149.238C1142.13 149.393 1141.71 149.688 1141.33 150.113C1140.95 150.537 1140.74 151.217 1140.69 152.153C1140.65 152.778 1140.64 153.559 1140.66 154.508C1140.69 155.453 1140.73 156.445 1140.8 157.481ZM1148.38 158.2C1148.36 158.284 1148.07 158.459 1147.53 158.731C1146.99 158.997 1146.34 159.292 1145.59 159.606C1144.84 159.881 1144.05 160.169 1143.22 160.477C1142.38 160.733 1141.66 160.947 1141.07 161.112C1141.17 162.747 1141.3 164.231 1141.45 165.562C1141.59 166.858 1141.72 167.68 1141.83 168.017C1141.94 168.309 1142.08 168.584 1142.26 168.833C1142.41 169.041 1142.6 169.248 1142.82 169.455C1143.06 169.614 1143.35 169.727 1143.68 169.799C1143.93 169.909 1144.17 169.724 1144.4 169.245C1144.59 168.807 1144.77 168.059 1144.92 167.003C1145.11 165.951 1145.22 164.312 1145.26 162.106C1145.98 161.863 1146.54 161.711 1146.94 161.646C1147.36 161.575 1147.65 161.556 1147.84 161.585C1148.07 161.607 1148.21 161.656 1148.25 161.734C1148.27 161.85 1148.26 162.152 1148.22 162.634C1148.19 163.126 1148.11 163.735 1147.99 164.477C1147.9 165.173 1147.79 165.96 1147.65 166.838C1147.53 167.671 1147.39 168.49 1147.23 169.3C1147.07 170.067 1146.9 170.777 1146.73 171.428C1146.55 172.04 1146.37 172.49 1146.19 172.765C1145.63 173.604 1144.96 174.071 1144.16 174.152C1143.37 174.174 1142.59 174.003 1141.82 173.64C1141.06 173.216 1140.37 172.707 1139.75 172.131C1139.14 171.502 1138.75 170.99 1138.6 170.595C1138.49 170.33 1138.39 169.685 1138.3 168.658C1138.21 167.599 1138.13 166.336 1138.05 164.879C1138 163.431 1137.96 161.854 1137.93 160.15C1137.9 158.459 1137.9 156.827 1137.93 155.243C1137.99 153.669 1138.07 152.224 1138.17 150.906C1138.3 149.594 1138.48 148.538 1138.71 147.732C1139.06 146.589 1139.63 145.659 1140.44 144.94C1141.25 144.218 1142.12 143.722 1143.04 143.457C1143.96 143.184 1144.83 143.142 1145.66 143.321C1146.51 143.495 1147.14 143.904 1147.55 144.535C1147.79 144.904 1148 145.659 1148.18 146.789C1148.36 147.887 1148.46 149.238 1148.48 150.844C1148.48 150.997 1148.48 151.437 1148.49 152.172C1148.5 152.901 1148.49 153.695 1148.47 154.553C1148.48 155.369 1148.47 156.156 1148.45 156.898C1148.44 157.649 1148.41 158.083 1148.38 158.2ZM1164.25 130.09C1164.33 130.229 1164.4 130.954 1164.48 132.266C1164.58 133.539 1164.68 135.133 1164.76 137.044C1164.85 138.954 1164.93 141.047 1164.99 143.314C1165.03 145.549 1165.06 147.716 1165.05 149.818C1165.03 151.884 1165 153.747 1164.96 155.392C1164.91 157.011 1164.88 158.142 1164.86 158.79C1164.84 159.764 1164.83 160.95 1164.82 162.352C1164.83 163.752 1164.83 165.138 1164.81 166.508C1164.81 167.839 1164.79 169.018 1164.75 170.032C1164.72 171.049 1164.65 171.664 1164.56 171.862C1164.47 172.066 1164.25 172.101 1163.89 171.969C1163.53 171.833 1163.15 171.612 1162.73 171.305C1162.32 170.99 1161.94 170.634 1161.58 170.233C1161.24 169.821 1161.03 169.458 1160.95 169.141C1160.87 168.782 1160.8 168.182 1160.74 167.334C1160.69 166.453 1160.64 165.29 1160.6 163.849C1160.22 164.804 1159.8 165.789 1159.35 166.806C1158.91 167.833 1158.48 168.785 1158.07 169.663C1157.67 170.547 1157.29 171.295 1156.96 171.904C1156.65 172.474 1156.43 172.752 1156.3 172.746C1156.08 172.752 1155.77 172.315 1155.36 171.424C1154.98 170.482 1154.59 169.416 1154.18 168.228C1153.78 167 1153.41 165.834 1153.07 164.739C1152.77 163.599 1152.6 162.838 1152.56 162.446C1152.55 162.21 1152.57 161.685 1152.6 160.859C1152.64 159.998 1152.69 158.984 1152.73 157.818C1152.81 156.655 1152.88 155.402 1152.95 154.061C1153.05 152.681 1153.13 151.347 1153.2 150.061C1153.29 148.736 1153.36 147.499 1153.42 146.336C1153.49 145.18 1153.56 144.231 1153.63 143.486C1153.7 142.339 1153.79 141.154 1153.89 139.939C1154.01 138.689 1154.11 137.533 1154.2 136.473C1154.31 135.414 1154.41 134.524 1154.5 133.795C1154.6 133.031 1154.7 132.561 1154.77 132.376C1154.83 132.234 1154.98 132.143 1155.23 132.104C1155.51 132.069 1155.81 132.104 1156.14 132.208C1156.46 132.282 1156.77 132.425 1157.04 132.642C1157.31 132.82 1157.5 133.05 1157.6 133.338C1157.64 133.52 1157.66 134.239 1157.64 135.505C1157.64 136.733 1157.62 138.219 1157.58 139.962C1157.54 141.714 1157.47 143.615 1157.37 145.672C1157.3 147.7 1157.21 149.627 1157.1 151.45C1156.99 153.287 1156.89 154.867 1156.79 156.192C1156.72 157.481 1156.68 158.239 1156.67 158.469C1156.64 158.887 1156.78 159.534 1157.08 160.406C1157.4 161.238 1157.67 162.258 1157.89 163.483C1158.73 162.023 1159.57 160.577 1160.42 159.146C1160.48 158.106 1160.55 156.768 1160.63 155.146C1160.74 153.52 1160.84 151.813 1160.91 150.019C1160.98 148.195 1161.04 146.381 1161.1 144.571C1161.17 142.728 1161.23 141.047 1161.28 139.537C1161.32 138.031 1161.35 136.794 1161.37 135.829C1161.42 134.825 1161.45 134.252 1161.48 134.109C1161.57 133.824 1161.73 133.409 1161.96 132.875C1162.23 132.302 1162.5 131.784 1162.78 131.317C1163.07 130.818 1163.36 130.43 1163.64 130.145C1163.93 129.86 1164.13 129.84 1164.25 130.09ZM1180.47 138.048C1180.76 138.239 1181.02 138.592 1181.28 139.116C1181.56 139.602 1181.82 140.189 1182.06 140.872C1182.3 141.52 1182.49 142.236 1182.64 143.016C1182.78 143.768 1182.85 144.487 1182.83 145.176C1182.81 145.899 1182.65 146.909 1182.33 148.208C1182.02 149.474 1181.63 150.764 1181.17 152.072C1180.68 153.39 1180.21 154.582 1179.77 155.641C1179.32 156.704 1179.02 157.338 1178.9 157.552C1178.57 158.343 1178.23 158.926 1177.88 159.298C1177.55 159.606 1177.14 159.862 1176.65 160.062C1176.2 160.224 1175.75 160.357 1175.29 160.458C1174.84 160.558 1174.4 160.623 1173.99 160.652C1173.59 160.645 1173.29 160.61 1173.07 160.535C1173.04 160.542 1172.96 160.522 1172.82 160.474C1172.58 161.866 1172.33 163.298 1172.04 164.772C1171.79 166.041 1171.5 167.473 1171.18 169.076C1170.88 170.65 1170.57 172.25 1170.26 173.883C1170.16 174.216 1170.01 174.621 1169.8 175.094C1169.61 175.561 1169.41 176.004 1169.17 176.419C1168.93 176.876 1168.69 177.261 1168.46 177.575C1168.24 177.883 1168.07 178.025 1167.93 177.996C1167.84 177.986 1167.84 177.368 1167.91 176.144C1168.01 174.952 1168.15 173.368 1168.34 171.392C1168.56 169.452 1168.8 167.243 1169.05 164.752C1169.29 162.281 1169.52 159.761 1169.75 157.199C1169.94 154.65 1170.1 152.153 1170.23 149.717C1170.36 147.246 1170.44 145.06 1170.49 143.152C1170.54 141.209 1170.6 139.628 1170.66 138.414C1170.72 137.16 1170.8 136.483 1170.91 136.38C1170.99 136.269 1171.14 136.286 1171.37 136.418C1171.6 136.519 1171.86 136.716 1172.13 137.021C1172.44 137.29 1172.74 137.643 1173.05 138.083C1173.38 138.485 1173.66 138.938 1173.91 139.44C1175.22 138.644 1176.46 138.077 1177.64 137.737C1178.82 137.397 1179.77 137.5 1180.47 138.048ZM1178.61 145.491C1178.63 144.953 1178.59 144.438 1178.47 143.946C1178.37 143.414 1178.23 142.971 1178.05 142.611C1177.87 142.219 1177.67 141.928 1177.46 141.733C1177.28 141.51 1177.1 141.432 1176.94 141.507C1176.25 141.743 1175.68 142.006 1175.22 142.297C1174.97 142.446 1174.76 142.611 1174.6 142.789C1174.6 143.878 1174.55 145.374 1174.43 147.285C1174.31 149.157 1174.14 151.223 1173.89 153.484C1173.77 154.479 1173.71 155.146 1173.72 155.483C1173.63 156.305 1173.71 156.853 1173.96 157.125C1174.02 157.219 1174.12 157.326 1174.26 157.442C1174.4 157.523 1174.56 157.601 1174.73 157.682C1174.9 157.727 1175.08 157.753 1175.26 157.763C1175.45 157.74 1175.63 157.649 1175.78 157.497C1175.82 157.458 1175.92 157.144 1176.09 156.558C1176.3 155.936 1176.53 155.194 1176.76 154.336C1176.99 153.449 1177.22 152.509 1177.45 151.525C1177.7 150.504 1177.9 149.572 1178.06 148.726C1178.24 147.845 1178.38 147.104 1178.47 146.498C1178.56 145.892 1178.61 145.555 1178.61 145.491ZM1191.36 131.683C1191.45 131.871 1191.59 132.626 1191.79 133.934C1192.01 135.21 1192.24 136.788 1192.47 138.669C1192.72 140.519 1192.93 142.514 1193.11 144.652C1193.21 146.76 1193.18 148.762 1192.93 150.65C1192.46 152.513 1191.84 154.1 1191.19 155.424C1190.54 156.71 1190.09 157.458 1189.87 157.659C1189.32 158.207 1188.68 158.556 1187.97 158.722C1187.29 158.851 1186.79 158.903 1186.49 158.874C1186.41 158.851 1186.44 158.504 1186.57 157.834C1186.69 157.167 1186.87 156.273 1187.09 155.152C1187.3 154.028 1187.5 152.746 1187.66 151.298C1187.75 149.853 1187.79 148.373 1187.79 146.861C1187.75 145.312 1187.66 143.8 1187.55 142.316C1187.41 140.801 1187.28 139.424 1187.17 138.193C1187.06 136.959 1186.97 135.923 1186.92 135.074C1186.87 134.226 1186.86 133.688 1186.9 133.458C1186.96 132.995 1187.2 132.584 1187.6 132.211C1188 131.845 1188.44 131.576 1188.94 131.405C1189.44 131.197 1189.91 131.123 1190.36 131.178C1190.83 131.197 1191.17 131.366 1191.36 131.683ZM1188.77 161.844C1188.79 162.051 1188.68 162.369 1188.44 162.786C1188.26 163.169 1188.01 163.59 1187.69 164.049C1187.43 164.474 1187.12 164.901 1186.77 165.339C1186.47 165.737 1186.19 166.08 1185.92 166.356C1185.71 166.566 1185.48 166.751 1185.22 166.909C1184.97 167.068 1184.72 167.185 1184.49 167.25C1184.24 167.353 1184.02 167.421 1183.82 167.454C1183.64 167.486 1183.48 167.512 1183.38 167.531C1183.23 167.525 1183.12 167.408 1183.03 167.178C1182.98 166.945 1182.95 166.66 1182.96 166.323C1183.01 165.944 1183.08 165.549 1183.19 165.131C1183.31 164.688 1183.49 164.26 1183.73 163.855C1183.96 163.483 1184.33 163.12 1184.86 162.773C1185.41 162.394 1185.97 162.093 1186.53 161.873C1187.13 161.649 1187.64 161.526 1188.07 161.51C1188.55 161.458 1188.78 161.568 1188.77 161.844Z" fill="#D9D9D9"/>
</g>
<rect x="1135.35" y="61.8989" width="13.8905" height="21.7006" rx="5" fill="#BC5151"/>
<rect width="13.6628" height="16.9569" rx="3" transform="matrix(0.88046 -0.474121 0.526333 0.850278 1099.24 77.4456)" fill="#BC5151"/>
<rect width="13.6628" height="16.9569" rx="3" transform="matrix(-0.88046 -0.474121 -0.526333 0.850278 1185.48 77.4456)" fill="#BC5151"/>
<path d="M1158.95 64.1662C1158.95 72.5675 1151.61 79.5824 1142.3 79.5824C1132.98 79.5824 1125.64 72.5675 1125.64 64.1662C1125.64 55.7649 1132.98 48.75 1142.3 48.75C1151.61 48.75 1158.95 55.7649 1158.95 64.1662Z" stroke="#BC5151" stroke-width="3.5"/>
<g filter="url(#filter5_i_432_268)">
<rect x="1132.57" y="58.6602" width="19.4467" height="11.0123" rx="5" fill="#D96B6B"/>
</g>
<rect x="1131.07" y="57.1602" width="22.4467" height="14.0123" rx="6.5" stroke="#BC5151" stroke-width="3"/>
<defs>
<filter id="filter0_ii_432_268" x="0" y="0" width="1280" height="196" filterUnits="userSpaceOnUse" color-interpolation-filters="sRGB">
<feFlood flood-opacity="0" result="BackgroundImageFix"/>
<feBlend mode="normal" in="SourceGraphic" in2="BackgroundImageFix" result="shape"/>
<feColorMatrix in="SourceAlpha" type="matrix" values="0 0 0 0 0 0 0 0 0 0 0 0 0 0 0 0 0 0 127 0" result="hardAlpha"/>
<feOffset dy="-30"/>
<feComposite in2="hardAlpha" operator="arithmetic" k2="-1" k3="1"/>
<feColorMatrix type="matrix" values="0 0 0 0 0.101961 0 0 0 0 0.0862745 0 0 0 0 0.0862745 0 0 0 1 0"/>
<feBlend mode="normal" in2="shape" result="effect1_innerShadow_432_268"/>
<feColorMatrix in="SourceAlpha" type="matrix" values="0 0 0 0 0 0 0 0 0 0 0 0 0 0 0 0 0 0 127 0" result="hardAlpha"/>
<feOffset dy="30"/>
<feComposite in2="hardAlpha" operator="arithmetic" k2="-1" k3="1"/>
<feColorMatrix type="matrix" values="0 0 0 0 0.179167 0 0 0 0 0.179167 0 0 0 0 0.179167 0 0 0 1 0"/>
<feBlend mode="normal" in2="effect1_innerShadow_432_268" result="effect2_innerShadow_432_268"/>
</filter>
<filter id="filter1_i_432_268" x="1070" y="0" width="144" height="283" filterUnits="userSpaceOnUse" color-interpolation-filters="sRGB">
<feFlood flood-opacity="0" result="BackgroundImageFix"/>
<feBlend mode="normal" in="SourceGraphic" in2="BackgroundImageFix" result="shape"/>
<feColorMatrix in="SourceAlpha" type="matrix" values="0 0 0 0 0 0 0 0 0 0 0 0 0 0 0 0 0 0 127 0" result="hardAlpha"/>
<feOffset dy="-30"/>
<feComposite in2="hardAlpha" operator="arithmetic" k2="-1" k3="1"/>
<feColorMatrix type="matrix" values="0 0 0 0 0.101961 0 0 0 0 0.0862745 0 0 0 0 0.0862745 0 0 0 1 0"/>
<feBlend mode="normal" in2="shape" result="effect1_innerShadow_432_268"/>
</filter>
<filter id="filter2_i_432_268" x="1085" y="78.7412" width="114.597" height="106.884" filterUnits="userSpaceOnUse" color-interpolation-filters="sRGB">
<feFlood flood-opacity="0" result="BackgroundImageFix"/>
<feBlend mode="normal" in="SourceGraphic" in2="BackgroundImageFix" result="shape"/>
<feColorMatrix in="SourceAlpha" type="matrix" values="0 0 0 0 0 0 0 0 0 0 0 0 0 0 0 0 0 0 127 0" result="hardAlpha"/>
<feOffset dx="-6" dy="12"/>
<feComposite in2="hardAlpha" operator="arithmetic" k2="-1" k3="1"/>
<feColorMatrix type="matrix" values="0 0 0 0 1 0 0 0 0 1 0 0 0 0 1 0 0 0 0.45 0"/>
<feBlend mode="normal" in2="shape" result="effect1_innerShadow_432_268"/>
</filter>
<filter id="filter3_i_432_268" x="1128.75" y="129.916" width="26.7393" height="24.9395" filterUnits="userSpaceOnUse" color-interpolation-filters="sRGB">
<feFlood flood-opacity="0" result="BackgroundImageFix"/>
<feBlend mode="normal" in="SourceGraphic" in2="BackgroundImageFix" result="shape"/>
<feColorMatrix in="SourceAlpha" type="matrix" values="0 0 0 0 0 0 0 0 0 0 0 0 0 0 0 0 0 0 127 0" result="hardAlpha"/>
<feOffset dy="-35"/>
<feComposite in2="hardAlpha" operator="arithmetic" k2="-1" k3="1"/>
<feColorMatrix type="matrix" values="0 0 0 0 0.145098 0 0 0 0 0.109804 0 0 0 0 0.109804 0 0 0 0.45 0"/>
<feBlend mode="normal" in2="shape" result="effect1_innerShadow_432_268"/>
</filter>
<filter id="filter4_i_432_268" x="1091.6" y="129.916" width="101.566" height="48.0842" filterUnits="userSpaceOnUse" color-interpolation-filters="sRGB">
<feFlood flood-opacity="0" result="BackgroundImageFix"/>
<feBlend mode="normal" in="SourceGraphic" in2="BackgroundImageFix" result="shape"/>
<feColorMatrix in="SourceAlpha" type="matrix" values="0 0 0 0 0 0 0 0 0 0 0 0 0 0 0 0 0 0 127 0" result="hardAlpha"/>
<feOffset dy="-3"/>
<feComposite in2="hardAlpha" operator="arithmetic" k2="-1" k3="1"/>
<feColorMatrix type="matrix" values="0 0 0 0 0.145833 0 0 0 0 0.111198 0 0 0 0 0.111198 0 0 0 0.45 0"/>
<feBlend mode="normal" in2="shape" result="effect1_innerShadow_432_268"/>
</filter>
<filter id="filter5_i_432_268" x="1129.57" y="55.6602" width="25.4468" height="17.0122" filterUnits="userSpaceOnUse" color-interpolation-filters="sRGB">
<feFlood flood-opacity="0" result="BackgroundImageFix"/>
<feBlend mode="normal" in="SourceGraphic" in2="BackgroundImageFix" result="shape"/>
<feColorMatrix in="SourceAlpha" type="matrix" values="0 0 0 0 0 0 0 0 0 0 0 0 0 0 0 0 0 0 127 0" result="hardAlpha"/>
<feOffset dx="-5" dy="7"/>
<feComposite in2="hardAlpha" operator="arithmetic" k2="-1" k3="1"/>
<feColorMatrix type="matrix" values="0 0 0 0 1 0 0 0 0 1 0 0 0 0 1 0 0 0 0.45 0"/>
<feBlend mode="normal" in2="shape" result="effect1_innerShadow_432_268"/>
</filter>
</defs>
</svg>
