<svg width="308" height="472" viewBox="0 0 308 472" fill="none" xmlns="http://www.w3.org/2000/svg">
<g clip-path="url(#clip0_488_74)">
<g opacity="0.9">
<rect x="2.10596" width="305.894" height="471.214" rx="20" fill="#BC5151"/>
<rect x="2.10596" width="305.894" height="471.214" rx="20" stroke="black"/>
</g>
<path d="M20.5334 73.1794C20.5334 67.6566 25.0106 63.1794 30.5334 63.1794H279.573C285.096 63.1794 289.573 67.6566 289.573 73.1794V361.706C289.573 367.229 285.096 371.706 279.573 371.706H30.5335C25.0106 371.706 20.5334 367.229 20.5334 361.706V73.1794Z" fill="white"/>
<path d="M2.38531 57.9145H98.2042L105.188 56.9533L114.127 53.8293L121.67 49.2634L128.654 42.775L133.403 37.0076L137.035 32.2014L143.18 26.6743L148.209 23.5503L154.913 20.6666L160.78 19.465H242.91H308V6.24804L306.883 2.6434L302.972 0H300.178H8.53113H6.855L4.89951 1.20155L3.78209 2.16278L3.22338 2.88371L2.66467 3.60464L2.10596 4.32557V5.04649L2.38531 57.9145Z" fill="#BC5151"/>
<circle cx="38.9606" cy="31.5897" r="15.9273" fill="#55A3AB" stroke="#D9D9D9" stroke-width="5"/>
<path d="M78.9743 12.8992C78.9743 15.08 77.2064 16.8479 75.0256 16.8479C72.8448 16.8479 71.0769 15.08 71.0769 12.8992C71.0769 10.7183 72.8448 8.95044 75.0256 8.95044C77.2064 8.95044 78.9743 10.7183 78.9743 12.8992Z" fill="#F5E97E"/>
<path d="M95.2957 12.8992C95.2957 15.08 93.5278 16.8479 91.347 16.8479C89.1662 16.8479 87.3983 15.08 87.3983 12.8992C87.3983 10.7183 89.1662 8.95044 91.347 8.95044C93.5278 8.95044 95.2957 10.7183 95.2957 12.8992Z" fill="#A2D7D5"/>
<path d="M113.197 12.8992C113.197 15.08 111.429 16.8479 109.248 16.8479C107.067 16.8479 105.299 15.08 105.299 12.8992C105.299 10.7183 107.067 8.95044 109.248 8.95044C111.429 8.95044 113.197 10.7183 113.197 12.8992Z" fill="#89C893"/>
<path d="M78.4743 12.8992C78.4743 14.8038 76.9303 16.3479 75.0256 16.3479C73.1209 16.3479 71.5769 14.8038 71.5769 12.8992C71.5769 10.9945 73.1209 9.45044 75.0256 9.45044C76.9303 9.45044 78.4743 10.9945 78.4743 12.8992ZM94.7957 12.8992C94.7957 14.8038 93.2517 16.3479 91.347 16.3479C89.4423 16.3479 87.8983 14.8038 87.8983 12.8992C87.8983 10.9945 89.4423 9.45044 91.347 9.45044C93.2517 9.45044 94.7957 10.9945 94.7957 12.8992ZM112.697 12.8992C112.697 14.8038 111.153 16.3479 109.248 16.3479C107.343 16.3479 105.799 14.8038 105.799 12.8992C105.799 10.9945 107.343 9.45044 109.248 9.45044C111.153 9.45044 112.697 10.9945 112.697 12.8992Z" stroke="#D9D9D9"/>
<path d="M169.046 25.8598H189.906V31.2498H182.556V51.0598H176.361V31.2498H169.046V25.8598ZM199.84 51.4798C196.76 51.4798 194.438 51.0248 192.875 50.1148C191.311 49.1815 190.53 47.5948 190.53 45.3548C190.53 43.9315 190.88 42.7765 191.58 41.8898C192.303 41.0031 193.295 40.3615 194.555 39.9648C195.815 39.5448 197.25 39.3348 198.86 39.3348C199.653 39.3348 200.376 39.3815 201.03 39.4748C201.683 39.5681 202.301 39.6848 202.885 39.8248V43.4298C202.535 43.3131 202.068 43.2081 201.485 43.1148C200.901 43.0215 200.341 42.9748 199.805 42.9748C198.568 42.9748 197.646 43.1498 197.04 43.4998C196.456 43.8498 196.165 44.4331 196.165 45.2498C196.165 46.0665 196.456 46.6381 197.04 46.9648C197.646 47.2915 198.498 47.4548 199.595 47.4548C200.318 47.4548 201.018 47.3848 201.695 47.2448C202.371 47.0815 202.943 46.8131 203.41 46.4398L202.71 48.1548C202.546 47.7815 202.418 47.4431 202.325 47.1398C202.231 46.8365 202.161 46.5215 202.115 46.1948C202.068 45.8448 202.033 45.4365 202.01 44.9698C202.01 44.4798 202.01 43.8731 202.01 43.1498V39.4748C202.01 38.5181 201.846 37.7831 201.52 37.2698C201.193 36.7565 200.691 36.4181 200.015 36.2548C199.361 36.0681 198.533 35.9748 197.53 35.9748C196.526 35.9748 195.57 36.0681 194.66 36.2548C193.773 36.4181 193.05 36.6281 192.49 36.8848H192.14V32.1948C192.98 31.9615 193.913 31.7748 194.94 31.6348C195.99 31.4715 197.098 31.3898 198.265 31.3898C199.688 31.3898 200.995 31.5181 202.185 31.7748C203.375 32.0315 204.401 32.4748 205.265 33.1048C206.151 33.7115 206.828 34.5631 207.295 35.6598C207.761 36.7331 207.995 38.1215 207.995 39.8248V44.0598C207.995 44.5498 208.006 45.1565 208.03 45.8798C208.053 46.6031 208.088 47.3148 208.135 48.0148C208.181 48.7148 208.263 49.2748 208.38 49.6948L208.24 49.9748C207.423 50.2781 206.56 50.5465 205.65 50.7798C204.74 50.9898 203.795 51.1531 202.815 51.2698C201.835 51.4098 200.843 51.4798 199.84 51.4798ZM212.106 45.4248H212.386C213.226 45.7748 214.241 46.0898 215.431 46.3698C216.621 46.6498 217.811 46.7898 219.001 46.7898C219.468 46.7898 219.899 46.7781 220.296 46.7548C220.693 46.7081 221.031 46.6381 221.311 46.5448C221.614 46.4515 221.848 46.2998 222.011 46.0898C222.174 45.8798 222.256 45.5998 222.256 45.2498C222.256 44.7365 222.034 44.3865 221.591 44.1998C221.171 44.0131 220.424 43.8265 219.351 43.6398L217.776 43.3598C216.003 43.0331 214.591 42.4615 213.541 41.6448C212.514 40.8281 212.001 39.5798 212.001 37.8998C212.001 36.6865 212.328 35.6015 212.981 34.6448C213.634 33.6648 214.661 32.9065 216.061 32.3698C217.461 31.8098 219.269 31.5298 221.486 31.5298C222.536 31.5298 223.493 31.5881 224.356 31.7048C225.243 31.8215 226.129 32.0081 227.016 32.2648V37.1298H226.736C225.779 36.7565 224.846 36.4998 223.936 36.3598C223.026 36.1965 222.163 36.1148 221.346 36.1148C220.273 36.1148 219.433 36.2315 218.826 36.4648C218.219 36.6748 217.916 37.0715 217.916 37.6548C217.916 38.0981 218.149 38.4131 218.616 38.5998C219.106 38.7865 219.806 38.9615 220.716 39.1248L222.326 39.4048C223.423 39.5915 224.414 39.8948 225.301 40.3148C226.211 40.7348 226.934 41.3298 227.471 42.0998C228.008 42.8465 228.276 43.8148 228.276 45.0048C228.276 47.1515 227.471 48.7498 225.861 49.7998C224.274 50.8265 221.871 51.3398 218.651 51.3398C217.554 51.3398 216.423 51.2465 215.256 51.0598C214.089 50.8731 213.039 50.6398 212.106 50.3598V45.4248ZM238.281 51.0598H232.121V30.2698C232.121 29.8031 232.109 29.2198 232.086 28.5198C232.086 27.7965 232.051 27.0965 231.981 26.4198C231.934 25.7198 231.864 25.1598 231.771 24.7398L231.876 24.4598H238.281V51.0598ZM237.196 41.0148L244.791 31.9148H251.266V32.3348C251.032 32.5215 250.741 32.8015 250.391 33.1748C250.041 33.5481 249.679 33.9565 249.306 34.3998C248.956 34.8198 248.617 35.2165 248.291 35.5898L241.886 42.6248L241.921 38.7048L248.711 47.5948C249.154 48.1781 249.644 48.7615 250.181 49.3448C250.741 49.9281 251.184 50.3598 251.511 50.6398V51.0598H244.511L237.196 41.0148ZM253.327 45.4248H253.607C254.447 45.7748 255.462 46.0898 256.652 46.3698C257.842 46.6498 259.032 46.7898 260.222 46.7898C260.688 46.7898 261.12 46.7781 261.517 46.7548C261.913 46.7081 262.252 46.6381 262.532 46.5448C262.835 46.4515 263.068 46.2998 263.232 46.0898C263.395 45.8798 263.477 45.5998 263.477 45.2498C263.477 44.7365 263.255 44.3865 262.812 44.1998C262.392 44.0131 261.645 43.8265 260.572 43.6398L258.997 43.3598C257.223 43.0331 255.812 42.4615 254.762 41.6448C253.735 40.8281 253.222 39.5798 253.222 37.8998C253.222 36.6865 253.548 35.6015 254.202 34.6448C254.855 33.6648 255.882 32.9065 257.282 32.3698C258.682 31.8098 260.49 31.5298 262.707 31.5298C263.757 31.5298 264.713 31.5881 265.577 31.7048C266.463 31.8215 267.35 32.0081 268.237 32.2648V37.1298H267.957C267 36.7565 266.067 36.4998 265.157 36.3598C264.247 36.1965 263.383 36.1148 262.567 36.1148C261.493 36.1148 260.653 36.2315 260.047 36.4648C259.44 36.6748 259.137 37.0715 259.137 37.6548C259.137 38.0981 259.37 38.4131 259.837 38.5998C260.327 38.7865 261.027 38.9615 261.937 39.1248L263.547 39.4048C264.643 39.5915 265.635 39.8948 266.522 40.3148C267.432 40.7348 268.155 41.3298 268.692 42.0998C269.228 42.8465 269.497 43.8148 269.497 45.0048C269.497 47.1515 268.692 48.7498 267.082 49.7998C265.495 50.8265 263.092 51.3398 259.872 51.3398C258.775 51.3398 257.643 51.2465 256.477 51.0598C255.31 50.8731 254.26 50.6398 253.327 50.3598V45.4248ZM188.952 97.0598V71.8598H195.182V91.6698H204.772V97.0598H188.952ZM211.617 75.1498C210.66 75.1498 209.878 74.8815 209.272 74.3448C208.665 73.7848 208.362 72.9915 208.362 71.9648C208.362 70.9381 208.665 70.1565 209.272 69.6198C209.878 69.0598 210.66 68.7798 211.617 68.7798C212.597 68.7798 213.39 69.0598 213.997 69.6198C214.603 70.1565 214.907 70.9381 214.907 71.9648C214.907 72.9915 214.603 73.7848 213.997 74.3448C213.39 74.8815 212.597 75.1498 211.617 75.1498ZM208.537 97.0598V83.7598C208.537 83.2931 208.525 82.6981 208.502 81.9748C208.502 81.2515 208.467 80.5515 208.397 79.8748C208.35 79.1748 208.28 78.6148 208.187 78.1948L208.292 77.9148H214.697V97.0598H208.537ZM219.215 91.4248H219.495C220.335 91.7748 221.35 92.0898 222.54 92.3698C223.73 92.6498 224.92 92.7898 226.11 92.7898C226.577 92.7898 227.009 92.7781 227.405 92.7548C227.802 92.7081 228.14 92.6381 228.42 92.5448C228.724 92.4515 228.957 92.2998 229.12 92.0898C229.284 91.8798 229.365 91.5998 229.365 91.2498C229.365 90.7365 229.144 90.3865 228.7 90.1998C228.28 90.0131 227.534 89.8265 226.46 89.6398L224.885 89.3598C223.112 89.0331 221.7 88.4615 220.65 87.6448C219.624 86.8281 219.11 85.5798 219.11 83.8998C219.11 82.6865 219.437 81.6015 220.09 80.6448C220.744 79.6648 221.77 78.9065 223.17 78.3698C224.57 77.8098 226.379 77.5298 228.595 77.5298C229.645 77.5298 230.602 77.5881 231.465 77.7048C232.352 77.8215 233.239 78.0081 234.125 78.2648V83.1298H233.845C232.889 82.7565 231.955 82.4998 231.045 82.3598C230.135 82.1965 229.272 82.1148 228.455 82.1148C227.382 82.1148 226.542 82.2315 225.935 82.4648C225.329 82.6748 225.025 83.0715 225.025 83.6548C225.025 84.0981 225.259 84.4131 225.725 84.5998C226.215 84.7865 226.915 84.9615 227.825 85.1248L229.435 85.4048C230.532 85.5915 231.524 85.8948 232.41 86.3148C233.32 86.7348 234.044 87.3298 234.58 88.0998C235.117 88.8465 235.385 89.8148 235.385 91.0048C235.385 93.1515 234.58 94.7498 232.97 95.7998C231.384 96.8265 228.98 97.3398 225.76 97.3398C224.664 97.3398 223.532 97.2465 222.365 97.0598C221.199 96.8731 220.149 96.6398 219.215 96.3598V91.4248ZM248.371 97.3398C246.668 97.3398 245.174 97.1181 243.891 96.6748C242.631 96.2081 241.639 95.4381 240.916 94.3648C240.216 93.2681 239.866 91.7981 239.866 89.9548V73.1198H246.026V89.4998C246.026 90.5731 246.283 91.3431 246.796 91.8098C247.333 92.2531 248.161 92.4748 249.281 92.4748C249.701 92.4748 250.109 92.4281 250.506 92.3348C250.903 92.2415 251.253 92.1365 251.556 92.0198H251.941V96.8498C251.428 97.0131 250.891 97.1298 250.331 97.1998C249.771 97.2931 249.118 97.3398 248.371 97.3398ZM236.751 82.6748V77.9148H251.066V82.6748H236.751Z" fill="white"/>
<path d="M1.05299 345.381L1.96491 348.145H0.141074L1.05299 345.381Z" fill="#D9D9D9"/>
<path d="M20.5334 390.133C20.5334 387.226 22.8906 384.868 25.7984 384.868H284.308C287.216 384.868 289.573 387.226 289.573 390.133V451.733C289.573 454.641 287.216 456.998 284.308 456.998H25.7984C22.8906 456.998 20.5334 454.641 20.5334 451.733V390.133Z" fill="#D9D9D9"/>
<path d="M233.764 398.557C233.764 397.103 234.943 395.925 236.397 395.925H246.927C248.38 395.925 249.559 397.103 249.559 398.557V442.783C249.559 444.237 248.38 445.415 246.927 445.415H236.397C234.943 445.415 233.764 444.237 233.764 442.783V398.557Z" fill="#554D4D"/>
<path d="M263.774 412.773C265.228 412.773 266.407 413.951 266.407 415.405V425.935C266.407 427.389 265.228 428.568 263.774 428.568H219.549C218.095 428.568 216.916 427.389 216.916 425.935V415.405C216.916 413.951 218.095 412.773 219.549 412.773H263.774Z" fill="#554D4D"/>
<path d="M55.8087 406.981C55.8087 414.541 49.6799 420.67 42.1198 420.67C34.5596 420.67 28.4309 414.541 28.4309 406.981C28.4309 399.421 34.5596 393.292 42.1198 393.292C49.6799 393.292 55.8087 399.421 55.8087 406.981Z" fill="#554D4D"/>
<path d="M80.0275 406.981C80.0275 405.527 81.2061 404.349 82.6599 404.349H173.744C175.198 404.349 176.376 405.527 176.376 406.981V442.783C176.376 444.237 175.198 445.415 173.744 445.415H82.6599C81.2061 445.415 80.0275 444.237 80.0275 442.783V406.981Z" fill="#89C893"/>
<path d="M84.2394 394.345C84.2394 393.764 84.7109 393.292 85.2924 393.292H122.147C122.729 393.292 123.2 393.764 123.2 394.345V396.978C123.2 397.559 122.729 398.031 122.147 398.031H85.2924C84.7109 398.031 84.2394 397.559 84.2394 396.978V394.345Z" fill="#C36363"/>
<path d="M133.73 394.345C133.73 393.764 134.201 393.292 134.783 393.292H171.638C172.219 393.292 172.691 393.764 172.691 394.345V396.978C172.691 397.559 172.219 398.031 171.638 398.031H134.783C134.201 398.031 133.73 397.559 133.73 396.978V394.345Z" fill="#55A3AB"/>
<path d="M241.662 399.084L246.221 408.166H237.102L241.662 399.084Z" fill="#655B5B"/>
<path d="M241.662 442.256L246.221 433.174H237.102L241.662 442.256Z" fill="#655B5B"/>
<path d="M219.549 420.67L228.631 425.23V416.111L219.549 420.67Z" fill="#655B5B"/>
<path d="M263.248 420.67L254.166 425.23V416.111L263.248 420.67Z" fill="#655B5B"/>
<path d="M284.571 385.395L285.255 387.764H283.887L284.571 385.395Z" fill="#D9D9D9"/>
<path d="M48 94C48 93.4477 48.4477 93 49 93H51C51.5523 93 52 93.4477 52 94V104C52 104.552 51.5523 105 51 105H49C48.4477 105 48 104.552 48 104V94Z" fill="white"/>
<path d="M55 97C55.5523 97 56 97.4477 56 98V100C56 100.552 55.5523 101 55 101H45C44.4477 101 44 100.552 44 100V98C44 97.4477 44.4477 97 45 97H55Z" fill="white"/>
</g>
<defs>
<clipPath id="clip0_488_74">
<rect width="308" height="471.214" fill="white"/>
</clipPath>
</defs>
</svg>
